<svg xmlns="http://www.w3.org/2000/svg" width="230" height="157" fill="none"><path fill="#202223" d="M4.79993 27.9999c.4 0 .8-.1 1-.3.2-.2.4-.5.4-.9 0-.5-.2-.8-.5-1-.2-.1-.4-.1-.7-.1h-2.2v2.3h2Zm-3-3.1h3.1c.5 0 .9.1 1.3.2.6.3.9.8.9 1.6 0 .4-.1.7-.2 1-.2.3-.4.5-.7.6.3.1.5.2.6.4.1.2.2.5.2.8v.9c0 .3 0 .4.1.6.1.2.2.3.3.4v.1h-1.1c0-.1-.1-.1-.1-.2v-.5l-.1-1.1c0-.4-.2-.7-.5-.9-.2-.1-.4-.1-.8-.1h-2v2.8h-.9v-6.6h-.1Zm8.49997 1.7c.3 0 .7.1 1 .2.3.2.6.4.7.6.2.2.3.5.3.9 0 .2.1.6.1 1.1H8.89993c0 .5.1.9.3 1.2.2.3.6.4.99997.4.4 0 .8-.1 1-.4l.3-.6h.8c0 .2-.1.4-.2.6-.1.2-.2.4-.4.5-.2.2-.6.4-.9.5-.2 0-.4.1-.7.1-.59997 0-1.09997-.2-1.49997-.7-.4-.4-.6-1.1-.6-1.8 0-.8.2-1.4.6-1.9.5-.4 1-.7 1.69997-.7Zm1.3 2.2c0-.4-.1-.6-.2-.8-.2-.4-.6-.6-1.1-.6-.39997 0-.69997.1-.89997.4-.3.3-.4.6-.4 1h2.59997Zm1.8-2.1h.8v.7c.2-.3.5-.5.7-.6.3-.1.5-.2.9-.2.7 0 1.1.2 1.4.7.1.3.2.6.2 1.1v3.1h-.8v-3c0-.3 0-.5-.1-.7-.1-.3-.4-.5-.8-.5-.2 0-.4 0-.5.1-.2.1-.4.2-.6.4-.1.2-.2.3-.3.5 0 .2-.1.4-.1.7v2.5h-.8v-4.8Zm7.2-.1c.3 0 .7.1 1 .2.3.2.6.4.7.6.2.2.3.5.3.9 0 .2.1.6.1 1.1h-3.5c0 .5.1.9.3 1.2.2.3.6.4 1 .4s.8-.1 1-.4l.3-.6h.8c0 .2-.1.4-.2.6-.1.2-.2.4-.4.5-.2.2-.6.4-.9.5-.2 0-.4.1-.7.1-.6 0-1.1-.2-1.5-.7-.4-.4-.6-1.1-.6-1.8 0-.8.2-1.4.6-1.9.5-.4 1-.7 1.7-.7Zm1.3 2.2c0-.4-.1-.6-.2-.8-.2-.4-.6-.6-1.1-.6-.4 0-.7.1-.9.4-.3.3-.4.6-.4 1h2.6Zm2.2-2.1.9 3.8.9-3.8h.9l.9 3.8 1-3.8h.8l-1.4 4.8h-.8l-1-3.7-1 3.7h-.8l-1.4-4.8h1Zm6.8 3.4c0 .3.1.5.2.6.2.3.6.4 1.1.4.3 0 .6-.1.8-.2.2-.1.3-.3.3-.6 0-.2-.1-.4-.3-.5-.1-.1-.3-.1-.7-.2l-.6-.2c-.4-.1-.7-.2-.9-.3-.3-.2-.5-.5-.5-.9 0-.5.2-.8.5-1.1.3-.3.8-.4 1.3-.4.7 0 1.3.2 1.6.6.2.3.3.6.3.9h-.8c0-.2-.1-.4-.2-.5-.2-.2-.5-.3-1-.3-.3 0-.5.1-.7.2-.2.1-.2.3-.2.5s.1.4.3.5c.1.1.3.1.5.2l.5.1c.6.1 1 .3 1.2.4.3.2.5.5.5 1 0 .4-.2.8-.5 1.1-.3.3-.8.5-1.5.5s-1.2-.2-1.5-.5c-.3-.5-.5-.9-.5-1.3h.8Zm8.7-3.5c.3 0 .7.1 1 .2.3.2.6.4.7.6.2.2.3.5.3.9 0 .2.1.6.1 1.1h-3.5c0 .5.1.9.3 1.2.2.3.6.4 1 .4s.8-.1 1-.4l.3-.6h.8c0 .2-.1.4-.2.6-.1.2-.2.4-.4.5-.2.2-.6.4-.9.5-.2 0-.4.1-.7.1-.6 0-1.1-.2-1.5-.7-.4-.4-.6-1.1-.6-1.8 0-.8.2-1.4.6-1.9.5-.4 1-.7 1.7-.7Zm1.3 2.2c0-.4-.1-.6-.2-.8-.2-.4-.6-.6-1.1-.6-.4 0-.7.1-.9.4-.3.3-.4.6-.4 1h2.6Zm2.3-2.1 1.3 3.9 1.3-3.9h.9l-1.8 4.8h-.9l-1.8-4.8h1Zm6.2-.1c.3 0 .7.1 1 .2.3.2.6.4.7.6.2.2.3.5.3.9 0 .2.1.6.1 1.1h-3.5c0 .5.1.9.3 1.2.2.3.6.4 1 .4s.8-.1 1-.4l.3-.6h.8c0 .2-.1.4-.2.6-.1.2-.2.4-.4.5-.2.2-.6.4-.9.5-.2 0-.4.1-.7.1-.6 0-1.1-.2-1.5-.7-.4-.4-.6-1.1-.6-1.8 0-.8.2-1.4.6-1.9.5-.4 1-.7 1.7-.7Zm1.3 2.2c0-.4-.1-.6-.2-.8-.2-.4-.6-.6-1.1-.6-.4 0-.7.1-.9.4-.3.3-.4.6-.4 1h2.6Zm1.9-2.1h.8v.8c.1-.2.2-.4.5-.6.2-.2.5-.4.9-.4H55.0999v.9h-.2c-.4 0-.7.1-.9.4-.2.3-.3.6-.3.9v2.8h-.8v-4.8h-.3Zm6 0h.9c-.1.3-.4 1-.8 2.1-.3.8-.5 1.5-.7 2-.5 1.2-.8 2-1 2.3-.2.3-.5.4-1 .4h-.5v-.7c.1 0 .2.1.3.1h.2c.2 0 .3 0 .3-.1.1 0 .1-.1.2-.2 0 0 .1-.1.2-.4.1-.2.2-.4.2-.5l-1.8-5h.9l1.3 3.9 1.3-3.9Zm2.1.1h.9v1h-.9v-1Zm0 3.8h.9v1h-.9v-1Z"/><path fill="#008060" fill-opacity=".05" d="M5.9 39.5996h57.9c2.7 0 4.9 2.2 4.9 4.9V128.3c0 2.7-2.2 4.9-4.9 4.9H5.9c-2.7 0-4.9-2.2-4.9-4.9V44.4996c0-2.7 2.2-4.9 4.9-4.9Z"/><path fill="#008060" d="M14.2 53.4999v-5h1.5v4.9c0 .6-.1 1.1-.3 1.4-.4.6-1 .9-1.9.9-.9 0-1.5-.2-1.9-.7-.3-.5-.5-1.1-.5-2v-.2h1.4v.3c0 .5.1.9.2 1.2.1.2.3.3.7.3.3 0 .6-.1.7-.4.1-.1.1-.4.1-.7Zm6.2 1.4s0 .1-.1.1c-.1.1-.1.2-.2.2-.2.2-.4.3-.6.4-.2.1-.4.1-.7.1-.8 0-1.3-.3-1.6-.8-.2-.3-.2-.8-.2-1.4v-3.2h1.4v3.2c0 .3 0 .5.1.7.1.3.4.4.7.4.5 0 .8-.2 1-.6.1-.2.1-.5.1-.8v-2.9h1.4v5.2h-1.3v-.6Zm6.3-4.3c.4.3.6.7.7 1.4H26c0-.2-.1-.3-.1-.4-.2-.2-.4-.3-.8-.3-.3 0-.5 0-.6.1-.1.1-.2.2-.2.3 0 .2.1.3.2.3.1.1.6.2 1.4.4.5.1 1 .3 1.2.6.3.3.4.6.4 1 0 .5-.2.9-.6 1.3-.4.3-1 .5-1.8.5s-1.4-.2-1.8-.5c-.4-.3-.6-.8-.6-1.3h1.4c0 .2.1.4.2.5.2.2.5.3.9.3.3 0 .5 0 .6-.1.2-.1.2-.2.2-.4s-.1-.3-.2-.4c-.1-.1-.6-.2-1.4-.4-.6-.1-1-.3-1.3-.6-.2-.2-.4-.5-.4-.9 0-.5.2-.9.6-1.2.4-.4.9-.5 1.6-.5.9-.1 1.4 0 1.8.3Zm4.3 4v1h-.7c-.6 0-1.1-.1-1.3-.3-.2-.2-.2-.4-.2-.7v-3.2h-.7v-1h.7v-1.5h1.3v1.5h.9v1h-.9v2.8c0 .2 0 .3.1.4.1.1.2.1.5.1h.1c.1-.1.1-.1.2-.1Zm6.9 1.2c-1 0-1.8-.3-2.3-.8-.7-.7-1.1-1.7-1.1-2.9 0-1.3.4-2.3 1.1-2.9.5-.6 1.3-.8 2.3-.8 1 0 1.8.3 2.3.8.7.7 1.1 1.6 1.1 2.9 0 1.3-.4 2.3-1.1 2.9-.5.5-1.3.8-2.3.8Zm1.4-1.9c.3-.4.5-1 .5-1.8s-.2-1.4-.5-1.8c-.3-.4-.8-.7-1.4-.7-.6 0-1.1.2-1.4.7-.3.4-.5 1-.5 1.8s.2 1.4.5 1.8c.3.4.8.7 1.4.7.5 0 1-.3 1.4-.7Zm5.5-2.5c-.5 0-.8.2-1 .6-.1.2-.1.5-.1.8v2.8h-1.4v-5.2h1.3v.7c.2-.3.3-.5.5-.6.3-.2.6-.3 1.1-.3.5 0 1 .1 1.3.4.3.3.5.8.5 1.4v3.5h-1.4v-3.2c0-.3 0-.5-.1-.6-.1-.2-.4-.3-.7-.3Zm8.1.9h-1.4c0-.2-.1-.4-.2-.5-.2-.2-.4-.3-.7-.3-.5 0-.8.2-.9.7-.1.2-.1.6-.1 1s0 .7.1.9c.2.4.5.7.9.7.3 0 .5-.1.7-.3.1-.2.2-.4.2-.7h1.4c0 .4-.2.8-.5 1.2-.4.6-1.1.9-1.9.9-.8 0-1.5-.3-1.9-.8-.4-.5-.6-1.2-.6-2 0-.9.2-1.6.7-2.1.4-.5 1-.8 1.8-.8.7 0 1.2.1 1.6.4.4.4.7.9.8 1.7Zm5.4 1.8c0 .3-.2.6-.5.9-.4.5-1.1.8-1.9.8-.7 0-1.3-.2-1.8-.6-.5-.4-.8-1.1-.8-2.1 0-.9.2-1.6.7-2.1.5-.5 1.1-.7 1.8-.7.4 0 .8.1 1.2.2.3.2.6.4.9.8.2.3.3.7.4 1.1v1h-3.6c0 .5.2.9.5 1.1.2.1.4.2.7.2.3 0 .5-.1.7-.2.1-.1.2-.2.3-.4h1.4Zm-1.4-1.6c0-.4-.1-.6-.3-.8-.2-.2-.4-.3-.7-.3-.3 0-.6.1-.7.3-.2.2-.3.5-.3.8h2Z"/><path stroke="#008060" d="M5.9 39.5996h57.9c2.7 0 4.9 2.2 4.9 4.9V128.3c0 2.7-2.2 4.9-4.9 4.9H5.9c-2.7 0-4.9-2.2-4.9-4.9V44.4996c0-2.7 2.2-4.9 4.9-4.9Z"/><path fill="#008060" d="M18.1 91.1999c-.8-.2-1.3-.5-1.6-.9-.3-.4-.5-.9-.5-1.5 0-.4.1-.7.2-1 .1-.3.3-.6.5-.8.3-.3.5999-.5.9999-.6.2-.1.5001-.1.9001-.2v-.8h.5v.8c.7.1 1.2.2 1.5.5.7.4.9999 1.1 1.0999 2.1H20.1c0-.4-.1001-.6-.2-.8-.2001-.3-.4-.4-.8-.5v2.3c1 .3 1.6.6 1.9.9.5.4.8 1 .8 1.8 0 1-.4001 1.7-1.1001 2.2-.5.3-.9999.4-1.5999.5v1.2h-.6v-1.2c-.8-.1-1.4-.3-1.8-.5-.7-.5-1-1.2-1-2.4h1.6c.1.5.1.8.2 1 .2.3.4999.4.9.5v-2.6h-.3Zm1 .4v2.4c.3 0 .5-.1.7-.2.3-.2.3999-.5.3999-1 0-.3-.0999-.6-.3999-.8-.1-.2-.3-.3-.7-.4Zm-.5-1.8v-2.1c-.3 0-.6.1-.8.3-.2.2-.3.4-.3.7 0 .3.1.6.4.8.2.1.4.2.7.3Zm8-1.7c-.2-.2-.5001-.4-.9001-.4-.5 0-.8999.2-1.0999.6-.1.2-.2.6-.2 1.1h-1.7001c0-.7.2001-1.3.4001-1.8.5-.9 1.3-1.3 2.4-1.3.9 0 1.6999.3 2.1999.8s.8001 1.2.8001 2c0 .6-.2001 1.2-.6 1.7-.3001.3-.7001.7-1.2001 1.1l-.6999.5c-.4.3-.7.5-.9.7-.2.1-.3001.3-.4001.5H28.5v1.5h-6c0-.6.2-1.2.4-1.7.1999-.6.8-1.2 1.7-1.8.8-.6 1.3-1 1.5-1.2.4-.4.5-.8.5-1.3.3-.4.2-.7 0-1Zm4.9 0c-.2.3-.3001.6-.3001 1H29.6c0-.4.1-.8.2-1.2.1-.3.4-.7.7-.9.2-.2.5-.4.8-.5.3-.1.7-.2 1.1-.2.7999 0 1.5.2 2 .7.5.4.7999 1 .7999 1.7 0 .5-.2.9-.5 1.3-.2.2-.3999.4-.5999.5.2 0 .4.1.7.4.4.4.7 1 .7 1.7s-.3001 1.4-.8001 2c-.5.6-1.2999.8-2.2999.8-1.2 0-2.1-.4-2.6-1.2-.3-.4-.4-1-.4-1.7h1.7c0 .3.1.6.2.9.2.4.6.6 1.1.6.2999 0 .6-.1.9-.3.3-.2.3999-.6.3999-1 0-.6-.1999-1-.6999-1.1-.3-.1-.7001-.2-1.3001-.2v-1.2c.6 0 .9001-.1 1.2001-.2.3999-.2.6-.5.6-1 0-.3-.1-.6-.3001-.8-.2-.2-.5-.3-.7999-.3-.4-.2-.7-.1-.9.2Zm5.3 5.2h1.8v1.8h-1.8v-1.8Zm5.8999 2c-.7 0-1.1999-.2-1.7999-.6-.5-.4-.8-1-.9-1.7h1.6999c0 .3.1001.5.3001.6.2.2.4.2.6999.2.6 0 1-.3 1.2001-.9.1-.3.2-.8.2-1.5l-.5.5c-.3.2-.7.3-1.2.3-.7001 0-1.3-.2-1.8-.7-.5-.5-.8-1.2-.8-2.1 0-.9.3-1.7.8-2.3.5-.6 1.1999-.9 2.0999-.9 1.3 0 2.2001.6 2.7001 1.8.2999.7.4 1.5.4 2.6s-.1001 1.9-.4 2.6c-.4 1.5-1.4001 2.1-2.7001 2.1Zm-.6999-7.4c-.3.3-.5.7-.5 1.3 0 .5.1.9.3 1.2.2.3.5.4 1 .4.2 0 .5-.1.7-.2.4-.2.6-.7.6-1.3 0-.5-.1-.9-.3-1.2-.2-.3-.5001-.4-.9-.4-.4 0-.6.1-.9.2Zm7.5 7.4c-.7 0-1.2001-.2-1.8001-.6-.5-.4-.7999-1-.8999-1.7h1.7c0 .3.0999.5.2999.6.2001.2.4001.2.7001.2.6 0 1-.3 1.2-.9.0999-.3.2-.8.2-1.5l-.5.5c-.3.2-.7.3-1.2.3-.7 0-1.3001-.2-1.8-.7-.5-.5-.8-1.2-.8-2.1 0-.9.3-1.7.8-2.3.4999-.6 1.2-.9 2.1-.9 1.3 0 2.2.6 2.7 1.8.3.7.4 1.5.4 2.6s-.1 1.9-.4 2.6c-.4001 1.5-1.3 2.1-2.7 2.1Zm-.6001-7.4c-.3.3-.5.7-.5 1.3 0 .5.1001.9.3001 1.2.2.3.5.4 1 .4.2 0 .5-.1.7-.2.4-.2.6-.7.6-1.3 0-.5-.1-.9-.3-1.2-.2-.3-.5-.4-.9001-.4-.4 0-.7.1-.9.2ZM13.8 112.5c-.5 1-.8 1.7-1 2.2-.2.7-.3 1.5-.3 2.4 0 .9.1 1.8.4 2.6.2.5.5 1.2.9 2.1h-.6c-.5-.7-.8-1.2-.9-1.4-.1-.2-.2-.5-.4-.8-.2-.5-.3-1-.4-1.5 0-.3-.1-.5-.1-.8 0-1 .1-1.8.4-2.5.2-.5.6-1.2 1.2-2.1h.8v-.2Zm1.2.2h4.9v.9H16v2.1h3.5v.8H16v3.2h-1v-7Zm6.7 1.9v3.4c0 .3 0 .5.1.6.2.3.4.5.9.5.6 0 1-.3 1.2-.8.1-.3.2-.7.2-1.2v-2.5h.9v5.2h-.9v-.8c-.1.2-.3.4-.4.5-.3.3-.7.4-1.2.4-.7 0-1.2-.2-1.5-.7-.1-.3-.2-.6-.2-1.1v-3.5h.9Zm4.6-1.9h.9v7.1h-.9v-7.1Zm2.2 0h.9v7.1h-.9v-7.1Zm7.1 6.4c.4 0 .7-.2 1-.5.3-.3.4-.8.4-1.5 0-.4-.1-.8-.2-1.1-.2-.6-.6-.9-1.2-.9s-1 .3-1.2.9c-.1.3-.2.7-.2 1.2 0 .4.1.7.2 1 .2.7.6.9 1.2.9Zm-2.2-4.5h.8v.7c.2-.2.4-.4.6-.5.3-.2.6-.3 1-.3.6 0 1.1.2 1.5.7.4.4.6 1.1.6 1.9 0 1.1-.3 1.9-.9 2.4-.4.3-.8.5-1.3.5-.4 0-.7-.1-1-.3-.2-.1-.3-.3-.5-.5v2.6h-.9v-7.2h.1Zm5.6 0h.8v.9c.1-.2.2-.4.5-.6.3-.3.6-.4.9-.4H41.5v.9h-.2c-.4 0-.8.1-1 .4-.2.3-.4.6-.4 1v3H39v-5.2Zm3.2 0h.9v5.1h-.9v-5.1Zm0-1.9h.9v1h-.9v-1Zm4.2 1.7c.6 0 1.1.1 1.4.4.4.3.6.8.7 1.5h-.8c-.1-.3-.2-.6-.4-.8-.2-.2-.5-.3-.9-.3-.6 0-.9.3-1.2.8-.2.4-.2.8-.2 1.3s.1 1 .3 1.3c.2.4.6.5 1 .5s.6-.1.9-.3c.2-.2.4-.5.4-.9h.8c-.1.7-.3 1.2-.7 1.5-.4.3-.9.5-1.5.5-.7 0-1.2-.2-1.6-.7-.4-.5-.6-1.1-.6-1.8 0-.9.2-1.6.7-2.1.5-.6 1-.9 1.7-.9Zm5.1.1c.4 0 .7.1 1.1.3.3.2.6.4.8.7.2.3.3.6.3.9.1.2.1.6.1 1.1H50c0 .5.1.9.4 1.3.2.3.6.5 1.1.5.5 0 .8-.1 1.1-.4.2-.2.3-.4.3-.6h.9c0 .2-.1.4-.2.6-.1.2-.3.4-.4.6-.3.3-.6.4-1 .5-.2.1-.4.1-.7.1-.6 0-1.2-.2-1.6-.7-.4-.5-.7-1.1-.7-2 0-.8.2-1.5.7-2 .3-.7.9-.9 1.6-.9Zm1.4 2.2c0-.4-.1-.7-.2-.9-.2-.4-.6-.6-1.2-.6-.4 0-.7.1-1 .4-.3.3-.4.7-.4 1.1h2.8Zm1.7 5c.5-1 .8-1.7 1-2.2.2-.7.3-1.5.3-2.4 0-.9-.1-1.8-.4-2.5-.2-.5-.5-1.2-.9-2.1h.5c.5.8.8 1.3.9 1.5.1.2.2.4.3.8.2.4.3.8.3 1.2.1.4.1.8.1 1.1 0 1-.2 1.8-.5 2.5-.2.5-.6 1.2-1.2 2.1h-.4Z"/><path stroke="#008060" d="M1 64.1997h67.8V128.3c0 2.7-2.2 4.9-4.9 4.9h-58c-2.7 0-4.9-2.2-4.9-4.9V64.1997Z"/><path fill="#fff" d="M86.1 39.5996H144c2.7 0 4.9 2.2 4.9 4.9V117.2c0 2.7-2.2 4.9-4.9 4.9H86.1c-2.7 0-4.9-2.2-4.9-4.9V44.4996c0-2.7 2.2-4.9 4.9-4.9Z"/><path fill="#8C9196" d="M95.5 49.9999c-.2.2-.2001.5-.2001.8H94c0-.3.1-.7.2-1 .1-.3.3-.5.5-.8.2-.2.3999-.3.5999-.4.2-.1.6001-.1.9001-.1.7 0 1.1999.2 1.5999.5.4.3.6001.8.6001 1.4 0 .4-.1.8-.4 1-.2.2-.3.3-.5.4.1 0 .3.1.5.3.4.3.5.8.5 1.3 0 .6-.2 1.1-.6 1.6-.4.4-1 .7-1.8.7-1 0-1.7-.3-2.1-1-.2-.3-.3-.8-.3-1.3H95c0 .3 0 .5.1.7.2.3.5.5.9.5.3 0 .5-.1.7-.3.2-.2.3-.5.3-.8 0-.5-.2-.8-.6-.9-.2-.1-.5-.1-1-.1v-1c.4 0 .7999 0 .8999-.1.3-.1.5-.4.5-.8 0-.3-.0999-.5-.1999-.7-.2-.2-.4-.3-.7-.3 0 .1-.3.2-.4.4Zm8.4 5.6h-1.4v-7.1h2.2l1.3 5.6 1.3-5.6h2.1v7.1H108V49.5999l-1.3 6h-1.4l-1.3-6v6h-.1Zm11.2-4.6c.4.6.7 1.2.7 2s-.2 1.4-.7 2c-.4.5-1.1.8-2 .8-.9 0-1.6-.3-2-.8-.4-.5-.7-1.2-.7-2s.2-1.4.7-2c.4-.6 1.1-.8 2-.8.8 0 1.5.3 2 .8Zm-2.1.4c-.4 0-.7.1-.9.4-.2.3-.3.7-.3 1.2s.1.9.3 1.2c.2.3.5.4.9.4s.7-.1.9-.4c.2-.3.3-.7.3-1.2s-.1-.9-.3-1.2c-.2-.3-.5-.4-.9-.4Zm6.2 0c-.5 0-.8.2-1 .6-.1.2-.1.5-.1.8v2.8h-1.4v-5.2h1.3v.7c.2-.3.3-.5.5-.6.3-.2.6-.3 1.1-.3.5 0 1 .1 1.3.4.3.3.5.8.5 1.4v3.5h-1.3v-3.2c0-.3 0-.5-.1-.6-.2-.2-.4-.3-.8-.3Zm5.9 3.2v1h-.6c-.6 0-1.1-.1-1.3-.3-.2-.2-.2-.4-.2-.7v-3.2h-.7v-1h.7v-1.5h1.4v1.5h.9v1h-.9v2.8c0 .2 0 .3.1.4.1.1.2.1.5.1h.1c-.1-.1 0-.1 0-.1Zm5.7-2.1v3.1h-1.4v-3.2c0-.3 0-.5-.1-.7-.1-.2-.4-.4-.7-.4-.4 0-.6.1-.8.4-.2.2-.3.6-.3 1v2.8h-1.4v-7.1h1.4v2.7c.2-.3.4-.5.7-.6.3-.1.5-.2.8-.2.3 0 .6.1.9.2.3.1.5.3.7.5l.3.6c-.2.1-.1.5-.1.9Zm4.9-1.9c.4.3.6.7.7 1.4H135c0-.2-.1-.3-.1-.4-.2-.2-.4-.3-.8-.3-.3 0-.5 0-.6.1-.1.1-.2.2-.2.3 0 .2.1.3.2.3.1.1.6.2 1.4.4.5.1 1 .3 1.2.6.3.3.4.6.4 1 0 .5-.2.9-.6 1.3-.4.3-1 .5-1.8.5s-1.4-.2-1.8-.5c-.4-.3-.6-.8-.6-1.3h1.4c0 .2.1.4.2.5.2.2.5.3.9.3.3 0 .5 0 .6-.1.2-.1.2-.2.2-.4s-.1-.3-.2-.4c-.1-.1-.6-.2-1.4-.4-.6-.1-1-.3-1.3-.6-.2-.2-.4-.5-.4-.9 0-.5.2-.9.6-1.2.4-.4.9-.5 1.6-.5.8-.1 1.4 0 1.8.3Z"/><path stroke="#8C9196" d="M86.1 39.5996H144c2.7 0 4.9 2.2 4.9 4.9V117.2c0 2.7-2.2 4.9-4.9 4.9H86.1c-2.7 0-4.9-2.2-4.9-4.9V44.4996c0-2.7 2.2-4.9 4.9-4.9Z"/><path fill="#fff" d="M81.2 64.1997H149V128.3c0 2.7-2.2 4.9-4.9 4.9h-58c-2.7 0-4.9-2.2-4.9-4.9V64.1997Z"/><path fill="#8C9196" d="M99.3 80.8c-.8-.2-1.3-.5-1.6-.9-.3-.4-.5-.9-.5-1.5 0-.4.1-.7.2-1 .1-.3.3-.6.5-.8.3-.3.6-.5 1-.6.2-.1.5-.1.9-.2V75h.6v.8c.7.1 1.2.2 1.5.5.7.4 1 1.1 1.1 2.1h-1.6c0-.4-.1-.6-.2-.8-.2-.3-.4-.4-.8-.5v2.3c1 .3 1.6.6 1.9.9.5.4.8 1 .8 1.8 0 1-.4 1.7-1.1 2.2-.5.3-1 .4-1.6.5V86h-.6v-1.2c-.8-.1-1.4-.3-1.8-.5-.7-.5-1-1.2-1-2.4h1.6c.1.5.1.8.2 1 .2.3.5.4.9.5v-2.6h-.4Zm1.1.3v2.4c.3 0 .5-.1.7-.2.3-.2.4-.5.4-1 0-.3-.1-.6-.4-.8-.1-.1-.4-.3-.7-.4Zm-.6-1.8v-2.1c-.3 0-.6.1-.8.3-.2.2-.3.4-.3.7 0 .3.1.6.4.8.2.1.4.2.7.3Zm9.2-.6c-.5.6-.8 1.3-1.1 2-.2.5-.5 1.2-.7 2-.2.8-.3 1.4-.3 1.9h-1.8c.1-1.6.6-3.2 1.5-4.9.6-1 1.2-1.8 1.6-2.2h-4.4V76h6.2v1.3c-.2.3-.6.7-1 1.4Zm6.1 5.9h-1.8v-6h-2.1v-1.2c.5 0 .9-.1 1.1-.1.3-.1.6-.2.8-.5.1-.2.3-.4.3-.6 0-.2.1-.3.1-.3h1.4v8.7h.2Zm2.9-1.8h1.8v1.8H118v-1.8Zm5.9 2c-.7 0-1.2-.2-1.8-.6-.5-.4-.8-1-.9-1.7h1.7c0 .3.1.5.3.6.2.2.4.2.7.2.6 0 1-.3 1.2-.9.1-.3.2-.8.2-1.5l-.5.5c-.3.2-.7.3-1.2.3-.7 0-1.3-.2-1.8-.7-.5-.5-.8-1.2-.8-2.1 0-.9.3-1.7.8-2.3.5-.6 1.2-.9 2.1-.9 1.3 0 2.2.6 2.7 1.8.3.7.4 1.5.4 2.6s-.1 1.9-.4 2.6c-.4 1.5-1.3 2.1-2.7 2.1Zm-.6-7.3c-.3.3-.5.7-.5 1.3 0 .5.1.9.3 1.2.2.3.5.4 1 .4.2 0 .5-.1.7-.2.4-.2.6-.7.6-1.3 0-.5-.1-.9-.3-1.2-.2-.3-.5-.4-.9-.4-.4-.1-.7 0-.9.2Zm9.7 1.2c-.5.6-.8 1.3-1.1 2-.2.5-.5 1.2-.7 2-.2.8-.3 1.4-.3 1.9h-1.8c.1-1.6.6-3.2 1.5-4.9.6-1 1.2-1.8 1.6-2.2h-4.4V76h6.2v1.3c-.2.3-.6.7-1 1.4Z"/><path fill="#8C9196" d="M96.7 81.5h37.7v.6H96.7v-.6ZM99.3 95.5998c-.8-.2-1.3-.5-1.6-.9-.3-.4-.5-.9-.5-1.5 0-.4.1-.7.2-1 .1-.3.3-.6.5-.8.3-.3.6-.5 1-.6.2-.1.5-.1.9-.2v-.8h.6v.8c.7.1 1.2.2 1.5.5.7.4 1 1.1 1.1 2.1h-1.6c0-.4-.1-.6-.2-.8-.2-.3-.4-.4-.8-.5v2.3c1 .3 1.6.6 1.9.9.5.4.8 1 .8 1.8 0 1-.4 1.7-1.1 2.2-.5.3-1 .4-1.6.5V100.8h-.6v-1.2002c-.8-.1-1.4-.3-1.8-.5-.7-.5-1-1.2-1-2.4h1.6c.1.5.1.8.2 1 .2.3.5.4.9.5v-2.6h-.4Zm1.1.3v2.4c.3 0 .5-.1.7-.2.3-.2.4-.5.4-1 0-.3-.1-.6-.4-.8-.1-.1-.4-.3-.7-.4Zm-.6-1.8v-2.1c-.3 0-.6.1-.8.3-.2.2-.3.4-.3.7 0 .3.1.6.4.8.2.1.4.2.7.3Zm7 1c-.2 0-.4 0-.5.1-.3.1-.5.3-.6.5l-1.5-.1.6-4.8h4.8v1.5H106l-.3 1.9c.3-.2.5-.3.6-.3.2-.1.6-.1.9-.1.7 0 1.4.2 1.9.7.5.5.8 1.2.8 2.1 0 .8-.3 1.5-.8 2.2-.5.6-1.3 1-2.3 1-.8 0-1.5-.2-2-.7-.5-.4-.8-1.1-.9-1.9h1.7c.1.4.2.7.4.9.2.2.5.3.8.3.4 0 .7-.1 1-.4.2-.3.3-.7.3-1.1 0-.4-.1-.8-.3-1.1-.2-.6-.5-.7-1-.7Zm6-2.7c-.2.3-.3.6-.3 1h-1.6c0-.4.1-.8.2-1.2.1-.3.4-.7.7-.9.2-.2.5-.4.8-.5.3-.1.7-.2 1.1-.2.8 0 1.5.2 2 .7.5.4.8 1 .8 1.7 0 .5-.2.9-.5 1.3-.2.2-.4.4-.6.5.2 0 .4.1.7.4.4.4.7 1 .7 1.7s-.3 1.4-.8 2c-.5.6-1.3.8-2.3.8-1.2 0-2.1-.4-2.6-1.2-.3-.4-.4-1-.4-1.7h1.7c0 .3.1.6.2.9.2.4.6.6 1.1.6.3 0 .6-.1.9-.3.3-.2.4-.6.4-1 0-.6-.2-1-.7-1.1-.3-.1-.7-.2-1.3-.2v-1.2c.6 0 .9-.1 1.2-.2.4-.2.6-.5.6-1 0-.3-.1-.6-.3-.8-.2-.2-.5-.3-.8-.3-.5-.2-.7-.1-.9.2Zm5.2 5.2h1.8v1.8H118v-1.8Zm6.1 2c-1.1 0-1.9-.4-2.3-1.2-.4-.8-.7-1.9-.7-3.3s.2-2.6.7-3.3c.4-.8 1.2-1.2 2.3-1.2 1.1 0 1.9.4 2.3 1.2.4.8.7 1.9.7 3.3s-.2 2.6-.7 3.3c-.4.8-1.2 1.2-2.3 1.2Zm1-2.2c.2-.5.2-1.3.2-2.3 0-1.1-.1-1.8-.2-2.3-.2-.5-.5-.8-1-.8s-.8.3-1 .8c-.2.5-.2 1.3-.2 2.3 0 1 .1 1.8.2 2.3.2.5.5.8 1 .8s.8-.3 1-.8Zm5.9 2.2c-1.1 0-1.9-.4-2.3-1.2-.4-.8-.7-1.9-.7-3.3s.2-2.6.7-3.3c.4-.8 1.2-1.2 2.3-1.2 1.1 0 1.9.4 2.3 1.2.4.8.7 1.9.7 3.3s-.2 2.6-.7 3.3c-.5.8-1.2 1.2-2.3 1.2Zm1-2.2c.2-.5.2-1.3.2-2.3 0-1.1-.1-1.8-.2-2.3-.2-.5-.5-.8-1-.8s-.8.3-1 .8c-.2.5-.2 1.3-.2 2.3 0 1 .1 1.8.2 2.3.2.5.5.8 1 .8s.8-.3 1-.8ZM98.4 113.8c-.5 1-.8 1.7-1 2.2-.2.7-.3 1.5-.3 2.4 0 .9.1 1.8.4 2.6.2.5.5 1.2.9 2.1h-.6c-.5-.7-.8-1.2-.9-1.4-.1-.2-.2-.5-.4-.8-.2-.5-.3-1-.4-1.5 0-.3-.1-.5-.1-.8 0-1 .1-1.8.4-2.5.2-.5.6-1.2 1.2-2.1h.8v-.2Zm1.3 2.3v-.7c.6-.1 1.1-.2 1.3-.3.2-.1.4-.5.6-1h.7v6.9h-.9v-4.9h-1.7Zm5.8 3.1c.1.5.3.8.7 1 .2.1.4.1.7.1.5 0 .9-.2 1.1-.5.2-.3.4-.7.4-1.1 0-.5-.1-.9-.4-1.1-.3-.3-.6-.4-1.1-.4-.3 0-.6.1-.8.2-.2.1-.4.3-.5.5h-.8l.5-3.7h3.6v.8H106l-.3 1.9c.2-.1.3-.2.5-.3.3-.1.6-.2.9-.2.6 0 1.2.2 1.6.6.4.4.7.9.7 1.6 0 .7-.2 1.2-.6 1.7-.4.5-1 .7-1.9.7-.6 0-1.1-.2-1.5-.5-.4-.3-.7-.8-.7-1.5h.8v.2Zm11-1.6c.5 0 .9.2 1.2.5.3.3.5.7.5 1.2s-.2.9-.5 1.2c-.3.3-.7.5-1.2.5s-.9-.2-1.2-.5c-.3-.3-.5-.7-.5-1.2s.2-.9.5-1.2c.3-.3.7-.5 1.2-.5Zm-.7-3.5h.5l-3.9 7.1h-.5l3.9-7.1Zm-4 2.8c.3 0 .5-.1.7-.3.2-.2.3-.4.3-.7 0-.3-.1-.5-.3-.7-.2-.2-.4-.3-.7-.3-.3 0-.5.1-.7.3-.2.2-.3.4-.3.7 0 .3.1.5.3.7.2.2.4.3.7.3Zm0-2.6c.5 0 .9.2 1.2.5.3.3.5.7.5 1.2s-.2.9-.5 1.2c-.3.3-.7.5-1.2.5s-.9-.2-1.2-.5c-.3-.3-.5-.7-.5-1.2s.2-.9.5-1.2c.3-.4.7-.5 1.2-.5Zm4.7 6c.3 0 .5-.1.7-.3.2-.2.3-.4.3-.7 0-.3-.1-.5-.3-.7-.2-.2-.4-.3-.7-.3-.3 0-.5.1-.7.3-.2.2-.3.4-.3.7 0 .3.1.5.3.7.2.2.4.3.7.3Zm7.5.1c.6 0 1-.2 1.2-.7.2-.4.3-.9.3-1.5 0-.5-.1-.9-.2-1.2-.2-.5-.7-.7-1.3-.7-.5 0-.9.2-1.2.6-.2.4-.4.9-.4 1.5 0 .5.1 1 .4 1.4.3.4.7.6 1.2.6Zm0-4.7c.7 0 1.2.2 1.7.7.5.4.7 1.1.7 2 0 .8-.2 1.5-.6 2.1-.4.5-1 .8-1.9.8-.7 0-1.3-.2-1.7-.7-.4-.5-.6-1.1-.6-1.9 0-.9.2-1.6.7-2.1.4-.7 1-.9 1.7-.9Zm3.6-.7c0-.4.1-.6.2-.8.2-.3.6-.4 1.2-.4h.4v.8H129.1c-.3 0-.4.1-.5.2-.1.1-.1.5-.1 1h.9v.7h-.9v4.5h-.9v-4.5h-.7v-.7h.7v-.8Zm2.6 0c0-.4.1-.6.2-.8.2-.3.6-.4 1.2-.4h.4v.8H131.7c-.3 0-.4.1-.5.2-.1.1-.1.5-.1 1h.9v.7h-.9v4.5h-.9v-4.5h-.7v-.7h.7v-.8Zm2.2 8c.5-1 .8-1.7 1-2.2.2-.7.3-1.5.3-2.4 0-.9-.1-1.8-.4-2.5-.2-.5-.5-1.2-.9-2.1h.6c.5.8.8 1.3.9 1.5.1.2.2.4.3.8.2.4.3.8.3 1.2.1.4.1.8.1 1.1 0 1-.2 1.8-.5 2.5-.2.5-.6 1.2-1.2 2.1h-.5Z"/><path stroke="#8C9196" d="M81.2 64.1997H149V128.3c0 2.7-2.2 4.9-4.9 4.9h-58c-2.7 0-4.9-2.2-4.9-4.9V64.1997Z"/><path fill="#fff" d="M166.2 39.5996h57.9c2.7 0 4.9 2.2 4.9 4.9V117.2c0 2.7-2.2 4.9-4.9 4.9h-57.9c-2.7 0-4.9-2.2-4.9-4.9V44.4996c0-2.7 2.2-4.9 4.9-4.9Z"/><path fill="#8C9196" d="M176.7 51.0999c.6 0 1.1.2 1.5.6.4.4.6 1 .6 1.6 0 .7-.2 1.2-.6 1.7-.4.5-1 .7-1.8.7-.9 0-1.5-.4-1.9-1.1-.3-.6-.5-1.3-.5-2.2 0-.5 0-1 .1-1.3.1-.6.2-1.1.5-1.5.2-.3.5-.6.8-.8.3-.2.7-.3 1.2-.3.6 0 1.2.2 1.6.5.4.3.6.8.7 1.3h-1.4c0-.1 0-.2-.1-.4s-.4-.3-.7-.3c-.4 0-.8.3-1 .8-.1.3-.2.7-.2 1.2.2-.2.4-.4.6-.4.1-.1.3-.1.6-.1Zm-.9 1.3c-.3.2-.4.5-.4 1 0 .4.1.7.3.9.2.2.5.4.8.4.3 0 .5-.1.7-.3.2-.2.3-.5.3-.9s-.1-.7-.3-.9c-.2-.2-.4-.3-.7-.3-.3-.1-.5 0-.7.1Zm8.3 3.2h-1.4v-7.1h2.2l1.2 5.6 1.3-5.6h2.1v7.1h-1.4V49.5999l-1.3 6h-1.4l-1.3-6v6Zm11.1-4.6c.4.6.7 1.2.7 2s-.2 1.4-.7 2c-.4.5-1.1.8-2 .8-.9 0-1.6-.3-2-.8-.4-.5-.7-1.2-.7-2s.2-1.4.7-2c.4-.6 1.1-.8 2-.8.9 0 1.5.3 2 .8Zm-2 .4c-.4 0-.7.1-.9.4-.2.3-.3.7-.3 1.2s.1.9.3 1.2c.2.3.5.4.9.4s.7-.1.9-.4c.2-.3.3-.7.3-1.2s-.1-.9-.3-1.2c-.2-.3-.5-.4-.9-.4Zm6.1 0c-.5 0-.8.2-1 .6-.1.2-.1.5-.1.8v2.8h-1.4v-5.2h1.3v.7c.2-.3.3-.5.5-.6.3-.2.6-.3 1.1-.3.5 0 1 .1 1.3.4.3.3.5.8.5 1.4v3.5h-1.4v-3.2c0-.3 0-.5-.1-.6 0-.2-.3-.3-.7-.3Zm6 3.2v1h-.6c-.6 0-1.1-.1-1.3-.3-.2-.2-.2-.4-.2-.7v-3.2h-.7v-1h.7v-1.5h1.4v1.5h.9v1h-.9v2.8c0 .2 0 .3.1.4.1.1.2.1.5.1h.1c-.1-.1-.1-.1 0-.1Zm5.6-2.1v3.1h-1.4v-3.2c0-.3 0-.5-.1-.7-.1-.2-.4-.4-.7-.4-.4 0-.6.1-.8.4-.2.2-.3.6-.3 1v2.8h-1.4v-7.1h1.4v2.7c.2-.3.4-.5.7-.6.3-.1.5-.2.8-.2.3 0 .6.1.9.2.3.1.5.3.7.5l.3.6c-.1.1-.1.5-.1.9Zm4.9-1.9c.4.3.6.7.7 1.4h-1.4c0-.2-.1-.3-.1-.4-.2-.2-.4-.3-.8-.3-.3 0-.5 0-.6.1-.1.1-.2.2-.2.3 0 .2.1.3.2.3.1.1.6.2 1.4.4.5.1 1 .3 1.2.6.3.3.4.6.4 1 0 .5-.2.9-.6 1.3-.4.3-1 .5-1.8.5s-1.4-.2-1.8-.5c-.4-.3-.6-.8-.6-1.3h1.4c0 .2.1.4.2.5.2.2.5.3.9.3.3 0 .5 0 .6-.1.2-.1.2-.2.2-.4s-.1-.3-.2-.4c-.1-.1-.6-.2-1.4-.4-.6-.1-1-.3-1.3-.6-.2-.2-.4-.5-.4-.9 0-.5.2-.9.6-1.2.4-.4.9-.5 1.6-.5.9-.1 1.4 0 1.8.3Z"/><path stroke="#8C9196" d="M166.2 39.5996h57.9c2.7 0 4.9 2.2 4.9 4.9V117.2c0 2.7-2.2 4.9-4.9 4.9h-57.9c-2.7 0-4.9-2.2-4.9-4.9V44.4996c0-2.7 2.2-4.9 4.9-4.9Z"/><path fill="#fff" d="M161.3 64.1997h67.8V128.3c0 2.7-2.2 4.9-4.9 4.9h-57.9c-2.7 0-4.9-2.2-4.9-4.9V64.1997h-.1Z"/><path fill="#8C9196" d="M175.8 80.8c-.8-.2-1.3-.5-1.6-.9-.3-.4-.5-.9-.5-1.5 0-.4.1-.7.2-1 .1-.3.3-.6.5-.8.3-.3.6-.5 1-.6.2-.1.5-.1.9-.2V75h.6v.8c.7.1 1.2.2 1.5.5.7.4 1 1.1 1.1 2.1h-1.6c0-.4-.1-.6-.2-.8-.2-.3-.4-.4-.8-.5v2.3c1 .3 1.6.6 1.9.9.5.4.8 1 .8 1.8 0 1-.4 1.7-1.1 2.2-.5.3-1 .4-1.6.5V86h-.6v-1.2c-.8-.1-1.4-.3-1.8-.5-.7-.5-1-1.2-1-2.4h1.6c.1.5.1.8.2 1 .2.3.5.4.9.5v-2.6h-.4Zm1.1.3v2.4c.3 0 .5-.1.7-.2.3-.2.4-.5.4-1 0-.3-.1-.6-.4-.8-.1-.1-.4-.3-.7-.4Zm-.6-1.8v-2.1c-.3 0-.6.1-.8.3-.2.2-.3.4-.3.7 0 .3.1.6.4.8.2.1.4.2.7.3Zm8.4 5.3h-1.8v-6h-2.1v-1.2c.5 0 .9-.1 1.1-.1.3-.1.6-.2.8-.5.1-.2.3-.4.3-.6 0-.2.1-.3.1-.3h1.4v8.7h.2Zm8.7-3.2v1.3h-1v1.9h-1.7v-1.9h-3.5v-1.5l3.2-5.3h1.9v5.5h1.1Zm-4.9 0h2.2v-3.8l-2.2 3.8Zm7.6-3.8c-.2.3-.3.6-.3 1h-1.6c0-.4.1-.8.2-1.2.1-.3.4-.7.7-.9.2-.2.5-.4.8-.5.3-.1.7-.2 1.1-.2.8 0 1.5.2 2 .7.5.4.8 1 .8 1.7 0 .5-.2.9-.5 1.3-.2.2-.4.4-.6.5.2 0 .4.1.7.4.4.4.7 1 .7 1.7s-.3 1.4-.8 2c-.5.6-1.3.8-2.3.8-1.2 0-2.1-.4-2.6-1.2-.3-.4-.4-1-.4-1.7h1.7c0 .3.1.6.2.9.2.4.6.6 1.1.6.3 0 .6-.1.9-.3.3-.2.4-.6.4-1 0-.6-.2-1-.7-1.1-.3-.1-.7-.2-1.3-.2v-1.2c.6 0 .9-.1 1.2-.2.4-.2.6-.5.6-1 0-.3-.1-.6-.3-.8-.2-.2-.5-.3-.8-.3-.4-.2-.7-.1-.9.2Zm5.3 5.2h1.8v1.8h-1.8v-1.8Zm5.9 2c-.7 0-1.2-.2-1.8-.6-.5-.4-.8-1-.9-1.7h1.7c0 .3.1.5.3.6.2.2.4.2.7.2.6 0 1-.3 1.2-.9.1-.3.2-.8.2-1.5l-.5.5c-.3.2-.7.3-1.2.3-.7 0-1.3-.2-1.8-.7-.5-.5-.8-1.2-.8-2.1 0-.9.3-1.7.8-2.3.5-.6 1.2-.9 2.1-.9 1.3 0 2.2.6 2.7 1.8.3.7.4 1.5.4 2.6s-.1 1.9-.4 2.6c-.4 1.5-1.3 2.1-2.7 2.1Zm-.6-7.3c-.3.3-.5.7-.5 1.3 0 .5.1.9.3 1.2.2.3.5.4 1 .4.2 0 .5-.1.7-.2.4-.2.6-.7.6-1.3 0-.5-.1-.9-.3-1.2-.2-.3-.5-.4-.9-.4-.5-.1-.7 0-.9.2Zm10.7 3.9v1.3h-1v1.9h-1.7v-1.9h-3.5v-1.5l3.2-5.3h1.9v5.5h1.1Zm-4.9 0h2.2v-3.8l-2.2 3.8Z"/><path fill="#8C9196" d="M173.2 81.5h44.6v.6h-44.6v-.6ZM179.3 95.5998c-.8-.2-1.3-.5-1.6-.9-.3-.4-.5-.9-.5-1.5 0-.4.1-.7.2-1 .1-.3.3-.6.5-.8.3-.3.6-.5 1-.6.2-.1.5-.1.9-.2v-.8h.6v.8c.7.1 1.2.2 1.5.5.7.4 1 1.1 1.1 2.1h-1.6c0-.4-.1-.6-.2-.8-.2-.3-.4-.4-.8-.5v2.3c1 .3 1.6.6 1.9.9.5.4.8 1 .8 1.8 0 1-.4 1.7-1.1 2.2-.5.3-1 .4-1.6.5V100.8h-.6v-1.2002c-.8-.1-1.4-.3-1.8-.5-.7-.5-1-1.2-1-2.4h1.6c.1.5.1.8.2 1 .2.3.5.4.9.5v-2.6h-.4Zm1 .3v2.4c.3 0 .5-.1.7-.2.3-.2.4-.5.4-1 0-.3-.1-.6-.4-.8-.1-.1-.3-.3-.7-.4Zm-.5-1.8v-2.1c-.3 0-.6.1-.8.3-.2.2-.3.4-.3.7 0 .3.1.6.4.8.2.1.4.2.7.3Zm6.9 5.5c-.7 0-1.2-.2-1.8-.6-.5-.4-.8-1-.9-1.7h1.7c0 .3.1.5.3.6.2.2.4.2.7.2.6 0 1-.3 1.2-.9.1-.3.2-.8.2-1.5l-.5.5c-.3.2-.7.3-1.2.3-.7 0-1.3-.2-1.8-.7-.5-.5-.8-1.2-.8-2.1 0-.9.3-1.7.8-2.3.5-.6 1.2-.9 2.1-.9 1.3 0 2.2.6 2.7 1.8.3.7.4 1.5.4 2.6s-.1 1.9-.4 2.6c-.4 1.5-1.3 2.1-2.7 2.1Zm-.6-7.3c-.3.3-.5.7-.5 1.3 0 .5.1.9.3 1.2.2.3.5.4 1 .4.2 0 .5-.1.7-.2.4-.2.6-.7.6-1.3 0-.5-.1-.9-.3-1.2-.2-.3-.5-.4-.9-.4-.4-.1-.7 0-.9.2Zm7.5 7.3c-.7 0-1.2-.2-1.8-.6-.5-.4-.8-1-.9-1.7h1.7c0 .3.1.5.3.6.2.2.4.2.7.2.6 0 1-.3 1.2-.9.1-.3.2-.8.2-1.5l-.5.5c-.3.2-.7.3-1.2.3-.7 0-1.3-.2-1.8-.7-.5-.5-.8-1.2-.8-2.1 0-.9.3-1.7.8-2.3.5-.6 1.2-.9 2.1-.9 1.3 0 2.2.6 2.7 1.8.3.7.4 1.5.4 2.6s-.1 1.9-.4 2.6c-.4 1.5-1.4 2.1-2.7 2.1Zm-.6-7.3c-.3.3-.5.7-.5 1.3 0 .5.1.9.3 1.2.2.3.5.4 1 .4.2 0 .5-.1.7-.2.4-.2.6-.7.6-1.3 0-.5-.1-.9-.3-1.2-.2-.3-.5-.4-.9-.4-.5-.1-.7 0-.9.2Zm5 5.3h1.8v1.8H198v-1.8Zm5.9 2c-.7 0-1.2-.2-1.8-.6-.5-.4-.8-1-.9-1.7h1.7c0 .3.1.5.3.6.2.2.4.2.7.2.6 0 1-.3 1.2-.9.1-.3.2-.8.2-1.5l-.5.5c-.3.2-.7.3-1.2.3-.7 0-1.3-.2-1.8-.7-.5-.5-.8-1.2-.8-2.1 0-.9.3-1.7.8-2.3.5-.6 1.2-.9 2.1-.9 1.3 0 2.2.6 2.7 1.8.3.7.4 1.5.4 2.6s-.1 1.9-.4 2.6c-.4 1.5-1.4 2.1-2.7 2.1Zm-.6-7.3c-.3.3-.5.7-.5 1.3 0 .5.1.9.3 1.2.2.3.5.4 1 .4.2 0 .5-.1.7-.2.4-.2.6-.7.6-1.3 0-.5-.1-.9-.3-1.2-.2-.3-.5-.4-.9-.4-.5-.1-.7 0-.9.2Zm7.4 7.3c-.7 0-1.2-.2-1.8-.6-.5-.4-.8-1-.9-1.7h1.7c0 .3.1.5.3.6.2.2.4.2.7.2.6 0 1-.3 1.2-.9.1-.3.2-.8.2-1.5l-.5.5c-.3.2-.7.3-1.2.3-.7 0-1.3-.2-1.8-.7-.5-.5-.8-1.2-.8-2.1 0-.9.3-1.7.8-2.3.5-.6 1.2-.9 2.1-.9 1.3 0 2.2.6 2.7 1.8.3.7.4 1.5.4 2.6s-.1 1.9-.4 2.6c-.4 1.5-1.3 2.1-2.7 2.1Zm-.6-7.3c-.3.3-.5.7-.5 1.3 0 .5.1.9.3 1.2.2.3.5.4 1 .4.2 0 .5-.1.7-.2.4-.2.6-.7.6-1.3 0-.5-.1-.9-.3-1.2-.2-.3-.5-.4-.9-.4-.4-.1-.7 0-.9.2ZM174.1 113.8c-.5 1-.8 1.7-1 2.2-.2.7-.3 1.5-.3 2.4 0 .9.1 1.8.4 2.6.2.5.5 1.2.9 2.1h-.6c-.5-.7-.8-1.2-.9-1.4-.1-.2-.2-.5-.4-.8-.2-.5-.3-1-.4-1.5 0-.3-.1-.5-.1-.8 0-1 .1-1.8.4-2.5.2-.5.6-1.2 1.2-2.1h.8v-.2Zm1.3 2.3v-.7c.6-.1 1.1-.2 1.3-.3.2-.1.4-.5.6-1h.7v6.9h-.9v-4.9h-1.7Zm9.7-1.9v.8c-.2.2-.5.6-.9 1.1-.4.5-.7 1.1-1 1.7-.3.6-.5 1.1-.6 1.6-.1.3-.2.8-.4 1.5h-1c.2-1.3.7-2.6 1.4-3.9.4-.8.9-1.4 1.4-2h-3.8v-.9h4.9v.1Zm1.2 5.7h1v1h-1v-1Zm3.1-.7c.1.5.3.8.7 1 .2.1.4.1.7.1.5 0 .9-.2 1.1-.5.2-.3.4-.7.4-1.1 0-.5-.1-.9-.4-1.1-.3-.3-.6-.4-1.1-.4-.3 0-.6.1-.8.2-.2.1-.4.3-.5.5h-.8l.5-3.7h3.6v.8h-2.9l-.3 1.9c.2-.1.3-.2.5-.3.3-.1.6-.2.9-.2.6 0 1.2.2 1.6.6.4.4.7.9.7 1.6 0 .7-.2 1.2-.6 1.7-.4.5-1 .7-1.9.7-.6 0-1.1-.2-1.5-.5-.4-.3-.7-.8-.7-1.5h.8v.2Zm11-1.6c.5 0 .9.2 1.2.5.3.3.5.7.5 1.2s-.2.9-.5 1.2c-.3.3-.7.5-1.2.5s-.9-.2-1.2-.5c-.3-.3-.5-.7-.5-1.2s.2-.9.5-1.2c.3-.3.7-.5 1.2-.5Zm-.7-3.5h.5l-3.9 7.1h-.5l3.9-7.1Zm-4.1 2.8c.3 0 .5-.1.7-.3.2-.2.3-.4.3-.7 0-.3-.1-.5-.3-.7-.2-.2-.4-.3-.7-.3-.3 0-.5.1-.7.3-.2.2-.3.4-.3.7 0 .3.1.5.3.7.2.2.5.3.7.3Zm0-2.6c.5 0 .9.2 1.2.5.3.3.5.7.5 1.2s-.2.9-.5 1.2c-.3.3-.7.5-1.2.5s-.9-.2-1.2-.5c-.3-.3-.5-.7-.5-1.2s.2-.9.5-1.2c.4-.4.8-.5 1.2-.5Zm4.8 6c.3 0 .5-.1.7-.3.2-.2.3-.4.3-.7 0-.3-.1-.5-.3-.7-.2-.2-.4-.3-.7-.3-.3 0-.5.1-.7.3-.2.2-.3.4-.3.7 0 .3.1.5.3.7.2.2.4.3.7.3Zm7.5.1c.6 0 1-.2 1.2-.7.2-.4.3-.9.3-1.5 0-.5-.1-.9-.2-1.2-.2-.5-.7-.7-1.3-.7-.5 0-.9.2-1.2.6-.2.4-.4.9-.4 1.5 0 .5.1 1 .4 1.4.3.4.6.6 1.2.6Zm0-4.7c.7 0 1.2.2 1.7.7.5.4.7 1.1.7 2 0 .8-.2 1.5-.6 2.1-.4.5-1 .8-1.9.8-.7 0-1.3-.2-1.7-.7-.4-.5-.6-1.1-.6-1.9 0-.9.2-1.6.7-2.1.4-.7.9-.9 1.7-.9Zm3.6-.7c0-.4.1-.6.2-.8.2-.3.6-.4 1.2-.4h.4v.8H213c-.3 0-.4.1-.5.2-.1.1-.1.5-.1 1h.9v.7h-.9v4.5h-.9v-4.5h-.7v-.7h.7v-.8Zm2.6 0c0-.4.1-.6.2-.8.2-.3.6-.4 1.2-.4h.4v.8H215.6c-.3 0-.4.1-.5.2-.1.1-.1.5-.1 1h.9v.7h-.9v4.5h-.9v-4.5h-.7v-.7h.7v-.8Zm2.2 8c.5-1 .8-1.7 1-2.2.2-.7.3-1.5.3-2.4 0-.9-.1-1.8-.4-2.5-.2-.5-.5-1.2-.9-2.1h.6c.5.8.8 1.3.9 1.5.1.2.2.4.3.8.2.4.3.8.3 1.2.1.4.1.8.1 1.1 0 1-.2 1.8-.5 2.5-.2.5-.6 1.2-1.2 2.1h-.5Z"/><path stroke="#8C9196" d="M161.3 64.1997h67.8V128.3c0 2.7-2.2 4.9-4.9 4.9h-57.9c-2.7 0-4.9-2.2-4.9-4.9V64.1997h-.1Z"/><path fill="#202223" d="M2.1 8.9h1v-3h2.1c1.6 0 2.7-1.1 2.7-2.7S6.8.5 5.2.5H2v8.4h.1ZM5 1.4c1.2 0 1.9.7 1.9 1.8S6.2 5 5 5H3.2V1.5H5v-.1ZM11.7 9c.9 0 1.6-.4 1.9-1v.9h1V2.6h-1v3.7c0 1.1-.6 1.8-1.7 1.8-1 0-1.4-.5-1.4-1.7V2.6h-1v4.1c0 1.4.7 2.3 2.2 2.3Zm4.8-.1h1V5c0-.9.7-1.5 1.7-1.5.2 0 .4 0 .6.1v-1h-.5c-.8 0-1.4.4-1.7 1h-.1v-.9h-1v6.2Zm6.9.1c1.5 0 2.3-.8 2.6-1.9V7h-1c-.2.7-.8 1.1-1.6 1.1-1.1 0-1.8-.9-1.8-2.4 0-1.4.7-2.3 1.8-2.3.9 0 1.5.5 1.6 1.1h1c-.2-1.1-1.1-2-2.6-2-1.8 0-2.9 1.3-2.9 3.2.1 2 1.2 3.3 2.9 3.3Zm4.2-.1h1V5.2c0-1.1.6-1.8 1.6-1.8s1.5.5 1.5 1.7v3.8h1V4.8c0-1.5-.8-2.3-2.2-2.3-.9 0-1.5.4-1.8 1.1h-.1V.200005h-1V8.9Zm8.7.1c.8 0 1.5-.4 1.9-1h.1v.9h1V4.6c0-1.3-.9-2.1-2.4-2.1-1.3 0-2.3.7-2.5 1.6h1c.2-.5.7-.8 1.4-.8.9 0 1.4.4 1.4 1.2v.6l-1.8.1c-1.5.1-2.3.7-2.3 1.8.1 1.3 1 2 2.2 2Zm-1.1-1.9c0-.6.4-1 1.4-1l1.7-.1v.6c0 .9-.8 1.6-1.8 1.6-.8-.1-1.3-.5-1.3-1.1ZM43.3 9c1.4 0 2.5-.8 2.5-1.9 0-.9-.6-1.4-1.8-1.7l-1-.2c-.7-.2-1.1-.4-1.1-.9 0-.6.5-.9 1.3-.9s1.2.3 1.4.8h1c-.1-1-1.1-1.7-2.4-1.7-1.3 0-2.3.8-2.3 1.8 0 .9.5 1.4 1.7 1.7l1 .2c.8.2 1.1.5 1.1.9 0 .6-.6 1-1.4 1-.8 0-1.3-.3-1.5-.9h-1c.1 1.1 1.1 1.8 2.5 1.8Zm6.6 0c1.5 0 2.4-.8 2.6-1.7h-1v.1c-.2.4-.7.8-1.5.8-1.1 0-1.8-.8-1.9-2.1h4.5v-.4c0-1.9-1-3.1-2.7-3.1-1.7 0-2.8 1.3-2.8 3.3-.1 1.8 1 3.1 2.8 3.1Zm-.1-5.6c.9 0 1.6.6 1.7 1.8H48c.2-1.2.9-1.8 1.8-1.8ZM60.1 9C61.9 9 63 7.8 63 5.8s-1.1-3.2-2.9-3.2c-1.8 0-2.9 1.2-2.9 3.2 0 1.9 1.1 3.2 2.9 3.2Zm0-.9c-1.2 0-1.9-.9-1.9-2.3 0-1.5.7-2.3 1.9-2.3s1.9.9 1.9 2.3c-.1 1.4-.7 2.3-1.9 2.3Zm4.4 2.9h1V7.9h.1c.3.7 1.1 1.1 2 1.1 1.6 0 2.6-1.3 2.6-3.2 0-2-1-3.2-2.6-3.2-.9 0-1.6.4-2 1.1h-.1v-1h-1V11Zm2.9-2.9c-1.1 0-1.8-.9-1.8-2.3s.7-2.3 1.8-2.3 1.8.9 1.8 2.3-.7 2.3-1.8 2.3Zm6.6.8c.2 0 .4 0 .6-.1v-.9h-.5c-.7 0-.9-.3-.9-1V3.4h1.4v-.8h-1.4V1h-1v1.6h-1v.8h1v3.8c0 1.2.5 1.7 1.8 1.7Zm2.7-7.5c.4 0 .7-.3.7-.699995C77.4.300005 77.1 0 76.7 0c-.4 0-.7.300005-.7.700005C76 1.1 76.3 1.4 76.7 1.4Zm-.6 7.5h1V2.6h-1v6.3Zm5.5.1c1.8 0 2.9-1.2 2.9-3.2s-1.1-3.2-2.9-3.2c-1.8 0-2.9 1.2-2.9 3.2.1 1.9 1.2 3.2 2.9 3.2Zm0-.9c-1.2 0-1.9-.9-1.9-2.3 0-1.5.7-2.3 1.9-2.3s1.9.9 1.9 2.3-.7 2.3-1.9 2.3Zm4.5.8h1V5.2c0-1.1.6-1.8 1.6-1.8s1.5.5 1.5 1.7v3.8h1V4.8c0-1.5-.8-2.3-2.2-2.3-.9 0-1.5.4-1.8 1.1h-.1v-.9h-1v6.2Zm9.1.1c1.4 0 2.5-.8 2.5-1.9 0-.9-.6-1.4-1.8-1.7l-1-.2c-.7-.2-1.1-.4-1.1-.9 0-.6.5-.9 1.3-.9s1.2.3 1.4.8h1c-.1-1-1.1-1.7-2.4-1.7-1.3 0-2.3.8-2.3 1.8 0 .9.5 1.4 1.7 1.7l1 .2c.8.2 1.1.5 1.1.9 0 .6-.6 1-1.4 1-.8 0-1.3-.3-1.5-.9h-1c.2 1.1 1.1 1.8 2.5 1.8Z"/><path fill="#686F6C" d="M3.57658 155.291c1.54595 0 2.51217-.774 2.51217-2.064 0-.968-.57973-1.549-1.93244-1.807l-.70856-.129c-.83739-.194-1.22387-.516-1.22387-.968 0-.645.57973-.968 1.3527-.968.77298 0 1.28829.387 1.41712.903v.065h.96622v-.065c-.06441-1.032-.96622-1.806-2.38334-1.806-1.41712 0-2.38334.774-2.38334 1.935 0 .968.57973 1.614 1.93244 1.872l.70856.129c.9018.193 1.22388.516 1.22388 1.032 0 .581-.57973 1.033-1.41712 1.033-.90181 0-1.48154-.388-1.54595-.968v-.065H1v.065c.12883 1.032 1.09505 1.806 2.57658 1.806Zm5.34641-.064c.70856 0 1.22391-.323 1.48151-.839h.0644v.774h.9663v-4.968h-.9663v2.904c0 .774-.4509 1.29-1.22384 1.29-.70856 0-1.03063-.387-1.03063-1.226v-2.968h-.96622v3.226c0 1.097.57973 1.807 1.67478 1.807Zm6.57031-.065c1.2238 0 2.0612-.968 2.0612-2.581 0-1.548-.7729-2.581-2.0612-2.581-.7086 0-1.2883.323-1.546.904v-2.71h-.9662v6.904h.9662v-.775h.0644c.2577.517.8374.839 1.4816.839Zm-.2577-.839c-.8374 0-1.3527-.645-1.3527-1.742 0-1.032.5153-1.742 1.3527-1.742s1.3527.645 1.3527 1.742-.5153 1.742-1.3527 1.742Zm5.282.904c1.1595 0 2.0613-.645 2.0613-1.549 0-.71-.4509-1.097-1.4171-1.355l-.773-.193c-.5798-.129-.773-.323-.773-.646 0-.387.3865-.645.9018-.645.5797 0 .9018.258 1.0306.581h.9663c-.0645-.839-.8374-1.355-1.9325-1.355-1.095 0-1.9324.645-1.9324 1.484 0 .71.4509 1.161 1.3527 1.355l.773.194c.5797.129.8374.322.8374.645 0 .387-.4509.71-1.0307.71-.5797 0-.9662-.259-1.095-.646h-.9662c.0644.839.8373 1.42 1.9968 1.42Zm5.3464 0c1.2239 0 1.9324-.645 2.1257-1.613v-.065h-.9662c-.1289.516-.5153.839-1.1595.839-.8374 0-1.3527-.645-1.3527-1.742s.5153-1.742 1.3527-1.742c.6442 0 1.0306.387 1.1595.838h.9662c-.1288-.967-.9018-1.677-2.1257-1.677-1.4171 0-2.3189.968-2.3189 2.581 0 1.548.9018 2.581 2.3189 2.581Zm3.2207-.129h.9663v-2.968c0-.71.5153-1.162 1.2882-1.162.1933 0 .3865 0 .5154.065v-.904c-.1289 0-.2577-.064-.4509-.064-.6442 0-1.0951.322-1.2883.839h-.0644v-.775h-.9663v4.969Zm4.2514-5.807c.3221 0 .6441-.259.6441-.646 0-.322-.2576-.645-.6441-.645-.3221 0-.6441.258-.6441.645.0644.323.322.646.6441.646Zm-.5153 5.807h.9662v-4.969h-.9662v4.969Zm2.4477 1.677h.9663v-2.452h.0644c.2576.517.8374.839 1.5459.839 1.2883 0 2.0613-.968 2.0613-2.581 0-1.548-.773-2.581-2.0613-2.581-.7085 0-1.2239.323-1.5459.839h-.0644v-.774h-.9663v6.71Zm2.319-2.452c-.8374 0-1.3527-.645-1.3527-1.742 0-1.032.5153-1.742 1.3527-1.742s1.3527.645 1.3527 1.742c-.0644 1.097-.5153 1.742-1.3527 1.742Zm5.3464.839c.1932 0 .3865 0 .5153-.064v-.775h-.3865c-.5153 0-.7086-.193-.7086-.774v-2.645h1.0307v-.775h-1.0307v-1.226h-1.0306v1.226h-.773v.775h.773v2.839c.1288 1.032.5797 1.419 1.6104 1.419Zm2.2545-5.871c.322 0 .6441-.259.6441-.646 0-.322-.2576-.645-.6441-.645-.3221 0-.6442.258-.6442.645 0 .323.2577.646.6442.646Zm-.5153 5.807h.9662v-4.969h-.9662v4.969Zm4.509.129c1.4171 0 2.3189-.968 2.3189-2.581s-.9018-2.581-2.3189-2.581-2.3189.968-2.3189 2.581.9018 2.581 2.3189 2.581Zm0-.839c-.8374 0-1.3527-.645-1.3527-1.742s.4509-1.742 1.3527-1.742c.8374 0 1.3527.645 1.3527 1.742s-.5153 1.742-1.3527 1.742Zm3.5428.71h.9662v-2.904c0-.774.4509-1.29 1.1595-1.29.7085 0 1.095.387 1.095 1.226v2.968h.9662v-3.226c0-1.162-.5797-1.872-1.7392-1.872-.7085 0-1.2238.323-1.4171.839h-.0644v-.774h-.9662v5.033Zm9.9198.064c.7086 0 1.2239-.322 1.546-.839h.0644v.775h.9662v-6.904h-.9662v2.71h-.0644c-.2577-.517-.8374-.904-1.546-.904-1.2883 0-2.0612.968-2.0612 2.581s.8373 2.581 2.0612 2.581Zm.3221-.839c-.8374 0-1.3527-.645-1.3527-1.742 0-1.032.5153-1.742 1.3527-1.742s1.3527.645 1.3527 1.742c-.0644 1.097-.5797 1.742-1.3527 1.742Zm5.7973.904c1.2883 0 1.9324-.71 2.1257-1.355v-.065h-.9662v.065c-.1289.258-.5154.581-1.1595.581-.8374 0-1.3527-.581-1.3527-1.485h3.4784v-.322c0-1.484-.8374-2.517-2.2545-2.517-1.4172 0-2.2545 1.033-2.2545 2.581.0644 1.484.9662 2.517 2.3833 2.517Zm0-4.388c.6441 0 1.1595.452 1.2239 1.291h-2.5122c.0644-.775.5797-1.291 1.2883-1.291Zm5.2176 4.323c.1932 0 .3865 0 .5153-.064v-.775h-.3865c-.5153 0-.7086-.193-.7086-.774v-2.645h1.0307v-.775h-1.0307v-1.226h-1.0306v1.226h-.773v.775h.773v2.839c.1288 1.032.5153 1.419 1.6104 1.419Zm3.0919 0c.6441 0 1.1594-.258 1.4815-.774h.0644v.71h.9662v-3.42c0-1.032-.7085-1.678-1.9324-1.678-1.095 0-1.9324.516-1.9968 1.355h.9662c.1288-.322.4509-.58 1.0306-.58.6442 0 1.0306.322 1.0306.838v.452l-1.3527.065c-1.1594.064-1.868.58-1.868 1.484-.0644.968.6442 1.548 1.6104 1.548Zm-.7086-1.484c0-.451.3221-.71.9662-.774l1.2239-.065v.452c0 .645-.5153 1.097-1.2883 1.097-.5153 0-.9018-.258-.9018-.71Zm5.0888-4.387c.322 0 .6441-.259.6441-.646 0-.322-.2576-.645-.6441-.645-.3221 0-.6442.258-.6442.645.0644.323.3221.646.6442.646Zm-.4509 5.807h.9662v-4.969h-.9662v4.969Zm2.4477 0h.9662v-6.904h-.9662v6.904Zm4.2514.129c1.1594 0 2.0612-.645 2.0612-1.549 0-.71-.4509-1.097-1.4171-1.355l-.7729-.193c-.5798-.129-.773-.323-.773-.646 0-.387.3865-.645.9018-.645.5797 0 .9018.258 1.0306.581h.9662c-.0644-.839-.8374-1.355-1.9324-1.355-1.0951 0-1.9324.645-1.9324 1.484 0 .71.4509 1.161 1.3527 1.355l.7729.194c.5798.129.8374.322.8374.645 0 .387-.4509.71-1.0306.71-.5797 0-.9662-.259-1.0951-.646h-.9662c.0644.839.8374 1.42 1.9969 1.42Z"/><path stroke="#5C5F62" stroke-miterlimit="10" d="M95.1741 151.807c0-2.065 1.6747-3.743 3.736-3.743 2.0609 0 3.7359 1.678 3.7359 3.743s-1.675 3.742-3.7359 3.742c-2.0613 0-3.736-1.677-3.736-3.742Z"/><path fill="#5C5F62" d="M99.4255 153.227c0 .258-.1933.451-.4509.451-.2577 0-.4509-.193-.4509-.451v-.904c0-.258.1932-.451.4509-.451.2576 0 .4509.193.4509.451v.904ZM98.9101 150.903c.2491 0 .4509-.202.4509-.451 0-.25-.2018-.452-.4509-.452-.249 0-.4509.202-.4509.452 0 .249.2019.451.4509.451Z"/></svg>