<svg xmlns="http://www.w3.org/2000/svg" width="227" height="154" fill="none"><path fill="#f2f9f7" d="M225 53H1v79h224V53Z"/><path fill="#fff" stroke="#8C9196" d="M15.4932 37.5533c2.0634 0 3.7361-1.6756 3.7361-3.7425 0-2.0669-1.6727-3.7424-3.7361-3.7424-2.0633 0-3.736 1.6755-3.736 3.7424s1.6727 3.7425 3.736 3.7425Z"/><path fill="#202223" d="M27.5388 37.2308c1.868 0 3.0919-1.355 3.0919-3.4198 0-2.1294-1.1595-3.4199-3.0919-3.4199-1.868 0-3.0919 1.3551-3.0919 3.4199 0 2.1293 1.1595 3.4198 3.0919 3.4198Zm0-.9034c-1.2883 0-1.9969-1.0324-1.9969-2.5164 0-1.5486.773-2.5165 1.9969-2.5165s1.9968.9679 1.9968 2.5165c0 1.5486-.7729 2.5164-1.9968 2.5164Zm4.3158.7743h.9662v-2.9036c0-.7743.4509-1.2905 1.1595-1.2905.7085 0 1.095.3872 1.095 1.226v2.9681h.9662v-3.2262c0-1.1615-.5797-1.8712-1.7392-1.8712-.7085 0-1.2239.3226-1.4171.8388h-.0644v-.7743h-.9662v5.0329Zm7.6653.0646c1.2883 0 1.9324-.7098 2.1257-1.3551v-.0645h-.9662v.0645c-.1289.2581-.5153.5808-1.1595.5808-.8374 0-1.3527-.5808-1.3527-1.4841h3.4784v-.3226c0-1.4841-.8374-2.5165-2.2545-2.5165s-2.2545 1.0324-2.2545 2.581c.0644 1.5486.9018 2.5165 2.3833 2.5165Zm-.0644-4.3232c.6441 0 1.1595.4517 1.2239 1.2905h-2.5122c.1288-.8388.6441-1.2905 1.2883-1.2905Zm3.414 2.0648h3.0274v-.9034h-3.0274v.9034Zm5.604 2.1938h1.0307V31.359h2.0612v-.9033h-5.1531v.9033h2.0612v5.7427Zm4.6379-5.8717c.322 0 .6441-.2581.6441-.6453 0-.3226-.2576-.6452-.6441-.6452-.3221 0-.6442.2581-.6442.6452.0644.3872.3221.6453.6442.6453Zm-.5153 5.8717h.9662v-4.9684h-.9662v4.9684Zm2.4477 0h.9662v-3.0326c0-.6453.4509-1.1615 1.0307-1.1615.5797 0 .9662.3872.9662.9034v3.2907h.9662V33.94c0-.5807.3865-1.0969 1.0306-1.0969.6442 0 .9662.3226.9662 1.0324v3.1617h.9663v-3.4198c0-1.0324-.5798-1.6131-1.6104-1.6131-.7086 0-1.2883.3226-1.4815.9033h-.0644c-.1933-.5162-.7086-.9033-1.3528-.9033-.6441 0-1.1594.3226-1.3527.8388H56.01v-.7743h-.9662v5.0329Zm10.4352.0646c1.2883 0 1.9324-.7098 2.1256-1.3551v-.0645h-.9662v.0645c-.1288.2581-.5153.5808-1.1594.5808-.8374 0-1.3527-.5808-1.3527-1.4841h3.4783v-.3226c0-1.4841-.8373-2.5165-2.2545-2.5165-1.3527 0-2.2545 1.0324-2.2545 2.581.0644 1.5486.9018 2.5165 2.3834 2.5165Zm-.0644-4.3232c.6441 0 1.1594.4517 1.2238 1.2905h-2.5121c.1288-.8388.5797-1.2905 1.2883-1.2905Zm6.0549 4.2586h1.0307v-2.2583h1.5459c1.2883 0 2.1901-.9034 2.1901-2.1939 0-1.2905-.9018-2.1293-2.1901-2.1293h-2.5766v6.5815Zm2.3189-5.7427c.9018 0 1.4172.4517 1.4172 1.2905s-.5154 1.2905-1.4172 1.2905h-1.2882v-2.581h1.2882Zm5.282 5.8073c.7086 0 1.2239-.3227 1.4816-.8389h.0644v.7743h.9662v-4.9684h-.9662v2.9036c0 .7743-.4509 1.2905-1.2239 1.2905-.7085 0-1.0306-.3871-1.0306-1.2259v-2.9682h-.9662v3.2263c0 1.1614.5797 1.8067 1.6747 1.8067Zm3.9293-.0646h.9662v-2.9681c0-.7098.5154-1.1615 1.2883-1.1615.1933 0 .3865 0 .5153.0646v-.9034c-.1288 0-.2576-.0645-.4509-.0645-.6441 0-1.095.3226-1.2882.8388v-.7743h-.9663v4.9684h-.0644Zm5.7329.0646c1.2239 0 1.9325-.6453 2.1257-1.6132v-.0645h-.9662c-.1288.5162-.5153.8388-1.1595.8388-.8374 0-1.3527-.6452-1.3527-1.7421 0-1.097.5153-1.7422 1.3527-1.7422.6442 0 1.0307.3871 1.1595.8388h.9662c-.1288-.9679-.9018-1.6776-2.1257-1.6776-1.4171 0-2.3189.9678-2.3189 2.581-.0644 1.6131.8374 2.581 2.3189 2.581Zm3.2207-.0646h.9663v-2.9036c0-.7743.4509-1.2905 1.1594-1.2905.7086 0 1.0951.3872 1.0951 1.226v2.9681h.9662v-3.2262c0-1.1615-.5797-1.8712-1.7392-1.8712-.7086 0-1.2239.3226-1.4171.8388h-.0644V30.133h-.9663v6.9687Zm6.9568.0646c.6442 0 1.1599-.2581 1.4819-.7743h.064v.7097h.966v-3.4198c0-1.0324-.708-1.6776-1.9322-1.6776-1.095 0-1.9324.5162-1.9968 1.355h.9662c.1288-.3226.4509-.5807 1.0306-.5807.6442 0 1.0302.3226 1.0302.8388v.4517l-1.3522.0645c-1.1595.0645-1.868.5807-1.868 1.4841 0 .9679.7085 1.5486 1.6103 1.5486Zm-.6441-1.4841c0-.4517.3221-.7098.9662-.7743l1.2238-.0645v.4516c0 .6453-.5152 1.097-1.2882 1.097-.5153 0-.9018-.2581-.9018-.7098Zm6.377 1.4841c1.159 0 2.061-.6453 2.061-1.5486 0-.7098-.451-1.097-1.417-1.3551l-.773-.1935c-.58-.1291-.773-.3227-.773-.6453 0-.3871.387-.6452.902-.6452.58 0 .902.2581 1.031.5807h.966c-.065-.8388-.838-1.355-1.933-1.355-1.095 0-1.932.6452-1.932 1.484 0 .7098.451 1.1615 1.353 1.3551l.773.1935c.579.1291.837.3227.837.6453 0 .3871-.451.7098-1.031.7098-.579 0-.966-.2581-1.095-.6453h-.966c.065.9034.838 1.4196 1.997 1.4196Zm5.346 0c1.289 0 1.933-.7098 2.126-1.3551v-.0645h-.966v.0645c-.129.2581-.515.5808-1.16.5808-.837 0-1.352-.5808-1.352-1.4841h3.478v-.3226c0-1.4841-.837-2.5165-2.254-2.5165-1.353 0-2.255 1.0324-2.255 2.581s.902 2.5165 2.383 2.5165Zm-.064-4.3232c.644 0 1.159.4517 1.224 1.2905h-2.512c.064-.8388.579-1.2905 1.288-1.2905Z"/><path fill="#5C5F62" d="M182.069 37.7467h.516v-.7743c1.223-.0646 2.125-.7098 2.125-1.8713 0-.9679-.644-1.4841-1.868-1.7422l-.257-.0645v-1.7422c.515.0646.901.3872.966.9034h1.03c-.064-1.0324-.837-1.7422-2.061-1.8712v-.7743h-.515v.7743c-1.16.0645-2.061.7743-2.061 1.8067 0 .9678.644 1.484 1.803 1.7421l.258.0646v1.8712c-.709-.0645-1.031-.4517-1.095-.9034h-1.031c.065 1.097.966 1.7422 2.19 1.8068v.7743Zm-.966-5.4202c0-.3871.322-.7743.966-.8388v1.6777c-.708-.1936-.966-.4517-.966-.8389Zm2.512 2.9037c0 .4516-.322.7743-1.03.8388v-1.7422c.773.2581 1.03.4517 1.03.9034Zm4.058 1.8712h1.16v-6.5816h-1.16l-1.739 1.226v1.0969l1.61-1.1614h.065v5.4201h.064Zm5.411.1291c1.546 0 2.512-1.3551 2.512-3.4844 0-2.1293-.966-3.4198-2.512-3.4198s-2.512 1.355-2.512 3.4198c0 2.1938.902 3.4844 2.512 3.4844Zm0-.9034c-.837 0-1.288-.9679-1.288-2.5165 0-1.5486.451-2.5165 1.288-2.5165.838 0 1.353.9034 1.353 2.5165-.065 1.5486-.515 2.5165-1.353 2.5165Zm6.184.9034c1.546 0 2.512-1.3551 2.512-3.4844 0-2.1293-.966-3.4198-2.512-3.4198s-2.512 1.355-2.512 3.4198c0 2.1938.966 3.4844 2.512 3.4844Zm0-.9034c-.837 0-1.288-.9679-1.288-2.5165 0-1.5486.451-2.5165 1.288-2.5165s1.353.9034 1.353 2.5165c0 1.5486-.516 2.5165-1.353 2.5165Zm4.187.8388c.451 0 .708-.3226.708-.7098 0-.3871-.322-.7097-.708-.7097-.387 0-.709.3226-.709.7097 0 .3872.322.7098.709.7098Zm4.251.0646c1.546 0 2.512-1.3551 2.512-3.4844 0-2.1293-.966-3.4198-2.512-3.4198s-2.512 1.355-2.512 3.4198c0 2.1938.966 3.4844 2.512 3.4844Zm0-.9034c-.837 0-1.288-.9679-1.288-2.5165 0-1.5486.451-2.5165 1.288-2.5165.838 0 1.353.9034 1.353 2.5165-.064 1.5486-.515 2.5165-1.353 2.5165Zm6.184.9034c1.546 0 2.512-1.3551 2.512-3.4844 0-2.1293-.966-3.4198-2.512-3.4198s-2.512 1.355-2.512 3.4198c0 2.1938.966 3.4844 2.512 3.4844Zm0-.9034c-.837 0-1.288-.9679-1.288-2.5165 0-1.5486.451-2.5165 1.288-2.5165s1.353.9034 1.353 2.5165c0 1.5486-.516 2.5165-1.353 2.5165ZM204.099 45.5544c.837 0 1.288-.4517 1.417-.9034h-.58c-.064.1936-.386.4517-.837.4517-.644 0-1.031-.3871-1.031-1.0969h2.448v-.1936c0-1.0324-.58-1.7422-1.481-1.7422-.967 0-1.546.7098-1.546 1.8067 0 .9679.644 1.6777 1.61 1.6777Zm-.064-3.0327c.515 0 .901.3226.966 1.0324h-1.933c.065-.7098.451-1.0324.967-1.0324Zm3.349 3.0327c.451 0 .838-.1936 1.031-.5807h.064v.5161h.58v-2.3874c0-.7098-.451-1.1614-1.288-1.1614-.709 0-1.289.3871-1.353.9033h.58c.064-.2581.386-.4517.773-.4517.515 0 .773.2581.773.6453v.3226l-.967.0645c-.773.0646-1.223.3872-1.223 1.0325-.129.7097.322 1.0969 1.03 1.0969Zm-.58-1.0324c0-.3227.258-.5162.773-.5808l.902-.0645v.3226c0 .5162-.386.8389-.966.8389-.451.0645-.709-.1291-.709-.5162Zm4.638 1.0324c.838 0 1.289-.4517 1.417-1.0969v-.0646h-.579c-.129.3872-.451.5808-.902.5808-.644 0-1.031-.5162-1.031-1.2906 0-.7743.387-1.2905 1.031-1.2905.515 0 .773.2581.902.6453h.579c-.128-.6453-.579-1.0969-1.417-1.0969-.966 0-1.546.7097-1.546 1.7421-.064 1.1615.58 1.8713 1.546 1.8713Zm2.255-.0646h.58V43.425c0-.5807.322-.9678.901-.9678.58 0 .773.3226.773.9033v2.0648h.58v-2.2584c0-.8388-.451-1.2905-1.224-1.2905-.515 0-.837.1936-1.03.5808h-.065v-1.8713h-.58v4.9039h.065Z"/><path fill="#008060" d="M15.4932 70.2674c1.2807 0 2.319-1.04 2.319-2.3229 0-1.2829-1.0383-2.3229-2.319-2.3229s-2.3189 1.04-2.3189 2.3229c0 1.2829 1.0382 2.3229 2.3189 2.3229Z"/><path stroke="#008060" d="M15.4932 64.2021c2.0613 0 3.7361 1.6777 3.7361 3.7425s-1.6748 3.7425-3.7361 3.7425c-2.0612 0-3.736-1.6777-3.736-3.7425s1.6748-3.7425 3.736-3.7425Z"/><path fill="#202223" d="M26.9591 71.3646c1.5459 0 2.5121-.7743 2.5121-2.0648 0-.9679-.5797-1.5486-1.9324-1.8067l-.7086-.1291c-.8374-.1935-1.2238-.5162-1.2238-.9678 0-.6453.5797-.9679 1.3527-.9679.7729 0 1.2883.3871 1.4171.9033v.0646h.9662v-.0646c-.0644-1.0324-.9662-1.8067-2.3833-1.8067-1.4172 0-2.3834.7743-2.3834 1.9358 0 .9679.5798 1.6131 1.9325 1.8712l.7085.1291c.9018.1935 1.2239.5162 1.2239 1.0324 0 .5807-.5797 1.0324-1.4171 1.0324-.9018 0-1.4816-.3872-1.546-.9679v-.0645h-1.0306v.0645c.0644 1.0324.9662 1.8067 2.5122 1.8067Zm5.3464-.0645c.7085 0 1.2239-.3227 1.4815-.8389h.0644v.7743h.9662v-4.9684h-.9662v2.9036c0 .7743-.4509 1.2905-1.2239 1.2905-.7085 0-1.0306-.3871-1.0306-1.2259v-2.9682h-.9662v3.2263c0 1.1614.5797 1.8067 1.6748 1.8067Zm6.5703 0c1.2238 0 2.0612-.9679 2.0612-2.581 0-1.5486-.7729-2.5811-2.0612-2.5811-.7086 0-1.2883.3227-1.546.9034h-.0644v-2.7101h-.9662v6.9042h.9662v-.7743h.0644c.3221.5162.9018.8389 1.546.8389Zm-.2577-.8389c-.8374 0-1.3527-.6452-1.3527-1.7421 0-1.0324.5153-1.7422 1.3527-1.7422s1.3527.6452 1.3527 1.7422c-.0644 1.0969-.5153 1.7421-1.3527 1.7421Zm5.282.8389c1.1595 0 2.0613-.6453 2.0613-1.5486 0-.7098-.4509-1.097-1.4172-1.3551l-.7729-.1935c-.5798-.1291-.773-.3227-.773-.6453 0-.3871.3865-.6452.9018-.6452.5797 0 .9018.2581 1.0306.5807h.9662c-.0644-.8388-.8373-1.3551-1.9324-1.3551-1.095 0-1.9324.6453-1.9324 1.4841 0 .7098.4509 1.1615 1.3527 1.3551l.773.1935c.5797.1291.8373.3227.8373.6453 0 .3871-.4509.7098-1.0306.7098-.5797 0-.9662-.2581-1.095-.6453h-.9663c.0645.8388.8374 1.4196 1.9969 1.4196Zm5.3464 0c1.2239 0 1.9324-.6453 2.1257-1.6132v-.0645h-.9662c-.1289.5162-.5154.8388-1.1595.8388-.8374 0-1.3527-.6452-1.3527-1.7421 0-1.097.5153-1.7422 1.3527-1.7422.6441 0 1.0306.3871 1.1595.8388h.9662c-.1288-.9679-.9018-1.6777-2.1257-1.6777-1.4171 0-2.3189.9679-2.3189 2.5811 0 1.6131.8374 2.581 2.3189 2.581Zm3.2207-.0646h.9662v-2.9681c0-.7098.5154-1.1615 1.2883-1.1615.1933 0 .3865 0 .5154.0646v-.9679c-.1289 0-.2577-.0646-.4509-.0646-.6442 0-1.0951.3227-1.2883.8389h-.0645v-.7743h-.9662v5.0329Zm4.2514-5.8718c.3221 0 .6441-.2581.6441-.6452 0-.3226-.2576-.6453-.6441-.6453-.3221 0-.6442.2581-.6442.6453 0 .3871.3221.6452.6442.6452Zm-.5153 5.8718h.9662v-4.9684h-.9662v4.9684Zm2.4477 1.6132h.9662v-2.452h.0645c.2576.5162.8373.8388 1.5459.8388 1.2883 0 2.0613-.9678 2.0613-2.581 0-1.5486-.773-2.581-2.0613-2.581-.7086 0-1.2239.3227-1.5459.8389h-.0645v-.7744h-.9662v6.7107Zm2.3189-2.3875c-.8373 0-1.3527-.6452-1.3527-1.7421 0-1.0324.5154-1.7422 1.3527-1.7422.8374 0 1.3528.6452 1.3528 1.7422-.0645 1.0969-.5154 1.7421-1.3528 1.7421Zm5.3465.7743c.1932 0 .3864 0 .5153-.0645v-.7743h-.3865c-.5153 0-.7086-.1936-.7086-.7743v-2.6455h1.0307v-.7743h-1.0307v-1.226H64.706v1.226h-.773v.7743h.773v2.8391c.1288 1.0324.5153 1.4195 1.6104 1.4195Zm2.1901-5.8718c.322 0 .6441-.2581.6441-.6452 0-.3226-.2577-.6453-.6441-.6453-.3221 0-.6442.2581-.6442.6453.0644.3871.3221.6452.6442.6452Zm-.451 5.8718h.9663v-4.9684h-.9663v4.9684Zm4.5091.0646c1.4171 0 2.3189-.9679 2.3189-2.581 0-1.6132-.9018-2.5811-2.3189-2.5811-1.4172 0-2.319.9679-2.319 2.5811 0 1.6131.8374 2.581 2.319 2.581Zm0-.8389c-.8374 0-1.3527-.6452-1.3527-1.7421 0-1.097.4509-1.7422 1.3527-1.7422.8374 0 1.3527.6452 1.3527 1.7422 0 1.0969-.5153 1.7421-1.3527 1.7421Zm3.5428.7743h.9662v-2.9036c0-.7743.4509-1.2905 1.1594-1.2905.7086 0 1.0951.3872 1.0951 1.226v2.9681h.9662v-3.2262c0-1.1615-.5797-1.8713-1.7392-1.8713-.7085 0-1.2239.3227-1.4171.8389h-.0644v-.7743h-.9662v5.0329Zm9.4689.0646c.6441 0 1.1595-.2581 1.4815-.7743h.0645v.7097h.9662v-3.4198c0-1.0324-.7086-1.6777-1.9325-1.6777-1.095 0-1.9324.5163-1.9968 1.3551h.9662c.1288-.3226.4509-.5807 1.0306-.5807.6442 0 1.0307.3226 1.0307.8388v.4517l-1.3527.0645c-1.1595.0645-1.8681.5807-1.8681 1.4841 0 .9678.6442 1.5486 1.6104 1.5486Zm-.6441-1.5486c0-.4517.322-.7098.9662-.7743l1.2239-.0646v.4517c0 .6453-.5154 1.0969-1.2883 1.0969-.5154.0646-.9018-.2581-.9018-.7097Zm4.5734 1.484h.9662v-2.9036c0-.7743.4509-1.2905 1.1595-1.2905.7085 0 1.095.3872 1.095 1.226v2.9681h.9662v-3.2262c0-1.1615-.5797-1.8713-1.7392-1.8713-.7085 0-1.2238.3227-1.4171.8389h-.0644v-.7743h-.9662v5.0329Zm7.4077.0646c.7085 0 1.2238-.3227 1.5459-.8389h.0644v.7743h.9662v-6.9042h-.9662v2.7101h-.0644c-.2576-.5162-.8374-.9034-1.5459-.9034-1.2883 0-2.0613.9679-2.0613 2.5811 0 1.5486.773 2.581 2.0613 2.581Zm.2576-.8389c-.8374 0-1.3527-.6452-1.3527-1.7421 0-1.0324.5153-1.7422 1.3527-1.7422s1.3527.6452 1.3527 1.7422c0 1.0969-.5153 1.7421-1.3527 1.7421Zm8.1161.8389c1.16 0 2.061-.6453 2.061-1.5486 0-.7098-.45-1.097-1.417-1.3551l-.773-.1935c-.579-.1291-.773-.3227-.773-.6453 0-.3871.387-.6452.902-.6452.58 0 .902.2581 1.031.5807h.966c-.064-.8388-.837-1.3551-1.932-1.3551s-1.933.6453-1.933 1.4841c0 .7098.451 1.1615 1.353 1.3551l.773.1935c.58.1291.837.3227.837.6453 0 .3871-.451.7098-1.03.7098-.58 0-.967-.2581-1.095-.6453h-.967c.065.8388.838 1.4196 1.997 1.4196Zm4.574 0c.644 0 1.159-.2581 1.481-.7743h.065v.7097h.966v-3.4198c0-1.0324-.709-1.6777-1.933-1.6777-1.095 0-1.932.5163-1.997 1.3551h.967c.129-.3226.451-.5807 1.03-.5807.644 0 1.031.3226 1.031.8388v.4517l-1.353.0645c-1.159.0645-1.868.5807-1.868 1.4841 0 .9678.709 1.5486 1.611 1.5486Zm-.645-1.5486c0-.4517.323-.7098.967-.7743l1.224-.0646v.4517c0 .6453-.516 1.0969-1.289 1.0969-.515.0646-.902-.2581-.902-.7097Zm5.798 1.484h1.03l1.804-4.9684h-1.031l-1.224 3.936h-.064l-1.224-3.936h-1.03l1.739 4.9684Zm5.733.0646c1.288 0 1.932-.7098 2.125-1.3551v-.0645h-.966v.0645c-.129.2581-.515.5808-1.159.5808-.838 0-1.353-.5808-1.353-1.4841h3.478v-.3226c0-1.4841-.837-2.5165-2.254-2.5165-1.353 0-2.255 1.0324-2.255 2.581.065 1.5486.902 2.5165 2.384 2.5165Zm-.065-4.3232c.644 0 1.16.4517 1.224 1.2905h-2.512c.129-.8388.58-1.2905 1.288-1.2905Z"/><path fill="#5C5F62" d="M186.578 71.8805h.516v-.7743c1.223-.0646 2.125-.7098 2.125-1.8713 0-.9679-.644-1.4841-1.868-1.7422l-.257-.0645V65.686c.515.0646.901.3872.966.9034h1.03c-.064-1.0324-.837-1.7422-2.061-1.8713v-.7743h-.515v.7743c-1.16.0646-2.061.7744-2.061 1.8068 0 .9678.644 1.484 1.803 1.7421l.258.0646v1.8712c-.709-.0645-1.031-.4517-1.095-.9034h-1.031c.065 1.097.966 1.7422 2.19 1.8068v.7743Zm-.902-5.4202c0-.3871.323-.7743.967-.8388v1.6777c-.709-.1936-.967-.4517-.967-.8389Zm2.513 2.9037c0 .4516-.322.7743-1.031.8388v-1.7422c.773.1936 1.031.4517 1.031.9034Zm4.831 2.0002c1.481 0 2.576-.7743 2.576-1.9357 0-.8388-.579-1.4841-1.481-1.6777.773-.1935 1.224-.7743 1.224-1.484 0-1.0324-.967-1.7422-2.319-1.7422-1.353 0-2.319.7743-2.319 1.7422 0 .7097.515 1.2905 1.224 1.484-.902.1936-1.482.8389-1.482 1.6777.065 1.0969 1.095 1.9357 2.577 1.9357Zm0-4.0005c-.709 0-1.16-.3872-1.16-.9679s.451-.9679 1.16-.9679c.708 0 1.159.3872 1.159.9679.065.5162-.451.9679-1.159.9679Zm0 3.0972c-.773 0-1.353-.4517-1.353-1.0969 0-.6453.58-1.097 1.353-1.097s1.352.4517 1.352 1.097c0 .6452-.515 1.0969-1.352 1.0969Zm6.248.9033c1.546 0 2.512-1.355 2.512-3.4843s-.966-3.4198-2.512-3.4198-2.512 1.355-2.512 3.4198c0 2.1938.966 3.4843 2.512 3.4843Zm0-.9678c-.837 0-1.288-.9679-1.288-2.5165 0-1.5486.451-2.5165 1.288-2.5165s1.353.9034 1.353 2.5165c0 1.6131-.516 2.5165-1.353 2.5165Zm4.187.9033c.451 0 .708-.3226.708-.7098 0-.3871-.322-.7097-.708-.7097-.387 0-.709.3226-.709.7097 0 .3872.322.7098.709.7098Zm4.251.0645c1.546 0 2.512-1.355 2.512-3.4843s-.966-3.4198-2.512-3.4198-2.512 1.355-2.512 3.4198c0 2.1938.966 3.4843 2.512 3.4843Zm0-.9678c-.837 0-1.288-.9679-1.288-2.5165 0-1.5486.451-2.5165 1.288-2.5165.838 0 1.353.9034 1.353 2.5165-.064 1.6131-.515 2.5165-1.353 2.5165Zm6.184.9678c1.546 0 2.512-1.355 2.512-3.4843s-.966-3.4198-2.512-3.4198-2.512 1.355-2.512 3.4198c0 2.1938.966 3.4843 2.512 3.4843Zm0-.9678c-.837 0-1.288-.9679-1.288-2.5165 0-1.5486.451-2.5165 1.288-2.5165s1.353.9034 1.353 2.5165c0 1.6131-.516 2.5165-1.353 2.5165ZM204.099 79.6882c.837 0 1.288-.4517 1.417-.9034h-.58c-.064.1936-.386.4517-.837.4517-.644 0-1.031-.3872-1.031-1.0969h2.448v-.3227c0-1.0324-.58-1.7421-1.481-1.7421-.967 0-1.546.7097-1.546 1.8067 0 1.0969.644 1.8067 1.61 1.8067Zm-.064-3.0972c.515 0 .901.3226.966 1.0324h-1.933c.065-.6453.451-1.0324.967-1.0324Zm3.349 3.0972c.451 0 .838-.1936 1.031-.5808h.064v.5162h.58v-2.3874c0-.7098-.451-1.1614-1.288-1.1614-.709 0-1.289.3871-1.353.9033h.58c.064-.2581.386-.4517.773-.4517.515 0 .773.2581.773.6453v.3226l-.967.0645c-.773.0646-1.223.3872-1.223 1.0324-.129.7098.322 1.097 1.03 1.097Zm-.58-1.0324c0-.3227.258-.5162.773-.5808l.902-.0645v.3226c0 .5162-.386.8389-.966.8389-.451 0-.709-.1936-.709-.5162Zm4.638 1.0324c.838 0 1.289-.4517 1.417-1.097v-.0645h-.579c-.129.3872-.451.5807-.902.5807-.644 0-1.031-.5162-1.031-1.2905s.387-1.2905 1.031-1.2905c.515 0 .773.2581.902.6453h.579c-.128-.6453-.579-1.0969-1.417-1.0969-.966 0-1.546.7097-1.546 1.7421-.064 1.1615.58 1.8713 1.546 1.8713Zm2.255-.0646h.58v-2.0648c0-.5807.322-.9678.901-.9678.58 0 .773.3226.773.9033v2.0648h.58v-2.2584c0-.8388-.451-1.2905-1.224-1.2905-.515 0-.837.1936-1.03.5808h-.065v-1.8713h-.58v4.9039h.065Z"/><path fill="#202223" d="M24.0604 91.3029h1.8036c1.546 0 2.5122-.9678 2.5122-2.6455 0-1.6777-.9018-2.6455-2.5122-2.6455h-1.8036v5.291Zm.7086-.5807v-4.0651h1.095c1.1595 0 1.8681.7743 1.8681 2.0648s-.7086 2.0648-1.8681 2.0648h-1.095v-.0645Zm4.7667.5807h3.2851v-.5807h-2.5766v-1.8067h2.4478v-.5807h-2.4478v-1.6777h2.5766v-.5807h-3.2851v5.2265Zm4.4446 0h3.2207v-.5807h-2.5122v-4.6458h-.6441v5.2265h-.0644Zm4.1869 0h.6442v-5.291h-.6442v5.291Zm3.5428 0h.6442l1.9324-5.291h-.7086l-1.5459 4.3877h-.0644l-1.546-4.3877h-.7085l1.9968 5.291Zm3.5428 0h3.2852v-.5807h-2.5766v-1.8067h2.4477v-.5807h-2.4477v-1.6777h2.5766v-.5807h-3.2852v5.2265Zm4.4446 0h.6442v-2.0648h1.2882l1.0951 2.0648h.773l-1.2239-2.1938c.6441-.1936 1.0306-.7743 1.0306-1.4841 0-.9679-.6441-1.5486-1.6748-1.5486H49.633v5.2265h.0644Zm.6442-2.6455v-2.0003h1.2882c.7086 0 1.0951.3872 1.0951 1.0324 0 .6453-.3865 1.0324-1.0306 1.0324h-1.3527v-.0645Zm5.4752 2.6455h.6441v-2.2584l1.8681-2.9681h-.7086l-1.4171 2.3229h-.0644l-1.4172-2.3229h-.7729l1.868 2.9681v2.2584Zm5.6041 0h.6441v-2.2584h2.3189v-.5807H62.065v-1.8067h2.5122v-.5807h-3.2208v5.2265h.0645Zm4.2513 0h.6442v-2.0648h1.2883l1.095 2.0648h.773l-1.2239-2.1938c.6441-.1936 1.0306-.7743 1.0306-1.4841 0-.9679-.6441-1.5486-1.6747-1.5486h-1.9969v5.2265h.0644Zm.6442-2.6455v-2.0003h1.2883c.7085 0 1.095.3872 1.095 1.0324 0 .6453-.3865 1.0324-1.0306 1.0324h-1.3527v-.0645Zm4.2513 2.6455h3.2852v-.5807h-2.5766v-1.8067h2.4477v-.5807h-2.4477v-1.6777h2.5766v-.5807h-3.2852v5.2265Zm6.6347.1291c.3221 0 .6442-.0646.9662-.1936l.4509.6453h.7086l-.7086-.9679c.5798-.4517.9018-1.2905.9018-2.2584 0-1.6777-.9018-2.7746-2.3833-2.7746s-2.3833 1.0324-2.3833 2.7746c0 1.6777.9018 2.7746 2.4477 2.7746Zm0-.6453c-1.095 0-1.7392-.8388-1.7392-2.1293 0-1.2905.6442-2.1293 1.7392-2.1293 1.0951 0 1.7392.8388 1.7392 2.1293 0 .7743-.2576 1.355-.6441 1.7422l-.4509-.6453h-.7086l.7086.9034c-.2577.129-.4509.129-.6442.129Zm5.6041.6453c1.2883 0 2.0613-.7743 2.0613-1.9358v-3.4843h-.6442v3.4198c0 .8388-.5153 1.355-1.4171 1.355s-1.4171-.5807-1.4171-1.355v-3.4198h-.6442v3.4843c0 1.1615.773 1.9358 2.0613 1.9358Zm3.414-.1291h3.2851v-.5807H86.929v-1.8067h2.4478v-.5807H86.929v-1.6777h2.5766v-.5807h-3.2851v5.2265Zm4.4446 0h.6441v-4.0651h.0644l2.8343 4.0651h.6441v-5.291h-.6441v4.1296h-.0645l-2.8342-4.1296h-.6441v5.291Zm7.6653.1291c1.095 0 1.9326-.6453 2.1256-1.6131h-.6441c-.1932.5807-.7085.9678-1.4815.9678-1.0306 0-1.6748-.8388-1.6748-2.1293 0-1.2905.6442-2.1293 1.6748-2.1293.7085 0 1.2883.4516 1.4815 1.0969h.6441c-.129-1.0324-1.0306-1.6777-2.1256-1.6777-1.4171 0-2.3189 1.0324-2.3189 2.7746 0 1.6131.9018 2.7101 2.3189 2.7101Zm4.5736-.1291h.644v-2.2584l1.868-2.9681h-.773l-1.417 2.3229h-.065l-1.417-2.3229h-.773l1.868 2.9681v2.2584h.065Z"/><path fill="#008060" d="M28.054 105.756c1.2807 0 2.319-1.04 2.319-2.323s-1.0383-2.323-2.319-2.323-2.3189 1.04-2.3189 2.323 1.0382 2.323 2.3189 2.323Z"/><path stroke="#008060" d="M28.054 99.6909c2.0613 0 3.7361 1.6781 3.7361 3.7421 0 2.065-1.6748 3.743-3.7361 3.743-2.0612 0-3.736-1.678-3.736-3.743 0-2.064 1.6748-3.7421 3.736-3.7421Z"/><path fill="#000" d="M37.1365 105.304h3.3495v-.709h-2.5121v-1.613h2.3833v-.71h-2.3833v-1.549h2.5121v-.71h-3.3495v5.291Zm5.5396 0h.8374l1.4171-3.936h-.8374l-.9662 3.162h-.0644l-.9662-3.162h-.8374l1.4171 3.936Zm4.5735.065c1.0306 0 1.5459-.581 1.6747-1.097v-.064h-.7729c-.0645.193-.3865.451-.9018.451-.6442 0-1.0951-.451-1.0951-1.226h2.8343v-.258c0-1.161-.7086-2-1.8037-2-1.095 0-1.8036.839-1.8036 2.065 0 1.355.7086 2.129 1.8681 2.129Zm-.0645-3.42c.5154 0 .9018.323.9663 1.033h-1.9969c.0644-.71.5153-1.033 1.0306-1.033Zm2.7055 3.355h.7729v-2.387c0-.581.3865-.968 1.0307-.968.1288 0 .2576 0 .4509.065v-.71c-.0645 0-.1933-.065-.3221-.065-.5153 0-.9018.258-1.0306.646h-.0645v-.581h-.8373v4Zm3.4139 1.42c.773 0 1.2239-.323 1.546-1.226l1.4815-4.13h-.8374l-.9662 3.162h-.1288l-.9662-3.162h-.8374l1.4171 3.936-.0644.194c-.1289.387-.3221.581-.7086.581h-.2576v.645h.322Zm5.8618-1.42h.7729v-2.452c0-.516.3221-.903.8374-.903.4509 0 .773.258.773.71v2.645h.773v-2.516c0-.452.322-.839.8374-.839.5153 0 .7729.258.7729.839v2.516h.773v-2.71c0-.838-.4509-1.29-1.2883-1.29-.5797 0-1.0306.258-1.2239.71h-.0644c-.1932-.452-.5797-.71-1.095-.71s-.9018.258-1.0951.71h-.0644v-.581h-.773v3.871h.0645Zm8.3094.065c1.1595 0 1.868-.774 1.868-2.065 0-1.29-.7085-2.065-1.868-2.065-1.1594 0-1.868.775-1.868 2.065 0 1.291.7086 2.065 1.868 2.065Zm0-.645c-.7085 0-1.095-.516-1.095-1.42 0-.903.3865-1.419 1.095-1.419.7086 0 1.0951.516 1.0951 1.419 0 .904-.3865 1.42-1.0951 1.42Zm2.8343.58h.7729v-2.322c0-.646.3865-1.033.9663-1.033.5797 0 .8373.323.8373.968v2.387h.773v-2.581c0-.967-.5153-1.484-1.3527-1.484-.5797 0-.9662.258-1.1594.71h-.0645v-.581H70.31v3.936Zm5.9905.065c.1288 0 .3221 0 .4509-.065v-.645h-.3221c-.3864 0-.5797-.193-.5797-.581v-2.129h.8374v-.645h-.8374v-1.033h-.8374v1.033h-.6441v.645h.6441v2.323c.0644.774.3865 1.097 1.2883 1.097Zm1.3527-.065h.773v-2.322c0-.646.3865-1.033.9662-1.033.5798 0 .8374.323.8374.968v2.387h.773v-2.581c0-.967-.5153-1.484-1.3527-1.484-.5798 0-.9662.258-1.1595.71h-.0644v-2.1292h-.773v5.4842Z"/><path fill="#5C5F62" d="M85.5118 106.66h.7086c-.5153-.71-.9662-2.13-.9662-3.42 0-1.291.3865-2.71.9662-3.4202h-.7086c-.7085.9032-1.0306 2.0652-1.0306 3.4202s.3221 2.452 1.0306 3.42Zm3.5428-1.226c1.2239 0 1.9969-.646 1.9969-1.614 0-.774-.4509-1.226-1.546-1.484l-.5797-.129c-.7085-.129-.9662-.387-.9662-.774 0-.516.4509-.774 1.095-.774.6442 0 1.0307.322 1.0951.709v.065h.773v-.065c-.0645-.838-.773-1.4191-1.9325-1.4191-1.095 0-1.9324.6451-1.9324 1.5481 0 .775.4509 1.291 1.5459 1.485l.5798.129c.7085.129.9662.387.9662.838 0 .517-.4509.839-1.1595.839-.7085 0-1.2239-.322-1.2239-.774v-.065h-.7729v.065c.0644.839.8374 1.42 2.0612 1.42Zm2.641-.13h.8374l.4509-1.419h1.9969l.4509 1.419h.8374l-1.8681-5.291h-.9018l-1.8036 5.291Zm2.319-4.323.8373 2.259H93.306l.7086-2.259Zm4.3157 4.323h.9018l1.8679-5.291h-.902l-1.4168 4.259h-.0644l-1.4171-4.259h-.9018l1.9324 5.291Zm3.6717 0h3.35v-.709h-2.513v-1.613h2.384v-.71h-2.384v-1.549h2.513v-.71h-3.35v5.291Zm6.441 0h3.543v-.709h-2.448v-.065l1.096-1.097c.966-.968 1.223-1.419 1.223-2 0-.839-.708-1.4841-1.674-1.4841-1.031 0-1.804.7101-1.804 1.6131h.773c0-.581.386-.968.966-.968s.902.387.902.903c0 .452-.193.71-.902 1.42l-1.739 1.807v.58h.064Zm6.506.13c1.224 0 1.933-1.033 1.933-2.775 0-1.678-.709-2.7746-1.933-2.7746-1.224 0-1.932 1.0326-1.932 2.7746s.708 2.775 1.932 2.775Zm0-.646c-.708 0-1.095-.774-1.095-2.065 0-1.29.387-2.064 1.095-2.064.709 0 1.095.774 1.095 2.064 0 1.226-.386 2.065-1.095 2.065Zm3.994-1.936c.709 0 1.159-.58 1.159-1.419 0-.903-.45-1.42-1.159-1.42-.709 0-1.159.581-1.159 1.42.064.903.45 1.419 1.159 1.419Zm.58 2.452 3.543-5.291h-.709l-3.543 5.291h.709Zm-.58-2.903c-.322 0-.515-.323-.515-.968 0-.581.193-.968.515-.968s.515.323.515.968c.065.581-.129.968-.515.968Zm3.994 2.968c.708 0 1.159-.581 1.159-1.42 0-.903-.451-1.419-1.159-1.419-.709 0-1.16.581-1.16 1.419 0 .904.451 1.42 1.16 1.42Zm0-.452c-.322 0-.516-.322-.516-.968 0-.58.194-.967.516-.967s.515.322.515.967c0 .581-.193.968-.515.968Zm4.702 1.743c.709-.904 1.031-2.065 1.031-3.42s-.322-2.517-1.031-3.4202h-.709c.516.7102.967 2.1292.967 3.4202 0 1.29-.387 2.71-.967 3.42h.709Z"/><path fill="#fff" stroke="#8C9196" d="M28.054 122.146c2.0634 0 3.7361-1.676 3.7361-3.743s-1.6727-3.742-3.7361-3.742c-2.0633 0-3.736 1.675-3.736 3.742s1.6727 3.743 3.736 3.743Z"/><path fill="#000" d="M37.1365 121.178h3.3495v-.71h-2.5121v-1.613h2.3833v-.71h-2.3833v-1.548h2.5121v-.71h-3.3495v5.291Zm5.5396 0h.8374l1.4171-3.936h-.8374l-.9662 3.162h-.0644l-.9662-3.162h-.8374l1.4171 3.936Zm4.5735.129c1.0306 0 1.5459-.581 1.6747-1.097v-.064h-.7729c-.0645.193-.3865.451-.9018.451-.6442 0-1.0951-.451-1.0951-1.226h2.8342v-.258c0-1.161-.7085-2-1.8036-2-1.095 0-1.8036.839-1.8036 2.065 0 1.29.7086 2.129 1.8681 2.129Zm-.0645-3.484c.5154 0 .9018.322.9663 1.032h-1.9969c.0644-.645.5153-1.032 1.0306-1.032Zm2.7055 3.355h.7729v-2.387c0-.581.3865-.968 1.0307-.968.1288 0 .2576 0 .4509.064v-.71c-.0645 0-.1933-.064-.3221-.064-.5153 0-.9018.258-1.0306.645h-.0645v-.581h-.8373v4.001Zm3.4139 1.42c.773 0 1.2239-.323 1.546-1.226l1.4815-4.13h-.8374l-.9662 3.162h-.1288l-.9662-3.162h-.8374l1.4171 3.936-.0644.194c-.1289.387-.3221.58-.7086.58h-.2576v.646h.322Zm5.8617-1.42h3.5428v-.71h-2.4477v-.064l1.095-1.097c.9663-.968 1.2239-1.42 1.2239-2.001 0-.838-.7085-1.484-1.6748-1.484-1.0306 0-1.8036.71-1.8036 1.614h.773c0-.581.3865-.968.9662-.968.5798 0 .9018.387.9018.903 0 .452-.1932.71-.9018 1.42l-1.7392 1.806v.581h.0644Zm7.4077 0h.8374l.8374-2.968h.0644l.8374 2.968h.8374l1.095-3.936H70.31l-.7086 3.033h-.0644l-.8374-3.033h-.773l-.8374 3.033h-.0644l-.7085-3.033h-.773l1.0306 3.936Zm6.6991.129c1.0307 0 1.546-.581 1.6748-1.097v-.064h-.773c-.0644.193-.3865.451-.9018.451-.6441 0-1.095-.451-1.095-1.226h2.8342v-.258c0-1.161-.7085-2-1.8036-2-1.095 0-1.8036.839-1.8036 2.065.0644 1.29.7086 2.129 1.868 2.129Zm0-3.484c.5153 0 .9018.322.9663 1.032h-1.9969c.0644-.645.4509-1.032 1.0306-1.032Zm4.3802 3.484c1.0307 0 1.546-.581 1.6748-1.097v-.064h-.773c-.0644.193-.3865.451-.9018.451-.6441 0-1.095-.451-1.095-1.226h2.8342v-.258c0-1.161-.7085-2-1.8036-2-1.095 0-1.8036.839-1.8036 2.065 0 1.29.7086 2.129 1.868 2.129Zm-.0644-3.484c.5153 0 .9018.322.9662 1.032h-1.9968c.1288-.645.5153-1.032 1.0306-1.032Zm2.7698 3.355h.773v-1.42l.3221-.322 1.3527 1.807h.9662l-1.7392-2.323 1.6748-1.678h-.9018l-1.546 1.678h-.0644v-3.227h-.773v5.485h-.0644Zm5.4753.129c.9662 0 1.6103-.516 1.6103-1.226 0-.581-.3864-.903-1.095-1.097l-.6442-.129c-.4509-.129-.6441-.258-.6441-.516 0-.323.3221-.516.773-.516s.7085.193.7729.516h.773c-.0644-.645-.6441-1.097-1.5459-1.097s-1.546.516-1.546 1.161c0 .581.3221.904 1.0951 1.097l.6441.129c.4509.129.6442.258.6442.517 0 .322-.3221.516-.8374.516-.4509 0-.773-.194-.8374-.516h-.773c.0644.709.6442 1.161 1.6104 1.161Z"/><path fill="#5C5F62" d="M91.76 122.533h.7086c-.5153-.71-.9662-2.129-.9662-3.42 0-1.29.3864-2.71.9662-3.42H91.76c-.7086.904-1.0306 2.065-1.0306 3.42s.322 2.452 1.0306 3.42Zm3.5428-1.226c1.2239 0 1.9969-.645 1.9969-1.613 0-.774-.4509-1.226-1.546-1.484l-.5797-.129c-.7086-.129-.9662-.387-.9662-.775 0-.516.4509-.774 1.095-.774.6442 0 1.0306.323 1.0951.71v.064h.7729v-.064c-.0644-.839-.7729-1.42-1.9324-1.42-1.0951 0-1.9324.646-1.9324 1.549 0 .774.4509 1.291 1.5459 1.484l.5797.129c.7086.129.9663.387.9663.839 0 .516-.451.839-1.1595.839-.7086 0-1.2239-.323-1.2239-.775v-.064h-.773v.064c.1289.839.9018 1.42 2.0613 1.42Zm2.7054-.129h.8374l.4509-1.42h1.9965l.451 1.42h.838l-1.868-5.291h-.9022l-1.8036 5.291Zm2.2548-4.323.837 2.258h-1.5458l.7088-2.258Zm4.315 4.323h.902l1.868-5.291h-.901l-1.418 4.259h-.064l-1.417-4.259h-.838l1.868 5.291Zm3.672 0h3.35v-.71h-2.512v-1.613h2.383v-.71h-2.383v-1.548h2.512v-.71h-3.35v5.291Zm7.794 0h.838v-5.291h-.838l-1.417.968v.774l1.353-.968h.064v4.517Zm4.123.129c1.095 0 1.868-.774 1.868-1.807 0-1.032-.709-1.742-1.675-1.742-.515 0-.902.194-1.095.581h-.064l.128-1.678h2.448v-.71h-3.027l-.258 3.033h.709c.064-.129.128-.193.257-.322.194-.194.451-.259.773-.259.644 0 1.095.452 1.095 1.097 0 .646-.451 1.097-1.095 1.097-.579 0-.966-.387-1.095-.839h-.773v.065c0 .839.773 1.484 1.804 1.484Zm3.929-2.581c.709 0 1.16-.581 1.16-1.42 0-.903-.451-1.419-1.16-1.419-.708 0-1.159.581-1.159 1.419.064.904.451 1.42 1.159 1.42Zm.58 2.452 3.543-5.291h-.709l-3.543 5.291h.709Zm-.58-2.904c-.322 0-.515-.322-.515-.968 0-.58.193-.967.515-.967s.515.322.515.967c.065.581-.128.968-.515.968Zm3.994 3.033c.708 0 1.159-.581 1.159-1.42 0-.903-.451-1.419-1.159-1.419-.709 0-1.16.581-1.16 1.419 0 .839.451 1.42 1.16 1.42Zm0-.516c-.322 0-.515-.323-.515-.968 0-.581.193-.968.515-.968s.515.323.515.968c0 .581-.193.968-.515.968Zm2.641 1.742c.708-.903 1.03-2.065 1.03-3.42s-.322-2.516-1.03-3.42h-.709c.516.71.966 2.13.966 3.42 0 1.291-.386 2.71-.966 3.42h.709Z"/><path stroke="#C9CCCF" d="M225.613 20.0669H1.25757V132.212H225.613V20.0669Z"/><path fill="#C9CCCF" d="M226 52H1v1h225v-1Z"/><path fill="#686F6C" d="M4.09184 151.763c1.54595 0 2.51217-.774 2.51217-2.065 0-.968-.57973-1.548-1.93244-1.806l-.70856-.13c-.83739-.193-1.22387-.516-1.22387-.967 0-.646.57973-.968 1.3527-.968s1.28829.387 1.41712.903v.065h.96622v-.065c-.06442-1.032-.96622-1.807-2.38334-1.807-1.41712 0-2.38334.775-2.38334 1.936 0 .968.57973 1.613 1.93244 1.871l.70856.129c.9018.194 1.22387.517 1.22387 1.033 0 .581-.57973 1.032-1.41711 1.032-.90181 0-1.48154-.387-1.54595-.968v-.064H1.51526v.064c.12883 1.033 1.09505 1.807 2.57658 1.807Zm5.34641-.064c.70855 0 1.22385-.323 1.48155-.839h.0644v.774h.9662v-4.968h-.9662v2.903c0 .774-.4509 1.291-1.22388 1.291-.70856 0-1.03063-.387-1.03063-1.226v-2.968h-.96622v3.226c0 1.097.57973 1.807 1.67478 1.807Zm6.57025-.065c1.2239 0 2.0613-.968 2.0613-2.581 0-1.549-.773-2.581-2.0613-2.581-.7085 0-1.2883.323-1.5459.903v-2.71h-.9662v6.904h.9662v-.774h.0644c.2577.516.8374.839 1.4815.839Zm-.2576-.839c-.8374 0-1.3527-.645-1.3527-1.742 0-1.032.5153-1.742 1.3527-1.742s1.3527.645 1.3527 1.742-.5153 1.742-1.3527 1.742Zm5.282.904c1.1594 0 2.0612-.646 2.0612-1.549 0-.71-.4509-1.097-1.4171-1.355l-.773-.194c-.5797-.129-.7729-.322-.7729-.645 0-.387.3864-.645.9018-.645.5797 0 .9018.258 1.0306.581h.9662c-.0644-.839-.8374-1.356-1.9324-1.356-1.0951 0-1.9325.646-1.9325 1.485 0 .709.4509 1.161 1.3527 1.355l.773.193c.5798.129.8374.323.8374.645 0 .388-.4509.71-1.0306.71-.5798 0-.9662-.258-1.0951-.645h-.9662c.0644.839.8374 1.42 1.9969 1.42Zm5.3464 0c1.2238 0 1.9324-.646 2.1257-1.614v-.064h-.9663c-.1288.516-.5153.839-1.1594.839-.8374 0-1.3527-.646-1.3527-1.742 0-1.097.5153-1.743 1.3527-1.743.6441 0 1.0306.387 1.1594.839h.9663c-.1289-.968-.9019-1.678-2.1257-1.678-1.4171 0-2.319.968-2.319 2.582 0 1.548.9019 2.581 2.319 2.581Zm3.2207-.13h.9662v-2.968c0-.709.5153-1.161 1.2883-1.161.1933 0 .3865 0 .5153.064v-.903c-.1288 0-.2576-.065-.4509-.065-.6441 0-1.095.323-1.2883.839h-.0644v-.774H29.6v4.968Zm4.2514-5.807c.322 0 .6441-.258.6441-.645 0-.323-.2577-.645-.6441-.645-.3221 0-.6442.258-.6442.645.0644.323.3221.645.6442.645Zm-.5154 5.807h.9663v-4.968h-.9663v4.968Zm2.4478 1.678h.9662v-2.452h.0644c.2577.516.8374.839 1.546.839 1.2883 0 2.0612-.968 2.0612-2.581 0-1.549-.7729-2.581-2.0612-2.581-.7086 0-1.2239.323-1.546.839H36.75v-.775h-.9662v6.711Zm2.3189-2.452c-.8374 0-1.3527-.645-1.3527-1.742 0-1.032.5153-1.742 1.3527-1.742s1.3527.645 1.3527 1.742c-.0644 1.097-.5153 1.742-1.3527 1.742Zm5.3464.839c.1933 0 .3865 0 .5153-.065v-.774h-.3864c-.5154 0-.7086-.193-.7086-.774v-2.646H43.9v-.774h-1.0306v-1.226h-1.0306v1.226h-.773v.774h.773v2.839c.1288 1.033.5797 1.42 1.6103 1.42Zm2.2545-5.872c.3221 0 .6442-.258.6442-.645 0-.323-.2577-.645-.6442-.645-.322 0-.6441.258-.6441.645 0 .323.2576.645.6441.645Zm-.5153 5.807h.9662v-4.968h-.9662v4.968Zm4.509.13c1.4172 0 2.319-.968 2.319-2.581 0-1.614-.9018-2.582-2.319-2.582-1.4171 0-2.3189.968-2.3189 2.582 0 1.613.9018 2.581 2.3189 2.581Zm0-.839c-.8374 0-1.3527-.646-1.3527-1.742 0-1.097.4509-1.743 1.3527-1.743.8374 0 1.3527.646 1.3527 1.743 0 1.096-.5153 1.742-1.3527 1.742Zm3.5428.709h.9663v-2.903c0-.774.4509-1.291 1.1594-1.291.7086 0 1.0951.387 1.0951 1.226v2.968h.9662v-3.226c0-1.161-.5797-1.871-1.7392-1.871-.7086 0-1.2239.323-1.4171.839h-.0644v-.775h-.9663v5.033Zm9.9199.065c.7085 0 1.2239-.323 1.5459-.839h.0644v.774h.9663v-6.904h-.9663v2.71h-.0644c-.2576-.516-.8374-.903-1.5459-.903-1.2883 0-2.0613.968-2.0613 2.581s.8374 2.581 2.0613 2.581Zm.322-.839c-.8373 0-1.3527-.645-1.3527-1.742 0-1.032.5154-1.742 1.3527-1.742.8374 0 1.3528.645 1.3528 1.742-.0645 1.097-.5798 1.742-1.3528 1.742Zm5.7974.904c1.2882 0 1.9324-.71 2.1256-1.356v-.064h-.9662v.064c-.1288.259-.5153.581-1.1594.581-.8374 0-1.3527-.581-1.3527-1.484h3.4783v-.322c0-1.485-.8374-2.517-2.2545-2.517s-2.2545 1.032-2.2545 2.581c.0644 1.484.9662 2.517 2.3834 2.517Zm0-4.388c.6441 0 1.1594.451 1.2238 1.29h-2.5121c.0644-.774.5797-1.29 1.2883-1.29Zm5.2175 4.323c.1933 0 .3865 0 .5154-.065v-.774h-.3865c-.5153 0-.7086-.193-.7086-.774v-2.646h1.0306v-.774h-1.0306v-1.226h-1.0306v1.226h-.773v.774h.773v2.839c.1288 1.033.5153 1.42 1.6103 1.42Zm3.0919 0c.6442 0 1.1595-.258 1.4816-.774h.0644v.709h.9662v-3.419c0-1.033-.7086-1.678-1.9324-1.678-1.0951 0-1.9325.516-1.9969 1.355h.9662c.1289-.323.4509-.581 1.0307-.581.6441 0 1.0306.323 1.0306.839v.452l-1.3527.064c-1.1595.065-1.868.581-1.868 1.484-.0644.968.6441 1.549 1.6103 1.549Zm-.7085-1.484c0-.452.322-.71.9662-.774l1.2239-.065v.452c0 .645-.5153 1.097-1.2883 1.097-.5153 0-.9018-.258-.9018-.71Zm5.0887-4.388c.3221 0 .6442-.258.6442-.645 0-.323-.2577-.645-.6442-.645-.3221 0-.6441.258-.6441.645.0644.323.322.645.6441.645Zm-.4509 5.807h.9662v-4.968h-.9662v4.968Zm2.4478 0h.9662v-6.904h-.9662v6.904Zm4.2513.13c1.1595 0 2.0613-.646 2.0613-1.549 0-.71-.4509-1.097-1.4171-1.355l-.773-.194c-.5797-.129-.773-.322-.773-.645 0-.387.3865-.645.9018-.645.5798 0 .9018.258 1.0307.581h.9662c-.0644-.839-.8374-1.356-1.9324-1.356-1.0951 0-1.9325.646-1.9325 1.485 0 .709.4509 1.161 1.3527 1.355l.773.193c.5797.129.8374.323.8374.645 0 .388-.4509.71-1.0306.71-.5798 0-.9663-.258-1.0951-.645h-.9662c.0644.839.8374 1.42 1.9968 1.42Z"/><path stroke="#5C5F62" stroke-miterlimit="10" d="M95.6893 148.279c0-2.065 1.6748-3.743 3.7361-3.743 2.0616 0 3.7356 1.678 3.7356 3.743 0 2.064-1.674 3.742-3.7356 3.742-2.0613 0-3.7361-1.678-3.7361-3.742Z"/><path fill="#5C5F62" d="M99.9407 149.698c0 .258-.1933.452-.4509.452-.2577 0-.4509-.194-.4509-.452v-.903c0-.258.1932-.452.4509-.452.2576 0 .4509.194.4509.452v.903ZM99.4254 147.375c.249 0 .4509-.202.4509-.452 0-.249-.2019-.451-.4509-.451-.249 0-.4509.202-.4509.451 0 .25.2019.452.4509.452Z"/><path fill="#202223" d="M2.1 8.9h1v-3h2.1c1.6 0 2.7-1.1 2.7-2.7S6.8.5 5.2.5H2v8.4h.1ZM5 1.4c1.2 0 1.9.7 1.9 1.8S6.2 5 5 5H3.2V1.5H5v-.1ZM11.7 9c.9 0 1.6-.4 1.9-1v.9h1V2.6h-1v3.7c0 1.1-.6 1.8-1.7 1.8-1 0-1.4-.5-1.4-1.7V2.6h-1v4.1c0 1.4.7 2.3 2.2 2.3Zm4.8-.1h1V5c0-.9.7-1.5 1.7-1.5.2 0 .4 0 .6.1v-1h-.5c-.8 0-1.4.4-1.7 1h-.1v-.9h-1v6.2Zm6.9.1c1.5 0 2.3-.8 2.6-1.9V7h-1c-.2.7-.8 1.1-1.6 1.1-1.1 0-1.8-.9-1.8-2.4 0-1.4.7-2.3 1.8-2.3.9 0 1.5.5 1.6 1.1h1c-.2-1.1-1.1-2-2.6-2-1.8 0-2.9 1.3-2.9 3.2.1 2 1.2 3.3 2.9 3.3Zm4.2-.1h1V5.2c0-1.1.6-1.8 1.6-1.8s1.5.5 1.5 1.7v3.8h1V4.8c0-1.5-.8-2.3-2.2-2.3-.9 0-1.5.4-1.8 1.1h-.1V.200005h-1V8.9Zm8.7.1c.8 0 1.5-.4 1.9-1h.1v.9h1V4.6c0-1.3-.9-2.1-2.4-2.1-1.3 0-2.3.7-2.5 1.6h1c.2-.5.7-.8 1.4-.8.9 0 1.4.4 1.4 1.2v.6l-1.8.1c-1.5.1-2.3.7-2.3 1.8.1 1.3 1 2 2.2 2Zm-1.1-1.9c0-.6.4-1 1.4-1l1.7-.1v.6c0 .9-.8 1.6-1.8 1.6-.8-.1-1.3-.5-1.3-1.1ZM43.3 9c1.4 0 2.5-.8 2.5-1.9 0-.9-.6-1.4-1.8-1.7l-1-.2c-.7-.2-1.1-.4-1.1-.9 0-.6.5-.9 1.3-.9s1.2.3 1.4.8h1c-.1-1-1.1-1.7-2.4-1.7-1.3 0-2.3.8-2.3 1.8 0 .9.5 1.4 1.7 1.7l1 .2c.8.2 1.1.5 1.1.9 0 .6-.6 1-1.4 1-.8 0-1.3-.3-1.5-.9h-1c.1 1.1 1.1 1.8 2.5 1.8Zm6.6 0c1.5 0 2.4-.8 2.6-1.7h-1v.1c-.2.4-.7.8-1.5.8-1.1 0-1.8-.8-1.9-2.1h4.5v-.4c0-1.9-1-3.1-2.7-3.1-1.7 0-2.8 1.3-2.8 3.3-.1 1.8 1 3.1 2.8 3.1Zm-.1-5.6c.9 0 1.6.6 1.7 1.8H48c.2-1.2.9-1.8 1.8-1.8ZM60.1 9C61.9 9 63 7.8 63 5.8s-1.1-3.2-2.9-3.2c-1.8 0-2.9 1.2-2.9 3.2 0 1.9 1.1 3.2 2.9 3.2Zm0-.9c-1.2 0-1.9-.9-1.9-2.3 0-1.5.7-2.3 1.9-2.3s1.9.9 1.9 2.3c-.1 1.4-.7 2.3-1.9 2.3Zm4.4 2.9h1V7.9h.1c.3.7 1.1 1.1 2 1.1 1.6 0 2.6-1.3 2.6-3.2 0-2-1-3.2-2.6-3.2-.9 0-1.6.4-2 1.1h-.1v-1h-1V11Zm2.9-2.9c-1.1 0-1.8-.9-1.8-2.3s.7-2.3 1.8-2.3 1.8.9 1.8 2.3-.7 2.3-1.8 2.3Zm6.6.8c.2 0 .4 0 .6-.1v-.9h-.5c-.7 0-.9-.3-.9-1V3.4h1.4v-.8h-1.4V1h-1v1.6h-1v.8h1v3.8c0 1.2.5 1.7 1.8 1.7Zm2.7-7.5c.4 0 .7-.3.7-.699995C77.4.300005 77.1 0 76.7 0c-.4 0-.7.300005-.7.700005C76 1.1 76.3 1.4 76.7 1.4Zm-.6 7.5h1V2.6h-1v6.3Zm5.5.1c1.8 0 2.9-1.2 2.9-3.2s-1.1-3.2-2.9-3.2c-1.8 0-2.9 1.2-2.9 3.2.1 1.9 1.2 3.2 2.9 3.2Zm0-.9c-1.2 0-1.9-.9-1.9-2.3 0-1.5.7-2.3 1.9-2.3s1.9.9 1.9 2.3-.7 2.3-1.9 2.3Zm4.5.8h1V5.2c0-1.1.6-1.8 1.6-1.8s1.5.5 1.5 1.7v3.8h1V4.8c0-1.5-.8-2.3-2.2-2.3-.9 0-1.5.4-1.8 1.1h-.1v-.9h-1v6.2Zm9.1.1c1.4 0 2.5-.8 2.5-1.9 0-.9-.6-1.4-1.8-1.7l-1-.2c-.7-.2-1.1-.4-1.1-.9 0-.6.5-.9 1.3-.9s1.2.3 1.4.8h1c-.1-1-1.1-1.7-2.4-1.7-1.3 0-2.3.8-2.3 1.8 0 .9.5 1.4 1.7 1.7l1 .2c.8.2 1.1.5 1.1.9 0 .6-.6 1-1.4 1-.8 0-1.3-.3-1.5-.9h-1c.2 1.1 1.1 1.8 2.5 1.8Z"/></svg>