<svg xmlns="http://www.w3.org/2000/svg" width="232" height="187" fill="none"><path fill="#fff" stroke="#8C9196" d="M16.6 44.8002c2.651 0 4.8001-2.149 4.8001-4.8s-2.1491-4.8-4.8001-4.8c-2.6509 0-4.8 2.149-4.8 4.8s2.1491 4.8 4.8 4.8Z"/><path fill="#202223" d="M31.2001 36.6999c1 0 1.8.3 2.3 1 .6.6.8 1.5.8 2.6s-.3 2-.8 2.6c-.6.6-1.3 1-2.3 1-1 0-1.8-.3-2.3-1-.6-.6-.8-1.5-.8-2.6s.3-2 .9-2.6c.5-.7 1.2-1 2.2-1Zm0 1c-.6 0-1.2.2-1.5.7-.4.5-.6 1.1-.6 1.9 0 .8.2 1.4.6 1.9.4.5.9.7 1.5.7s1.2-.2 1.5-.7c.4-.5.6-1.1.6-1.9 0-.8-.2-1.4-.6-1.9-.3-.5-.8-.7-1.5-.7Zm4.5 6v-5.1h1v.8h.1c.3-.6.8-.9 1.5-.9.6 0 1 .2 1.3.5.3.3.5.8.5 1.4v3.3h-1v-3.1c0-.8-.4-1.2-1.1-1.2-.4 0-.7.1-.9.4-.2.2-.3.5-.3.9v3h-1.1Zm8.8-4c-.2-.2-.5-.4-.9-.4s-.7.1-.9.4c-.2.2-.4.6-.4 1h2.6c0-.5-.2-.8-.4-1Zm.4 2.6h1c-.1.5-.4.8-.8 1.1-.4.3-.9.4-1.5.4-.7 0-1.3-.2-1.7-.7-.4-.5-.6-1.1-.6-1.9 0-.8.2-1.5.6-2 .4-.5 1-.7 1.7-.7s1.3.2 1.7.7c.4.5.6 1.1.6 1.9v.4h-3.6v.1c0 .5.1.8.4 1.1.2.3.6.4 1 .4.6-.2 1-.4 1.2-.8Zm5.3-.9h-3.1v-1h3.1v1Zm3.8 2.3h-1.1v-5.8h-2.1v-1h5.3v1h-2.1v5.8Zm3.2 0v-5.1h1v5.1h-1Zm1-6.3c-.1.1-.3.2-.5.2s-.3-.1-.5-.2c-.1-.1-.2-.3-.2-.4 0-.2.1-.3.2-.4.1-.1.3-.2.5-.2s.3.1.5.2c.1.1.2.3.2.4 0 .2-.1.3-.2.4Zm1.5 6.3v-5.1h1v.8h.1c.1-.3.3-.5.5-.7.3-.2.5-.2.9-.2.3 0 .6.1.9.2.2.2.4.4.5.7h.1c.1-.3.3-.5.6-.7.3-.2.6-.3.9-.3.5 0 .9.1 1.2.4.3.3.4.7.4 1.3v3.5h-1v-3.3c0-.7-.3-1-1-1-.3 0-.6.1-.8.3-.2.2-.3.5-.3.8v3.2h-1v-3.4c0-.3-.1-.5-.3-.7-.2-.2-.4-.3-.7-.3-.3 0-.6.1-.8.3-.2.2-.3.5-.3.8v3.1h-.9v.3Zm11.7-4c-.2-.2-.5-.4-.9-.4s-.7.1-.9.4c-.2.2-.4.6-.4 1h2.6c-.1-.5-.2-.8-.4-1Zm.3 2.6h1c-.1.5-.4.8-.8 1.1-.4.3-.9.4-1.5.4-.7 0-1.3-.2-1.7-.7-.4-.5-.6-1.1-.6-1.9 0-.8.2-1.5.6-2 .4-.5 1-.7 1.7-.7s1.3.2 1.7.7c.4.5.6 1.1.6 1.9v.4h-3.6v.1c0 .5.1.8.4 1.1.2.3.6.4 1 .4.6-.2 1-.4 1.2-.8Zm5-5.4h2.7c.7 0 1.2.2 1.6.6.4.4.6 1 .6 1.6 0 .7-.2 1.2-.6 1.6-.4.4-1 .6-1.6.6h-1.6v2.3h-1.1v-6.7Zm1.1.9v2.7h1.3c.5 0 .8-.1 1.1-.3.3-.2.4-.6.4-1s-.1-.8-.4-1c-.2-.2-.6-.3-1.1-.3h-1.3v-.1Zm9.4.7v5.1h-1v-.8h-.1c-.3.6-.8.9-1.6.9-.6 0-1-.2-1.3-.5-.3-.3-.5-.8-.5-1.4v-3.3h1v3.1c0 .4.1.7.3.9.2.2.5.3.8.3.4 0 .7-.1.9-.3.2-.2.3-.5.3-1v-3h1.2Zm1.5 5.2v-5.1h1v.8h.1c.1-.3.2-.5.5-.6.3-.2.6-.2.9-.2h.5v1c-.1 0-.3-.1-.6-.1-.4 0-.7.1-.9.3-.2.2-.4.5-.4.9v3h-1.1Zm8.1-3.5h-1c-.1-.3-.2-.5-.4-.6-.2-.2-.5-.2-.8-.2-.4 0-.8.2-1 .5-.2.3-.4.7-.4 1.3 0 .6.1 1 .4 1.3.2.3.6.5 1 .5.3 0 .6-.1.8-.2.2-.1.3-.4.4-.6h1c-.1.5-.3 1-.7 1.3-.4.3-.9.5-1.5.5-.7 0-1.3-.2-1.8-.7-.4-.5-.6-1.1-.6-2 0-.8.2-1.5.6-1.9.4-.5 1-.7 1.8-.7.6 0 1.1.2 1.5.5.4 0 .6.5.7 1Zm1.2 3.5v-7.1h1v2.8h.1c.1-.3.3-.5.6-.7.2999-.2.5999-.2.9999-.2.6 0 1 .2 1.3.5.3.3.5.8.5 1.4v3.3h-1v-3.1c0-.4-.1-.7-.3-.9-.2-.2-.5-.3-.8-.3-.4 0-.6999.1-.9999.4-.2.2-.3.6-.3.9v3h-1.1Zm7.4999-.8c.4 0 .7-.1.9-.3.3-.2.4-.5.4-.8v-.4l-1.3.1c-.4 0-.6.1-.8.2-.2.1-.3.3-.3.5s.1.4.3.5c.3.1.6.2.8.2Zm-.2.8c-.5 0-.9-.1-1.2-.4-.3-.3-.5-.7-.5-1.1 0-.5.2-.8.5-1.1.3-.3.8-.4 1.4-.5l1.4-.1v-.4c0-.3-.1-.5-.3-.6-.2-.1-.4-.2-.8-.2-.3 0-.5.1-.7.2-.2.1-.3.2-.4.4h-1c.1-.4.3-.8.6-1.1.4-.3.9-.4 1.5-.4s1.1.2 1.5.5c.4.3.5.7.5 1.3v3.5h-1v-.7h-.1c-.2.3-.4.5-.6.6-.2.1-.5.1-.8.1Zm3.9-3.7c0-.5.2-.8.6-1.1.4-.3.9-.4 1.4-.4.6 0 1 .1 1.4.4.4.3.6.6.6 1.1h-1c0-.2-.2-.3-.3-.5-.2-.1-.4-.2-.7-.2-.3 0-.5.1-.7.2-.2.1-.3.3-.3.5s.1.3.2.4c.1.1.3.2.6.2l.9.2c.5.1.9.3 1.1.5.2.2.3.5.3.9 0 .5-.2.9-.6 1.2-.4.3-.9.4-1.5.4s-1.1-.1-1.5-.4c-.4-.3-.6-.6-.6-1.1h1c.1.2.2.4.4.5.2.1.4.2.7.2.3 0 .6-.1.8-.2.2-.1.3-.3.3-.5 0-.3-.3-.5-.8-.6l-.9-.2c-.5-.1-.9-.3-1.1-.5-.2-.3-.3-.6-.3-1Zm8.3-.3c-.2-.2-.5-.4-.9-.4s-.7.1-.9.4c-.2.2-.4.6-.4 1h2.6c0-.5-.1-.8-.4-1Zm.4 2.6h1c-.1.5-.4.8-.8 1.1-.4.3-.9.4-1.5.4-.7 0-1.3-.2-1.7-.7-.4-.5-.6-1.1-.6-1.9 0-.8.2-1.5.6-2 .4-.5 1-.7 1.7-.7s1.3.2 1.7.7c.4.5.6 1.1.6 1.9v.4h-3.6v.1c0 .5.1.8.4 1.1.2.3.6.4 1 .4.6-.2 1-.4 1.2-.8Z"/><path fill="#5C5F62" d="M185.9 44.3h-.7v-.6c-.7 0-1.3-.2-1.7-.6-.4-.3-.6-.8-.6-1.4h1.2c0 .3.1.5.3.7.2.2.5.3.8.3v-2l-.5-.1c-.5-.1-1-.4-1.3-.7-.3-.3-.4-.7-.4-1.2 0-.6.2-1 .6-1.4.4-.4.9-.5 1.6-.6V36h.7v.7c.6.1 1.1.3 1.5.6.4.3.6.8.6 1.3h-1.1c0-.2-.1-.5-.3-.6-.2-.2-.4-.3-.7-.3v1.9l.5.1c.6.1 1 .4 1.3.7.3.3.4.7.4 1.2 0 .6-.2 1.1-.6 1.4-.4.3-.9.6-1.7.6v.7h.1Zm1.1-2.5c0-.3-.1-.5-.3-.6-.2-.2-.5-.3-.8-.3v1.9c.3 0 .6-.1.8-.3.2-.2.3-.4.3-.7Zm-2.7-3.1c0 .2.1.4.2.6.2.2.4.3.7.3v-1.8c-.3 0-.5.1-.7.3-.1.1-.2.3-.2.6Zm6.9 5v-5.6h-.1l-1.7 1.2v-1.2l1.8-1.2h1.2v6.8h-1.2Zm5.6.1c-.8 0-1.5-.3-1.9-.9-.5-.6-.7-1.5-.7-2.6s.2-2 .7-2.6c.5-.6 1.1-.9 1.9-.9.8 0 1.4.3 1.9.9.5.6.7 1.5.7 2.6s-.2 2-.7 2.6c-.4.6-1.1.9-1.9.9Zm-1-1.6c.2.4.6.7 1 .7s.8-.2 1-.7c.2-.4.4-1.1.4-1.9 0-.8-.1-1.5-.4-1.9-.2-.4-.6-.7-1-.7s-.8.2-1 .7c-.2.4-.4 1.1-.4 1.9.1.8.2 1.4.4 1.9Zm7.5 1.6c-.8 0-1.5-.3-1.9-.9-.5-.6-.7-1.5-.7-2.6s.2-2 .7-2.6c.5-.6 1.1-.9 1.9-.9.8 0 1.4.3 1.9.9.5.6.7 1.5.7 2.6s-.2 2-.7 2.6c-.5.6-1.1.9-1.9.9Zm-1-1.6c.2.4.6.7 1 .7s.8-.2 1-.7c.2-.4.4-1.1.4-1.9 0-.8-.1-1.5-.4-1.9-.2-.4-.6-.7-1-.7s-.8.2-1 .7c-.2.4-.4 1.1-.4 1.9 0 .8.1 1.4.4 1.9Zm5.3 1.6c-.2 0-.4-.1-.5-.2-.1-.1-.2-.3-.2-.5s.1-.4.2-.5c.1-.1.3-.2.5-.2s.4.1.5.2c.1.1.2.3.2.5s-.1.4-.2.5c-.1.1-.3.2-.5.2Zm4.4 0c-.8 0-1.5-.3-1.9-.9-.5-.6-.7-1.5-.7-2.6s.2-2 .7-2.6c.5-.6 1.1-.9 1.9-.9.8 0 1.4.3 1.9.9.5.6.7 1.5.7 2.6s-.2 2-.7 2.6c-.5.6-1.1.9-1.9.9Zm-1-1.6c.2.4.6.7 1 .7s.8-.2 1-.7c.2-.4.4-1.1.4-1.9 0-.8-.1-1.5-.4-1.9-.2-.4-.6-.7-1-.7s-.8.2-1 .7c-.2.4-.4 1.1-.4 1.9 0 .8.1 1.4.4 1.9Zm7.4 1.6c-.8 0-1.5-.3-1.9-.9-.5-.6-.7-1.5-.7-2.6s.2-2 .7-2.6c.5-.6 1.1-.9 1.9-.9.8 0 1.4.3 1.9.9.5.6.7 1.5.7 2.6s-.2 2-.7 2.6c-.4.6-1.1.9-1.9.9Zm-1-1.6c.2.4.6.7 1 .7s.8-.2 1-.7c.2-.4.4-1.1.4-1.9 0-.8-.1-1.5-.4-1.9-.2-.4-.6-.7-1-.7s-.8.2-1 .7c-.2.4-.4 1.1-.4 1.9.1.8.2 1.4.4 1.9Z"/><path fill="#008060" d="M17.8999 85.8999c1.6569 0 3-1.3431 3-3s-1.3431-3-3-3-3 1.3431-3 3 1.3431 3 3 3Z"/><path stroke="#008060" d="M17.9001 78.1001c2.7 0 4.8 2.2 4.8 4.8 0 2.7-2.2 4.8-4.8 4.8-2.7 0-4.8-2.2-4.8-4.8 0-2.6 2.1-4.8 4.8-4.8Z"/><path fill="#202223" d="M29.3 84.6998h1c0 .3.2.6.5.8.3.2.7001.3 1.1001.3.4 0 .7999-.1 1.0999-.3.3-.2.4001-.4.4001-.8 0-.3-.1001-.5-.3001-.6-.2-.2-.5-.3-1-.4l-.8999-.2c-.6-.1-1.1001-.4-1.4001-.7-.3-.3-.3999-.7-.3999-1.2 0-.6.1999-1.1.6999-1.5.5-.4 1.1001-.6 1.8001-.6s1.2999.2 1.6999.5c.5.4.7.8.7 1.4h-1c-.1-.3-.2-.6-.5-.7-.3-.2-.6-.3-1-.3s-.8.1-1 .3c-.3.2-.3999.4-.3999.7 0 .2.1.4.3.6.2.2.5.3 1 .4l.7999.2c.7.2 1.2.4 1.5.7.3.3.5.7.5 1.2 0 .7-.2 1.2-.7 1.5-.5.4-1.0999.6-1.8999.6-.8 0-1.4001-.2-1.8001-.5-.5-.3-.7-.8-.8-1.4Zm10.9001-3.3v5.1h-1v-.8H39.1c-.3.6-.8.9-1.6.9-.6 0-.9999-.2-1.2999-.5-.3-.3-.5-.8-.5-1.4v-3.3h1v3.1c0 .4.0999.7.2999.9.2.2.4.3.8.3s.7001-.1.9001-.3c.2-.2.2999-.5.2999-1v-3h1.2001Zm4.2 5.2c-.4 0-.7-.1-1-.2-.3-.2-.5-.4-.7-.7H42.6v.8h-1v-7.1h1v2.8h.1001c.1-.3.2999-.5.5999-.7.3-.2.6-.2 1-.2.7 0 1.2.2 1.5.7.4.5.6001 1.1.6001 1.9 0 .8-.2001 1.5-.6001 1.9-.3.6-.7999.8-1.3999.8Zm-.3001-4.4c-.4 0-.8.2-1 .5-.2.3-.3999.7-.3999 1.3 0 .5.0999 1 .3999 1.3.2.3.6.5 1 .5s.8-.2 1-.5c.2-.3.4-.7.4-1.3 0-.5-.1-1-.4-1.3-.3-.3-.6-.5-1-.5Zm3.5.7c0-.5.2001-.8.6001-1.1.3999-.3.8999-.4 1.3999-.4.6 0 1 .1 1.4.4.4.3.6.6.6 1.1h-1c0-.2-.2-.3-.3-.5-.2-.1-.4-.2-.7-.2-.3 0-.4999.1-.6999.2-.2.1-.3001.3-.3001.5s.1.3.2.4c.1.1.3001.2.6001.2l.8999.2c.5.1.9001.3 1.1001.5.2.2.2999.5.2999.9 0 .5-.2.9-.6 1.2-.4.3-.9.4-1.5.4s-1.1-.1-1.5-.4c-.4-.3-.6-.6-.6-1.1h1c.1.2.2001.4.4001.5.2.1.3999.2.6999.2s.6001-.1.8001-.2c.2-.1.3-.3.3-.5 0-.3-.3-.5-.8-.6l-.9001-.3c-.5-.1-.8999-.3-1.0999-.5-.2-.2-.3001-.5-.3001-.9Zm9.7001.2h-1c-.1-.3-.2-.5-.4-.6-.2-.2-.5001-.2-.8001-.2-.4 0-.8.2-1 .5-.2.3-.4.7-.4 1.3 0 .6.1 1 .4 1.3.2.3.6.5 1 .5.3 0 .6001-.1.8001-.2.2-.1.3-.4.4-.6h1c-.1.5-.3001 1-.7001 1.3-.4.3-.9.5-1.5.5-.7 0-1.2999-.2-1.7999-.7-.4-.5-.6001-1.1-.6001-2 0-.8.2001-1.5.6001-1.9.4-.5.9999-.7 1.7999-.7.6 0 1.1.2 1.5.5.4 0 .6001.5.7001 1Zm1.1 3.5v-5.1h1v.8H59.5c.1-.3.2001-.5.5-.6.3-.2.6001-.2.9001-.2h.5v1c-.1 0-.3-.1-.6-.1-.4 0-.7.1-.9.3-.2.2-.4001.5-.4001.9v3h-1.0999Zm3.9 0v-5.1h1v5.1h-1Zm1-6.3c-.1.1-.3.2-.5.2s-.3-.1-.5-.2c-.1-.1-.2001-.3-.2001-.4 0-.2.1001-.3.2001-.4.1-.1.3-.2.5-.2s.3.1.5.2c.1.1.1999.3.1999.4 0 .2-.0999.3-.1999.4Zm4.1999 1c.7001 0 1.2.2 1.6.7.4.5.6 1.1.6 1.9 0 .8-.2 1.5-.6 1.9-.4.5-.9.7-1.5.7-.4 0-.7-.1-1-.2-.3-.2-.5-.4-.6-.6h-.0999v2.5h-1v-6.8h1v.8H66c.2001-.3.4-.5.7-.7.1-.1.4-.2.8-.2Zm-.3 4.4c.4 0 .8-.2 1-.5.2-.3.4-.7.4-1.3 0-.6-.1-1-.4-1.3-.2-.3-.6-.5-1-.5s-.8.2-1 .5c-.2.3-.3999.7-.3999 1.3 0 .5.0999 1 .3999 1.3.2.4.6.5 1 .5Zm4-5.6h1v1.3h1.1001v.9H72.2v2.6c0 .3.1001.5.2001.6.0999.1.3.2.5999.2h.4001v.8c-.2 0-.4.1-.6.1-.6 0-1.0001-.1-1.2001-.3-.2-.2-.4-.6-.4-1.1v-2.9h-.7999v-.9H71.2v-1.3Zm3.3 6.5v-5.1h1v5.1h-1Zm1-6.3c-.0999.1-.2999.2-.5.2-.2 0-.2999-.1-.5-.2-.0999-.1-.1999-.3-.1999-.4 0-.2.1-.3.1999-.4.1-.1.3-.2.5-.2.2001 0 .3.1.5.2.1.1.2.3.2.4 0 .2-.1.3-.2.4Zm3.7 6.4c-.8 0-1.2999-.2-1.7999-.7-.4001-.5-.6-1.1-.6-2 0-.8.1999-1.5.6-2 .4-.5.9999-.7 1.7999-.7.7 0 1.3.2 1.8.7.4001.5.7 1.1.7 2 0 .8-.2 1.5-.6 2-.5.4-1.1.7-1.9.7Zm0-.9c.4 0 .8-.2 1-.5.2-.3.4-.7.4-1.3 0-.6-.1-1-.4-1.3-.2-.3-.6-.5-1-.5s-.8.2-1 .5c-.2.3-.3999.7-.3999 1.3 0 .6.0999 1 .3999 1.3.2.3.6.5 1 .5Zm3.7001.8v-5.1h1v.8H84c.3-.6.8-.9 1.5-.9.6 0 1.0001.2 1.3001.5.3.3.5.8.5 1.4v3.3h-1v-3.1c0-.8-.4001-1.2-1.1001-1.2-.4 0-.6999.1-.8999.4-.2.2-.3001.5-.3001.9v3h-1.0999Zm10.0999-.8c.4 0 .7001-.1.9001-.3.3-.2.3999-.5.3999-.8v-.4l-1.3.1c-.4 0-.6.1-.8.2-.2.1-.2999.3-.2999.5s.0999.4.2999.5c.3.1.5001.2.8.2Zm-.3.8c-.5 0-.9-.1-1.2-.4-.2999-.3-.5-.7-.5-1.1 0-.5.2001-.8.5-1.1.3-.3.8001-.4 1.4001-.5l1.3999-.1v-.4c0-.3-.1-.5-.3-.6-.2-.1-.4-.2-.8-.2-.3 0-.4999.1-.7.2-.2.1-.3.2-.4.4h-1c.1-.4.3-.8.6-1.1.4-.3.9-.4 1.5-.4s1.1.2 1.5.5c.4.3.5.7.5 1.3v3.5h-1v-.7h-.0999c-.2.3-.4001.5-.6001.6-.1.1-.4.1-.8.1Zm4.1 0v-5.1h1v.8h.1001c.3-.6.8-.9 1.5-.9.5999 0 .9999.2 1.2999.5.3.3.5.8.5 1.4v3.3h-1v-3.1c0-.8-.4-1.2-1.0999-1.2-.4 0-.7001.1-.9001.4-.2.2-.2999.5-.2999.9v3H96.8Zm7.6 0c-.7 0-1.2-.2-1.6-.7-.4-.5-.6-1.1-.6-1.9 0-.8.2-1.5.6-1.9.4-.5.9-.7 1.6-.7.4 0 .7.1.9.2.3.2.5.4.6.7h.1v-2.8h1v7.1h-1v-.8c-.2.3-.4.5-.7.7-.2.1-.5.1-.9.1Zm.3-4.4c-.4 0-.8.2-1 .5-.2.3-.4.7-.4 1.3 0 .5.1 1 .4 1.3.2.3.6.5 1 .5s.8-.2 1-.5c.2-.3.4-.7.4-1.3 0-.5-.1-1-.4-1.3-.2-.3-.6-.5-1-.5Zm6.5.7c0-.5.2-.8.6-1.1.4-.3.9-.4 1.4-.4.6 0 1 .1 1.4.4.4.3.6.6.6 1.1h-1c0-.2-.2-.3-.3-.5-.2-.1-.4-.2-.7-.2-.3 0-.5.1-.7.2-.2.1-.3.3-.3.5s.1.3.2.4c.1.1.3.2.6.2l.9.2c.5.1.9.3 1.1.5.2.2.3.5.3.9 0 .5-.2.9-.6 1.2-.4.3-.9.4-1.5.4s-1.1-.1-1.5-.4c-.4-.3-.6-.6-.6-1.1h1c.1.2.2.4.4.5.2.1.4.2.7.2.3 0 .6-.1.8-.2.2-.1.3-.3.3-.5 0-.3-.3-.5-.8-.6l-.9-.2c-.5-.1-.9-.3-1.1-.5-.2-.3-.3-.6-.3-1Zm7 2.9c.4 0 .7-.1.9-.3.3-.2.4-.5.4-.8v-.4l-1.3.1c-.4 0-.6.1-.8.2-.2.1-.3.3-.3.5s.1.4.3.5c.2.1.5.2.8.2Zm-.3.8c-.5 0-.9-.1-1.2-.4-.3-.3-.5-.7-.5-1.1 0-.5.2-.8.5-1.1.3-.3.8-.4 1.4-.5l1.4-.1v-.4c0-.3-.1-.5-.3-.6-.2-.1-.4-.2-.8-.2-.3 0-.5.1-.7.2-.2.1-.3.2-.4.4h-1c.1-.4.3-.8.6-1.1.4-.3.9-.4 1.5-.4s1.1.2 1.5.5c.4.3.5.7.5 1.3v3.5h-1v-.7h-.1c-.2.3-.4.5-.6.6-.2.1-.5.1-.8.1Zm8.2-5.2-1.8 5.1h-1.1l-1.9-5.1h1.1l1.3 4.1h.1l1.3-4.1h1Zm3.9 1.1c-.2-.2-.5-.4-.9-.4s-.7.1-.9.4c-.2.2-.4.6-.4 1h2.6c-.1-.4-.2-.7-.4-1Zm.3 2.7h1c-.1.5-.4.8-.8 1.1-.4.3-.9.4-1.5.4-.7 0-1.3-.2-1.7-.7-.4-.5-.6-1.1-.6-1.9 0-.8.2-1.5.6-2 .4-.5 1-.7 1.7-.7s1.3.2 1.7.7c.4.5.6 1.1.6 1.9v.4h-3.6v.1c0 .5.1.8.4 1.1.2.3.6.4 1 .4.6-.2 1-.4 1.2-.8Z"/><path fill="#5C5F62" d="M189.9 87.2h-.7v-.6c-.7 0-1.3-.2-1.7-.6-.4-.3-.6-.8-.6-1.4h1.2c0 .3.1.5.3.7.2.2.5.3.8.3v-2l-.5-.1c-.5-.1-1-.4-1.3-.7-.3-.3-.4-.7-.4-1.2 0-.6.2-1 .6-1.4.4-.3.9-.5 1.6-.6V79h.7v.7c.6.1 1.1.3 1.5.6.4.3.6.8.6 1.3h-1.1c0-.2-.1-.5-.3-.6-.2-.2-.4-.3-.7-.3v1.9l.5.1c.6.1 1 .4 1.3.7.3.3.4.7.4 1.2 0 .6-.2 1.1-.6 1.4-.4.3-.9.6-1.7.6v.6h.1Zm1.1-2.5c0-.3-.1-.5-.3-.6-.2-.2-.5-.3-.8-.3v1.9c.3 0 .6-.1.8-.3.2-.2.3-.4.3-.7Zm-2.7-3.1c0 .2.1.4.2.6.2.2.4.3.7.3v-1.8c-.3 0-.5.1-.7.3-.1.1-.2.3-.2.6Zm7.8 5.1c-.8 0-1.4-.2-1.9-.6-.5-.4-.7-.9-.7-1.4 0-.4.1-.8.4-1.1.3-.3.6-.5 1.1-.6v-.1c-.4-.1-.7-.3-.9-.5-.2-.3-.3-.6-.3-1 0-.5.2-1 .7-1.3.4-.3 1-.5 1.7-.5s1.3.2 1.7.5c.4.3.7.8.7 1.3 0 .4-.1.7-.3 1-.2.3-.5.5-.9.5v.1c.4.1.8.3 1.1.6.3.3.4.7.4 1.1 0 .6-.2 1.1-.7 1.4-.7.4-1.3.6-2.1.6Zm0-.9c.4 0 .7-.1 1-.3.3-.2.4-.5.4-.8 0-.3-.1-.6-.4-.8-.3-.2-.6-.3-1-.3s-.7.1-1 .3c-.3.2-.4.5-.4.8 0 .3.1.6.4.8.3.2.6.3 1 .3Zm-.8-3.5c.2.2.5.3.8.3.3 0 .6-.1.8-.3.2-.2.3-.4.3-.7 0-.3-.1-.6-.3-.7-.2-.2-.5-.3-.8-.3-.3 0-.6.1-.8.3-.2.2-.3.4-.3.7-.1.2 0 .5.3.7Zm7.2 4.4c-.8 0-1.5-.3-1.9-.9-.5-.6-.7-1.5-.7-2.6s.2-2 .7-2.6c.5-.6 1.1-.9 1.9-.9.8 0 1.4.3 1.9.9.5.6.7 1.5.7 2.6s-.2 2-.7 2.6c-.4.6-1 .9-1.9.9Zm-1-1.6c.2.4.6.7 1 .7s.8-.2 1-.7c.2-.4.4-1.1.4-1.9 0-.8-.1-1.5-.4-1.9-.2-.4-.6-.7-1-.7s-.8.2-1 .7c-.2.4-.4 1.1-.4 1.9.1.8.2 1.4.4 1.9Zm5.4 1.6c-.2 0-.4-.1-.5-.2-.1-.1-.2-.3-.2-.5s.1-.4.2-.5c.1-.1.3-.2.5-.2s.4.1.5.2c.1.1.2.3.2.5s-.1.4-.2.5c-.1.1-.3.2-.5.2Zm4.4 0c-.8 0-1.5-.3-1.9-.9-.5-.6-.7-1.5-.7-2.6s.2-2 .7-2.6c.5-.6 1.1-.9 1.9-.9.8 0 1.4.3 1.9.9.5.6.7 1.5.7 2.6s-.2 2-.7 2.6c-.5.6-1.1.9-1.9.9Zm-1-1.6c.2.4.6.7 1 .7s.8-.2 1-.7c.2-.4.4-1.1.4-1.9 0-.8-.1-1.5-.4-1.9-.2-.4-.6-.7-1-.7s-.8.2-1 .7c-.2.4-.4 1.1-.4 1.9 0 .8.1 1.4.4 1.9Zm7.4 1.6c-.8 0-1.5-.3-1.9-.9-.5-.6-.7-1.5-.7-2.6s.2-2 .7-2.6c.5-.6 1.1-.9 1.9-.9.8 0 1.4.3 1.9.9.5.6.7 1.5.7 2.6s-.2 2-.7 2.6c-.4.6-1.1.9-1.9.9Zm-1-1.6c.2.4.6.7 1 .7s.8-.2 1-.7c.2-.4.4-1.1.4-1.9 0-.8-.1-1.5-.4-1.9-.2-.4-.6-.7-1-.7s-.8.2-1 .7c-.2.4-.4 1.1-.4 1.9 0 .8.2 1.4.4 1.9Z"/><path fill="#202223" d="M24.8 111.9h2.3c2 0 3.2-1.3 3.2-3.4 0-2.1-1.2-3.4-3.2-3.4h-2.3v6.8Zm.8-.7v-5.3H27c1.5 0 2.4001 1 2.4001 2.6 0 1.7-.9001 2.6-2.4001 2.6h-1.4v.1Zm8.2.8c1.2 0 1.9001-.7 2.1001-1.4H35.1c-.1.3-.6.6-1.3.6-.9 0-1.5-.6-1.5-1.7H36v-.3c0-1.5-.8-2.5-2.2-2.5-1.4 0-2.3 1.1-2.3 2.6 0 1.7.8 2.7 2.3 2.7Zm-.0999-4.5c.8 0 1.2999.5 1.3999 1.5h-2.8c.1-1 .7001-1.5 1.4001-1.5Zm3.5999 4.4h.8v-7.1h-.8v7.1Zm2.8-6c.3 0 .6001-.3.6001-.6s-.3001-.6-.6001-.6-.6.3-.6.6.3.6.6.6Zm-.3999 6H40.5v-5.1h-.7999v5.1Zm3.7999 0h.8l1.9001-5.1H45.3L44 111h-.0999L42.5 106.8h-.9l1.9 5.1Zm5.7001.1c1.2 0 1.9-.7 2.1-1.4H50.5c-.1.3-.5999.6-1.2999.6-.9 0-1.5-.6-1.5-1.7h3.7v-.3c0-1.5-.8001-2.5-2.2-2.5-1.4 0-2.3 1.1-2.3 2.6 0 1.7.8 2.7 2.3 2.7Zm-.1001-4.5c.8 0 1.3.5 1.4 1.5h-2.7999c.1-1 .6999-1.5 1.3999-1.5Zm3.5 4.4h.8001v-3.2c0-.7.5999-1.2 1.2999-1.2h.5v-.8h-.3999c-.7 0-1.2.3-1.4.8h-.1v-.8H52.5v5.2h.1Zm4.2001 1.8c.9 0 1.2999-.3 1.6999-1.5l2-5.4h-.9l-1.4 4.2h-.1l-1.4-4.2h-.8999l1.8999 5.1-.1.3c-.2.6-.5.8-.9.8h-.2999v.7h.4Zm7.7999-1.8h.8001v-4.4H66.6v-.7h-1.1999v-.5c0-.6.1999-.8.7999-.8h.4v-.7h-.5c-1 0-1.5.5-1.5 1.5v.6h-.7999v.7H64.6v4.3Zm3.2001 0H68.6v-3.2c0-.7.6001-1.2 1.3001-1.2h.5v-.8H70c-.7 0-1.2.3-1.4.8h-.1v-.8h-.8v5.2h.1001Zm5.6.1c1.2 0 1.8999-.7 2.0999-1.4h-.8c-.1.3-.5999.6-1.2999.6-.9001 0-1.5-.6-1.5-1.7H75.6v-.3c0-1.5-.7999-2.5-2.1999-2.5-1.4001 0-2.3001 1.1-2.3001 2.6 0 1.7.9 2.7 2.3001 2.7Zm0-4.5c.8 0 1.3.5 1.4 1.5H72c0-1 .6001-1.5 1.4001-1.5Zm7 6.1H81.2v-6.8h-.7999v.8h-.1c-.3-.6-.9001-.9-1.6001-.9-1.3 0-2.1 1-2.1 2.6s.8 2.6 2.1 2.6c.7 0 1.3001-.3 1.6001-.9h.1v2.6Zm-1.5-2.3c-.9001 0-1.5-.7-1.5-1.9s.5999-1.9 1.5-1.9c.9 0 1.5.7 1.5 1.9s-.6 1.9-1.5 1.9Zm5.5.7c.7 0 1.3-.3 1.5-.8H86v.8h.8001v-5.1H86v3c0 .9-.5 1.4-1.4 1.4-.8 0-1.1-.4-1.1-1.4v-3.1h-.8v3.3c0 1.2.6001 1.9 1.7001 1.9Zm6.0999 0c1.2 0 1.9001-.7 2.1001-1.4H91.8c-.0999.3-.6.6-1.3.6-.9 0-1.5-.6-1.5-1.7h3.7v-.3c0-1.5-.8-2.5-2.2-2.5-1.4 0-2.3 1.1-2.3 2.6-.1 1.7.8 2.7 2.3 2.7Zm-.0999-4.5c.8 0 1.3.5 1.3999 1.5H89c.1-1 .7001-1.5 1.4001-1.5Zm3.5 4.4H94.7v-3c0-.9.5-1.4 1.3-1.4s1.2.4 1.2 1.4v3.1h.8v-3.3c0-1.2-.6-1.9-1.8-1.9-.8 0-1.2.3-1.5.9h-.0999v-.8H93.8v5h.1001Zm7.6999.1c1.2 0 1.9-.7 2.1-1.6v-.1h-.8c-.2.6-.6.9-1.3.9-.9 0-1.5-.8-1.5-1.9 0-1.1.6-1.9 1.5-1.9.7 0 1.2.4 1.3.9h.8c-.2-.9-.9-1.6-2.1-1.6-1.4 0-2.3 1-2.3 2.6 0 1.7.9 2.7 2.3 2.7Zm3.8 1.7c.9 0 1.3-.3 1.7-1.5l2-5.4h-.9l-1.4 4.2h-.1l-1.4-4.2h-.9l1.9 5.1-.1.3c-.2.6-.5.8-.9.8h-.3v.7h.4Z"/><path fill="#f2f9f7" d="M28.8001 116.8H216c2.7 0 4.8 2.2 4.8 4.8v24.2c0 2.7-2.2 4.8-4.8 4.8H28.8001c-2.7 0-4.8-2.2-4.8-4.8v-24.2c-.1-2.7 2.1-4.8 4.8-4.8Z"/><path fill="#000" d="M34.5001 137.3h4.3v-.9h-3.3v-2.1h3.1v-.9h-3.1v-2h3.3v-.9h-4.3v6.8Zm7.1 0h1.1l1.9-5.1h-1.1l-1.3 4.1h-.1l-1.3-4.1h-1.1l1.9 5.1Zm5.9.1c1.3 0 2-.8 2.2-1.4h-1c-.1.3-.5.6-1.2.6-.8 0-1.4-.6-1.4-1.6h3.6v-.4c0-1.5-.9-2.6-2.3-2.6s-2.4 1.1-2.4 2.7c.1 1.7 1 2.7 2.5 2.7Zm0-4.5c.7 0 1.2.4 1.3 1.4h-2.6c.1-.9.6-1.4 1.3-1.4Zm3.5 4.4h1v-3.1c0-.7.5-1.2 1.3-1.2.2 0 .4 0 .6.1v-.9h-.4c-.7 0-1.2.3-1.3.9h-.2v-.8h-1v5Zm4.4 1.8c1 0 1.6-.4 2-1.6l1.9-5.3h-1.1l-1.3 4.1h-.1l-1.3-4.1h-1.1l1.9 5.1-.1.3c-.2.5-.4.7-.9.7h-.3v.8h.4Zm7.6-1.8h1v-3.1c0-.7.5-1.2 1.1-1.2.6 0 1 .4 1 1v3.4h1v-3.2c0-.6.4-1.1 1.1-1.1.7 0 1 .3 1 1.1v3.3h1V134c0-1.1-.6-1.7-1.6-1.7-.7 0-1.3.4-1.6.9h-.1c-.2-.6-.7-.9-1.4-.9s-1.2.3-1.4.9h-.1v-.8h-1v4.9Zm10.8.1c1.5 0 2.4-1 2.4-2.7 0-1.7-.9-2.7-2.4-2.7s-2.4 1-2.4 2.7c0 1.7.9 2.7 2.4 2.7Zm0-.8c-.9 0-1.4-.7-1.4-1.8s.5-1.8 1.4-1.8c.9 0 1.4.7 1.4 1.8s-.5 1.8-1.4 1.8Zm3.6.7h1v-3c0-.8.5-1.3 1.2-1.3.8 0 1.1.4 1.1 1.3v3.1h1V134c0-1.2-.6-1.9-1.8-1.9-.7 0-1.2.3-1.5.9h-.1v-.8h-1v5.1h.1Zm7.8 0c.2 0 .4 0 .6-.1v-.8h-.4c-.5 0-.7-.2-.7-.8V133h1.1v-.8h-1.1v-1.3h-1v1.3h-.8v.8h.8v3c-.1.9.3 1.3 1.5 1.3Zm1.8 0h1v-3c0-.8.5-1.3 1.2-1.3.8 0 1.1.4 1.1 1.3v3.1h1V134c0-1.2-.6-1.9-1.8-1.9-.7 0-1.2.3-1.5.9v-2.8h-1v7.1ZM153.2 138h.6v-.8c1.3-.1 2.2-.8 2.2-1.9 0-1-.7-1.5-1.9-1.8l-.3-.1v-1.8c.6.1 1 .4 1 1h1.1c0-1.1-.9-1.8-2.1-1.9v-.8h-.6v.8c-1.2.1-2.1.8-2.1 1.9 0 1 .7 1.5 1.9 1.8l.2.1v1.9c-.7-.1-1.1-.4-1.1-1H151c0 1.1 1 1.8 2.2 1.9v.7Zm-1-5.6c0-.4.3-.8 1-.8v1.7c-.7-.2-1-.5-1-.9Zm2.6 3c0 .5-.3.8-1.1.9v-1.8c.8.2 1.1.4 1.1.9Zm5 2c1.6 0 2.7-.8 2.7-2 0-.9-.6-1.5-1.5-1.7.8-.2 1.3-.8 1.3-1.5 0-1-1-1.8-2.4-1.8s-2.4.8-2.4 1.8c0 .7.5 1.3 1.3 1.5-.9.2-1.5.9-1.5 1.7-.1 1.2 1 2 2.5 2Zm0-4.1c-.7 0-1.2-.4-1.2-1s.5-1 1.2-1 1.2.4 1.2 1c.1.6-.4 1-1.2 1Zm0 3.2c-.8 0-1.4-.5-1.4-1.1 0-.7.6-1.1 1.4-1.1.8 0 1.4.5 1.4 1.1 0 .6-.5 1.1-1.4 1.1Zm6.5 1c1.6 0 2.6-1.4 2.6-3.6s-1-3.6-2.6-3.6-2.6 1.4-2.6 3.6 1 3.6 2.6 3.6Zm0-1c-.9 0-1.4-1-1.4-2.6s.5-2.6 1.4-2.6c.9 0 1.4 1 1.4 2.6s-.5 2.6-1.4 2.6Zm4.3.9c.4 0 .8-.3.8-.7 0-.4-.3-.7-.8-.7-.4 0-.8.3-.8.7.1.4.4.7.8.7Zm4.4.1c1.6 0 2.6-1.4 2.6-3.6s-1-3.6-2.6-3.6-2.6 1.4-2.6 3.6 1 3.6 2.6 3.6Zm0-1c-.9 0-1.4-1-1.4-2.6s.5-2.6 1.4-2.6c.9 0 1.4 1 1.4 2.6s-.5 2.6-1.4 2.6Zm6.4 1c1.6 0 2.6-1.4 2.6-3.6s-1-3.6-2.6-3.6-2.6 1.4-2.6 3.6c.1 2.2 1 3.6 2.6 3.6Zm0-1c-.9 0-1.4-1-1.4-2.6s.5-2.6 1.4-2.6c.9 0 1.4 1 1.4 2.6s-.5 2.6-1.4 2.6Z"/><path fill="#5C5F62" d="m199.8 132.5 3 3 3-3h-6Z"/><path stroke="url(#a)" d="M28.8001 117.1H216c2.5 0 4.5 2 4.5 4.5v24.2c0 2.5-2 4.5-4.5 4.5H28.8001c-2.5 0-4.5-2-4.5-4.5v-24.2c-.1-2.5 2-4.5 4.5-4.5Z"/><path stroke="#EAEAEA" d="M230.9 19.7998H1.30005V164.8H230.9V19.7998Z"/><path fill="#EAEAEA" d="M231 60H1v1h230v-1Z"/><path fill="#202223" d="M1.1 8.9h1v-3h2.1c1.6 0 2.7-1.1 2.7-2.7S5.8.5 4.2.5H1v8.4h.1ZM4 1.4c1.2 0 1.9.7 1.9 1.8S5.2 5 4 5H2.2V1.5H4v-.1ZM10.7 9c.9 0 1.6-.4 1.9-1v.9h1V2.6h-1v3.7c0 1.1-.6 1.8-1.7 1.8-1 0-1.4-.5-1.4-1.7V2.6h-1v4.1c0 1.4.7 2.3 2.2 2.3Zm4.8-.1h1V5c0-.9.7-1.5 1.7-1.5.2 0 .4 0 .6.1v-1h-.5c-.8 0-1.4.4-1.7 1h-.1v-.9h-1v6.2Zm6.9.1c1.5 0 2.3-.8 2.6-1.9V7h-1c-.2.7-.8 1.1-1.6 1.1-1.1 0-1.8-.9-1.8-2.4 0-1.4.7-2.3 1.8-2.3.9 0 1.5.5 1.6 1.1h1c-.2-1.1-1.1-2-2.6-2-1.8 0-2.9 1.3-2.9 3.2.1 2 1.2 3.3 2.9 3.3Zm4.2-.1h1V5.2c0-1.1.6-1.8 1.6-1.8s1.5.5 1.5 1.7v3.8h1V4.8c0-1.5-.8-2.3-2.2-2.3-.9 0-1.5.4-1.8 1.1h-.1V.200005h-1V8.9Zm8.7.1c.8 0 1.5-.4 1.9-1h.1v.9h1V4.6c0-1.3-.9-2.1-2.4-2.1-1.3 0-2.3.7-2.5 1.6h1c.2-.5.7-.8 1.4-.8.9 0 1.4.4 1.4 1.2v.6l-1.8.1c-1.5.1-2.3.7-2.3 1.8.1 1.3 1 2 2.2 2Zm-1.1-1.9c0-.6.4-1 1.4-1l1.7-.1v.6c0 .9-.8 1.6-1.8 1.6-.8-.1-1.3-.5-1.3-1.1ZM42.3 9c1.4 0 2.5-.8 2.5-1.9 0-.9-.6-1.4-1.8-1.7l-1-.2c-.7-.2-1.1-.4-1.1-.9 0-.6.5-.9 1.3-.9s1.2.3 1.4.8h1c-.1-1-1.1-1.7-2.4-1.7-1.3 0-2.3.8-2.3 1.8 0 .9.5 1.4 1.7 1.7l1 .2c.8.2 1.1.5 1.1.9 0 .6-.6 1-1.4 1-.8 0-1.3-.3-1.5-.9h-1c.1 1.1 1.1 1.8 2.5 1.8Zm6.6 0c1.5 0 2.4-.8 2.6-1.7h-1v.1c-.2.4-.7.8-1.5.8-1.1 0-1.8-.8-1.9-2.1h4.5v-.4c0-1.9-1-3.1-2.7-3.1-1.7 0-2.8 1.3-2.8 3.3-.1 1.8 1 3.1 2.8 3.1Zm-.1-5.6c.9 0 1.6.6 1.7 1.8H47c.2-1.2.9-1.8 1.8-1.8ZM59.1 9C60.9 9 62 7.8 62 5.8s-1.1-3.2-2.9-3.2c-1.8 0-2.9 1.2-2.9 3.2 0 1.9 1.1 3.2 2.9 3.2Zm0-.9c-1.2 0-1.9-.9-1.9-2.3 0-1.5.7-2.3 1.9-2.3s1.9.9 1.9 2.3c-.1 1.4-.7 2.3-1.9 2.3Zm4.4 2.9h1V7.9h.1c.3.7 1.1 1.1 2 1.1 1.6 0 2.6-1.3 2.6-3.2 0-2-1-3.2-2.6-3.2-.9 0-1.6.4-2 1.1h-.1v-1h-1V11Zm2.9-2.9c-1.1 0-1.8-.9-1.8-2.3s.7-2.3 1.8-2.3 1.8.9 1.8 2.3-.7 2.3-1.8 2.3Zm6.6.8c.2 0 .4 0 .6-.1v-.9h-.5c-.7 0-.9-.3-.9-1V3.4h1.4v-.8h-1.4V1h-1v1.6h-1v.8h1v3.8c0 1.2.5 1.7 1.8 1.7Zm2.7-7.5c.4 0 .7-.3.7-.699995C76.4.300005 76.1 0 75.7 0c-.4 0-.7.300005-.7.700005C75 1.1 75.3 1.4 75.7 1.4Zm-.6 7.5h1V2.6h-1v6.3Zm5.5.1c1.8 0 2.9-1.2 2.9-3.2s-1.1-3.2-2.9-3.2c-1.8 0-2.9 1.2-2.9 3.2.1 1.9 1.2 3.2 2.9 3.2Zm0-.9c-1.2 0-1.9-.9-1.9-2.3 0-1.5.7-2.3 1.9-2.3s1.9.9 1.9 2.3-.7 2.3-1.9 2.3Zm4.5.8h1V5.2c0-1.1.6-1.8 1.6-1.8s1.5.5 1.5 1.7v3.8h1V4.8c0-1.5-.8-2.3-2.2-2.3-.9 0-1.5.4-1.8 1.1h-.1v-.9h-1v6.2Zm9.1.1c1.4 0 2.5-.8 2.5-1.9 0-.9-.6-1.4-1.8-1.7l-1-.2c-.7-.2-1.1-.4-1.1-.9 0-.6.5-.9 1.3-.9s1.2.3 1.4.8h1c-.1-1-1.1-1.7-2.4-1.7-1.3 0-2.3.8-2.3 1.8 0 .9.5 1.4 1.7 1.7l1 .2c.8.2 1.1.5 1.1.9 0 .6-.6 1-1.4 1-.8 0-1.3-.3-1.5-.9h-1c.2 1.1 1.1 1.8 2.5 1.8Z"/><path fill="#686F6C" d="M3.57658 185.291c1.54595 0 2.51217-.774 2.51217-2.064 0-.968-.57973-1.549-1.93244-1.807l-.70856-.129c-.83739-.194-1.22387-.516-1.22387-.968 0-.645.57973-.968 1.3527-.968.77298 0 1.28829.387 1.41712.903v.065h.96622v-.065c-.06441-1.032-.96622-1.806-2.38334-1.806-1.41712 0-2.38334.774-2.38334 1.935 0 .968.57973 1.614 1.93244 1.872l.70856.129c.9018.193 1.22388.516 1.22388 1.032 0 .581-.57973 1.033-1.41712 1.033-.90181 0-1.48154-.388-1.54595-.968v-.065H1v.065c.12883 1.032 1.09505 1.806 2.57658 1.806Zm5.34641-.064c.70856 0 1.22391-.323 1.48151-.839h.0644v.774h.9663v-4.968h-.9663v2.904c0 .774-.4509 1.29-1.22384 1.29-.70856 0-1.03063-.387-1.03063-1.226v-2.968h-.96622v3.226c0 1.097.57973 1.807 1.67478 1.807Zm6.57031-.065c1.2238 0 2.0612-.968 2.0612-2.581 0-1.548-.7729-2.581-2.0612-2.581-.7086 0-1.2883.323-1.546.904v-2.71h-.9662v6.904h.9662v-.775h.0644c.2577.517.8374.839 1.4816.839Zm-.2577-.839c-.8374 0-1.3527-.645-1.3527-1.742 0-1.032.5153-1.742 1.3527-1.742s1.3527.645 1.3527 1.742-.5153 1.742-1.3527 1.742Zm5.282.904c1.1595 0 2.0613-.645 2.0613-1.549 0-.71-.4509-1.097-1.4171-1.355l-.773-.193c-.5798-.129-.773-.323-.773-.646 0-.387.3865-.645.9018-.645.5797 0 .9018.258 1.0306.581h.9663c-.0645-.839-.8374-1.355-1.9325-1.355-1.095 0-1.9324.645-1.9324 1.484 0 .71.4509 1.161 1.3527 1.355l.773.194c.5797.129.8374.322.8374.645 0 .387-.4509.71-1.0307.71-.5797 0-.9662-.259-1.095-.646h-.9662c.0644.839.8373 1.42 1.9968 1.42Zm5.3464 0c1.2239 0 1.9324-.645 2.1257-1.613v-.065h-.9662c-.1289.516-.5153.839-1.1595.839-.8374 0-1.3527-.645-1.3527-1.742s.5153-1.742 1.3527-1.742c.6442 0 1.0306.387 1.1595.838h.9662c-.1288-.967-.9018-1.677-2.1257-1.677-1.4171 0-2.3189.968-2.3189 2.581 0 1.548.9018 2.581 2.3189 2.581Zm3.2207-.129h.9663v-2.968c0-.71.5153-1.162 1.2882-1.162.1933 0 .3865 0 .5154.065v-.904c-.1289 0-.2577-.064-.4509-.064-.6442 0-1.0951.322-1.2883.839h-.0644v-.775h-.9663v4.969Zm4.2514-5.807c.3221 0 .6441-.259.6441-.646 0-.322-.2576-.645-.6441-.645-.3221 0-.6441.258-.6441.645.0644.323.322.646.6441.646Zm-.5153 5.807h.9662v-4.969h-.9662v4.969Zm2.4477 1.677h.9663v-2.452h.0644c.2576.517.8374.839 1.5459.839 1.2883 0 2.0613-.968 2.0613-2.581 0-1.548-.773-2.581-2.0613-2.581-.7085 0-1.2239.323-1.5459.839h-.0644v-.774h-.9663v6.71Zm2.319-2.452c-.8374 0-1.3527-.645-1.3527-1.742 0-1.032.5153-1.742 1.3527-1.742s1.3527.645 1.3527 1.742c-.0644 1.097-.5153 1.742-1.3527 1.742Zm5.3464.839c.1932 0 .3865 0 .5153-.064v-.775h-.3865c-.5153 0-.7086-.193-.7086-.774v-2.645h1.0307v-.775h-1.0307v-1.226h-1.0306v1.226h-.773v.775h.773v2.839c.1288 1.032.5797 1.419 1.6104 1.419Zm2.2545-5.871c.322 0 .6441-.259.6441-.646 0-.322-.2576-.645-.6441-.645-.3221 0-.6442.258-.6442.645 0 .323.2577.646.6442.646Zm-.5153 5.807h.9662v-4.969h-.9662v4.969Zm4.509.129c1.4171 0 2.3189-.968 2.3189-2.581s-.9018-2.581-2.3189-2.581-2.3189.968-2.3189 2.581.9018 2.581 2.3189 2.581Zm0-.839c-.8374 0-1.3527-.645-1.3527-1.742s.4509-1.742 1.3527-1.742c.8374 0 1.3527.645 1.3527 1.742s-.5153 1.742-1.3527 1.742Zm3.5428.71h.9662v-2.904c0-.774.4509-1.29 1.1595-1.29.7085 0 1.095.387 1.095 1.226v2.968h.9662v-3.226c0-1.162-.5797-1.872-1.7392-1.872-.7085 0-1.2238.323-1.4171.839h-.0644v-.774h-.9662v5.033Zm9.9198.064c.7086 0 1.2239-.322 1.546-.839h.0644v.775h.9662v-6.904h-.9662v2.71h-.0644c-.2577-.517-.8374-.904-1.546-.904-1.2883 0-2.0612.968-2.0612 2.581s.8373 2.581 2.0612 2.581Zm.3221-.839c-.8374 0-1.3527-.645-1.3527-1.742 0-1.032.5153-1.742 1.3527-1.742s1.3527.645 1.3527 1.742c-.0644 1.097-.5797 1.742-1.3527 1.742Zm5.7973.904c1.2883 0 1.9324-.71 2.1257-1.355v-.065h-.9662v.065c-.1289.258-.5154.581-1.1595.581-.8374 0-1.3527-.581-1.3527-1.485h3.4784v-.322c0-1.484-.8374-2.517-2.2545-2.517-1.4172 0-2.2545 1.033-2.2545 2.581.0644 1.484.9662 2.517 2.3833 2.517Zm0-4.388c.6441 0 1.1595.452 1.2239 1.291h-2.5122c.0644-.775.5797-1.291 1.2883-1.291Zm5.2176 4.323c.1932 0 .3865 0 .5153-.064v-.775h-.3865c-.5153 0-.7086-.193-.7086-.774v-2.645h1.0307v-.775h-1.0307v-1.226h-1.0306v1.226h-.773v.775h.773v2.839c.1288 1.032.5153 1.419 1.6104 1.419Zm3.0919 0c.6441 0 1.1594-.258 1.4815-.774h.0644v.71h.9662v-3.42c0-1.032-.7085-1.678-1.9324-1.678-1.095 0-1.9324.516-1.9968 1.355h.9662c.1288-.322.4509-.58 1.0306-.58.6442 0 1.0306.322 1.0306.838v.452l-1.3527.065c-1.1594.064-1.868.58-1.868 1.484-.0644.968.6442 1.548 1.6104 1.548Zm-.7086-1.484c0-.451.3221-.71.9662-.774l1.2239-.065v.452c0 .645-.5153 1.097-1.2883 1.097-.5153 0-.9018-.258-.9018-.71Zm5.0888-4.387c.322 0 .6441-.259.6441-.646 0-.322-.2576-.645-.6441-.645-.3221 0-.6442.258-.6442.645.0644.323.3221.646.6442.646Zm-.4509 5.807h.9662v-4.969h-.9662v4.969Zm2.4477 0h.9662v-6.904h-.9662v6.904Zm4.2514.129c1.1594 0 2.0612-.645 2.0612-1.549 0-.71-.4509-1.097-1.4171-1.355l-.7729-.193c-.5798-.129-.773-.323-.773-.646 0-.387.3865-.645.9018-.645.5797 0 .9018.258 1.0306.581h.9662c-.0644-.839-.8374-1.355-1.9324-1.355-1.0951 0-1.9324.645-1.9324 1.484 0 .71.4509 1.161 1.3527 1.355l.7729.194c.5798.129.8374.322.8374.645 0 .387-.4509.71-1.0306.71-.5797 0-.9662-.259-1.0951-.646h-.9662c.0644.839.8374 1.42 1.9969 1.42Z"/><path stroke="#5C5F62" stroke-miterlimit="10" d="M95.1741 181.807c0-2.065 1.6747-3.743 3.736-3.743 2.0609 0 3.7359 1.678 3.7359 3.743s-1.675 3.742-3.7359 3.742c-2.0613 0-3.736-1.677-3.736-3.742Z"/><path fill="#5C5F62" d="M99.4254 183.227c0 .258-.1932.451-.4509.451-.2576 0-.4509-.193-.4509-.451v-.904c0-.258.1933-.451.4509-.451.2577 0 .4509.193.4509.451v.904ZM98.9101 180.903c.2491 0 .4509-.202.4509-.451 0-.25-.2018-.452-.4509-.452-.249 0-.4509.202-.4509.452 0 .249.2019.451.4509.451Z"/><defs><linearGradient id="a" x1="122.403" x2="122.403" y1="116.569" y2="150.799" gradientUnits="userSpaceOnUse"><stop offset=".8646" stop-color="#BABFC3"/><stop offset="1" stop-color="#BBBFC3"/></linearGradient></defs></svg>