<svg xmlns="http://www.w3.org/2000/svg" width="220" height="231" fill="none"><path fill="#686F6C" d="M3.57658 229.291c1.54595 0 2.51217-.774 2.51217-2.064 0-.968-.57973-1.549-1.93244-1.807l-.70856-.129c-.83739-.194-1.22387-.516-1.22387-.968 0-.645.57973-.968 1.3527-.968.77298 0 1.28829.387 1.41712.903v.065h.96622v-.065c-.06441-1.032-.96622-1.806-2.38334-1.806-1.41712 0-2.38334.774-2.38334 1.935 0 .968.57973 1.614 1.93244 1.872l.70856.129c.9018.193 1.22388.516 1.22388 1.032 0 .581-.57973 1.033-1.41712 1.033-.90181 0-1.48154-.388-1.54595-.968v-.065H1v.065c.12883 1.032 1.09505 1.806 2.57658 1.806Zm5.34641-.064c.70856 0 1.22391-.323 1.48151-.839h.0644v.774h.9663v-4.968h-.9663v2.904c0 .774-.4509 1.29-1.22384 1.29-.70856 0-1.03063-.387-1.03063-1.226v-2.968h-.96622v3.226c0 1.097.57973 1.807 1.67478 1.807Zm6.57031-.065c1.2238 0 2.0612-.968 2.0612-2.581 0-1.548-.7729-2.581-2.0612-2.581-.7086 0-1.2883.323-1.546.904v-2.71h-.9662v6.904h.9662v-.775h.0644c.2577.517.8374.839 1.4816.839Zm-.2577-.839c-.8374 0-1.3527-.645-1.3527-1.742 0-1.032.5153-1.742 1.3527-1.742s1.3527.645 1.3527 1.742-.5153 1.742-1.3527 1.742Zm5.282.904c1.1595 0 2.0613-.645 2.0613-1.549 0-.71-.4509-1.097-1.4171-1.355l-.773-.193c-.5798-.129-.773-.323-.773-.646 0-.387.3865-.645.9018-.645.5797 0 .9018.258 1.0306.581h.9663c-.0645-.839-.8374-1.355-1.9325-1.355-1.095 0-1.9324.645-1.9324 1.484 0 .71.4509 1.161 1.3527 1.355l.773.194c.5797.129.8374.322.8374.645 0 .387-.4509.71-1.0307.71-.5797 0-.9662-.259-1.095-.646h-.9662c.0644.839.8373 1.42 1.9968 1.42Zm5.3464 0c1.2239 0 1.9324-.645 2.1257-1.613v-.065h-.9662c-.1289.516-.5153.839-1.1595.839-.8374 0-1.3527-.645-1.3527-1.742s.5153-1.742 1.3527-1.742c.6442 0 1.0306.387 1.1595.838h.9662c-.1288-.967-.9018-1.677-2.1257-1.677-1.4171 0-2.3189.968-2.3189 2.581 0 1.548.9018 2.581 2.3189 2.581Zm3.2207-.129h.9663v-2.968c0-.71.5153-1.162 1.2882-1.162.1933 0 .3865 0 .5154.065v-.904c-.1289 0-.2577-.064-.4509-.064-.6442 0-1.0951.322-1.2883.839h-.0644v-.775h-.9663v4.969Zm4.2514-5.807c.3221 0 .6441-.259.6441-.646 0-.322-.2576-.645-.6441-.645-.3221 0-.6441.258-.6441.645.0644.323.322.646.6441.646Zm-.5153 5.807h.9662v-4.969h-.9662v4.969Zm2.4477 1.677h.9663v-2.452h.0644c.2576.517.8374.839 1.5459.839 1.2883 0 2.0613-.968 2.0613-2.581 0-1.548-.773-2.581-2.0613-2.581-.7085 0-1.2239.323-1.5459.839h-.0644v-.774h-.9663v6.71Zm2.319-2.452c-.8374 0-1.3527-.645-1.3527-1.742 0-1.032.5153-1.742 1.3527-1.742s1.3527.645 1.3527 1.742c-.0644 1.097-.5153 1.742-1.3527 1.742Zm5.3464.839c.1932 0 .3865 0 .5153-.064v-.775h-.3865c-.5153 0-.7086-.193-.7086-.774v-2.645h1.0307v-.775h-1.0307v-1.226h-1.0306v1.226h-.773v.775h.773v2.839c.1288 1.032.5797 1.419 1.6104 1.419Zm2.2545-5.871c.322 0 .6441-.259.6441-.646 0-.322-.2576-.645-.6441-.645-.3221 0-.6442.258-.6442.645 0 .323.2577.646.6442.646Zm-.5153 5.807h.9662v-4.969h-.9662v4.969Zm4.509.129c1.4171 0 2.3189-.968 2.3189-2.581s-.9018-2.581-2.3189-2.581-2.3189.968-2.3189 2.581.9018 2.581 2.3189 2.581Zm0-.839c-.8374 0-1.3527-.645-1.3527-1.742s.4509-1.742 1.3527-1.742c.8374 0 1.3527.645 1.3527 1.742s-.5153 1.742-1.3527 1.742Zm3.5428.71h.9662v-2.904c0-.774.4509-1.29 1.1595-1.29.7085 0 1.095.387 1.095 1.226v2.968h.9662v-3.226c0-1.162-.5797-1.872-1.7392-1.872-.7085 0-1.2238.323-1.4171.839h-.0644v-.774h-.9662v5.033Zm9.9198.064c.7086 0 1.2239-.322 1.546-.839h.0644v.775h.9662v-6.904h-.9662v2.71h-.0644c-.2577-.517-.8374-.904-1.546-.904-1.2883 0-2.0612.968-2.0612 2.581s.8373 2.581 2.0612 2.581Zm.3221-.839c-.8374 0-1.3527-.645-1.3527-1.742 0-1.032.5153-1.742 1.3527-1.742s1.3527.645 1.3527 1.742c-.0644 1.097-.5797 1.742-1.3527 1.742Zm5.7973.904c1.2883 0 1.9324-.71 2.1257-1.355v-.065h-.9662v.065c-.1289.258-.5154.581-1.1595.581-.8374 0-1.3527-.581-1.3527-1.485h3.4784v-.322c0-1.484-.8374-2.517-2.2545-2.517-1.4172 0-2.2545 1.033-2.2545 2.581.0644 1.484.9662 2.517 2.3833 2.517Zm0-4.388c.6441 0 1.1595.452 1.2239 1.291h-2.5122c.0644-.775.5797-1.291 1.2883-1.291Zm5.2176 4.323c.1932 0 .3865 0 .5153-.064v-.775h-.3865c-.5153 0-.7086-.193-.7086-.774v-2.645h1.0307v-.775h-1.0307v-1.226h-1.0306v1.226h-.773v.775h.773v2.839c.1288 1.032.5153 1.419 1.6104 1.419Zm3.0919 0c.6441 0 1.1594-.258 1.4815-.774h.0644v.71h.9662v-3.42c0-1.032-.7085-1.678-1.9324-1.678-1.095 0-1.9324.516-1.9968 1.355h.9662c.1288-.322.4509-.58 1.0306-.58.6442 0 1.0306.322 1.0306.838v.452l-1.3527.065c-1.1594.064-1.868.58-1.868 1.484-.0644.968.6442 1.548 1.6104 1.548Zm-.7086-1.484c0-.451.3221-.71.9662-.774l1.2239-.065v.452c0 .645-.5153 1.097-1.2883 1.097-.5153 0-.9018-.258-.9018-.71Zm5.0888-4.387c.322 0 .6441-.259.6441-.646 0-.322-.2576-.645-.6441-.645-.3221 0-.6442.258-.6442.645.0644.323.3221.646.6442.646Zm-.4509 5.807h.9662v-4.969h-.9662v4.969Zm2.4477 0h.9662v-6.904h-.9662v6.904Zm4.2514.129c1.1594 0 2.0612-.645 2.0612-1.549 0-.71-.4509-1.097-1.4171-1.355l-.7729-.193c-.5798-.129-.773-.323-.773-.646 0-.387.3865-.645.9018-.645.5797 0 .9018.258 1.0306.581h.9662c-.0644-.839-.8374-1.355-1.9324-1.355-1.0951 0-1.9324.645-1.9324 1.484 0 .71.4509 1.161 1.3527 1.355l.7729.194c.5798.129.8374.322.8374.645 0 .387-.4509.71-1.0306.71-.5797 0-.9662-.259-1.0951-.646h-.9662c.0644.839.8374 1.42 1.9969 1.42Z"/><path stroke="#5C5F62" stroke-miterlimit="10" d="M95.1741 225.807c0-2.065 1.6747-3.743 3.736-3.743 2.0609 0 3.7359 1.678 3.7359 3.743s-1.675 3.742-3.7359 3.742c-2.0613 0-3.736-1.677-3.736-3.742Z"/><path fill="#5C5F62" d="M99.4255 227.227c0 .258-.1933.451-.4509.451-.2577 0-.4509-.193-.4509-.451v-.904c0-.258.1932-.451.4509-.451.2576 0 .4509.193.4509.451v.904ZM98.9101 224.903c.2491 0 .4509-.202.4509-.451 0-.25-.2018-.452-.4509-.452-.249 0-.4509.202-.4509.452 0 .249.2019.451.4509.451Z"/><path fill="#008060" fill-opacity=".05" d="M5.25858 19H99.7216c2.3224 0 4.2584 1.9357 4.2584 4.2586v79.6544c0 2.323-1.936 4.259-4.2584 4.259H5.25858C2.93572 107.172 1 105.236 1 102.913V23.2586C1 20.9357 2.93572 19 5.25858 19Z"/><path fill="#008060" d="M47.5538 32.9375h4.549v-1.7422h-3.0004c-.1936 0-.3871.0968-.4839.2904l-1.0647 1.4518ZM56.2648 31.1953h-3.0004v1.7422h4.5489l-1.0646-1.4518c-.0968-.1936-.2904-.2904-.4839-.2904ZM57.8131 34.0986v6.0008c0 .4839-.3871.871-.871.871h-8.5172c-.4839 0-.8711-.3871-.8711-.871v-6.0008h10.2593Zm-1.1614 1.0647h-3.3875v2.3228h3.3875v-2.3228ZM13.5823 59.8436c-.9679 0-1.6454-.2904-2.1293-.7743-.6775-.5807-.9679-1.5486-.9679-2.71s.2904-2.1293.9679-2.71c.4839-.4839 1.2582-.7743 2.1293-.7743.9678 0 1.6453.2904 2.1292.7743.6775.5807.9679 1.5486.9679 2.71s-.2904 2.0325-.9679 2.71c-.4839.4839-1.1614.7743-2.1292.7743Zm1.2582-1.7422c.2903-.3871.4839-.9678.4839-1.7421s-.1936-1.2582-.4839-1.7422c-.2904-.3871-.7743-.5807-1.2582-.5807-.484 0-.9679.1936-1.2583.5807-.2903.3872-.4839.9679-.4839 1.7422s.1936 1.2582.4839 1.7421c.2904.3872.7743.5808 1.2583.5808.4839 0 .9678-.1936 1.2582-.5808Zm5.1296-2.3228c-.3871 0-.6775.1936-.871.5807-.0968.1936-.0968.4839-.0968.7743v2.6132H17.744v-4.8393h1.2583v.6775c.1935-.2903.2903-.3871.4839-.5807.2904-.1936.5807-.2904.9679-.2904.4839 0 .871.0968 1.2582.3872.2903.2903.4839.6775.4839 1.2582V59.65H20.938v-2.9036c0-.2903 0-.4839-.0968-.5807-.2904-.2903-.5807-.3871-.8711-.3871Zm7.4525 2.4196c0 .2904-.1935.5807-.4839.8711-.3871.4839-.9679.6775-1.7421.6775-.5808 0-1.1615-.1936-1.6454-.5807-.4839-.3872-.6775-1.0647-.6775-1.9357 0-.8711.1936-1.4518.6775-1.9358.3871-.4839.9679-.6775 1.6454-.6775.3871 0 .7743.0968 1.0646.1936.2904.1936.5807.3872.7743.6775.1936.2904.2904.5807.3871.9679v.9678h-3.2907c0 .484.1936.8711.4839 1.0647.1936.0968.3872.1936.6776.1936.2903 0 .4839-.0968.6774-.1936.0968-.0968.1936-.1936.1936-.2904h1.2582Zm-1.2582-1.4518c0-.2903-.0968-.5807-.2903-.7742-.1936-.1936-.3872-.2904-.6775-.2904-.2904 0-.484.0968-.6775.2904-.1936.1935-.2904.3871-.2904.7742h1.9357Zm1.7422-.1935h2.5164v1.1614h-2.5164v-1.1614Zm8.3236-3.4843V54.23h-1.9358v5.42h-1.355v-5.42h-1.9357v-1.1614h5.2265Zm1.8389 1.7421V59.65h-1.2582v-4.8393h1.2582Zm0-1.7421V54.23h-1.2582v-1.1614h1.2582Zm3.8714 3.0971c-.0968-.1935-.2903-.3871-.5807-.3871-.3871 0-.5807.0968-.7743.3871-.0968.0968-.0968.2904-.0968.5807V59.65h-1.2582v-4.8393h1.2582v.6775c.1936-.2903.2904-.3871.484-.5807.2903-.1936.5807-.2904.9678-.2904.3872 0 .6775.0968.8711.2904s.2904.3872.3871.5807c.1936-.2903.3872-.4839.5808-.5807.2903-.0968.5807-.1936.871-.1936.1936 0 .3872 0 .6775.0968.1936.0968.3872.1936.5807.3872.0968.1935.1936.3871.2904.5807V59.5532h-1.2582v-3.0003c0-.1936 0-.2904-.0968-.484-.0968-.1935-.2904-.2903-.5807-.2903-.3872 0-.5807.0968-.6775.3871-.0968.1936-.0968.3872-.0968.5807V59.65h-1.2582v-2.9036c-.1936-.2903-.1936-.4839-.2904-.5807Zm9.5818 2.0325c0 .2904-.1935.5807-.4839.8711-.3871.4839-.9679.6775-1.7422.6775-.5807 0-1.1614-.1936-1.6453-.5807-.4839-.3872-.6775-1.0647-.6775-1.9357 0-.8711.1936-1.4518.6775-1.9358.3871-.4839.9678-.6775 1.6453-.6775.3872 0 .7743.0968 1.0647.1936.2904.1936.5807.3872.7743.6775.1936.2904.2903.5807.3871.9679v.9678h-3.2907c0 .484.1936.8711.4839 1.0647.1936.0968.3872.1936.6775.1936.2904 0 .484-.0968.6775-.1936.0968-.0968.1936-.1936.1936-.2904h1.2582Zm-1.2582-1.4518c0-.2903-.0968-.5807-.2903-.7742-.1936-.1936-.3872-.2904-.6776-.2904-.2903 0-.4839.0968-.6774.2904-.1936.1935-.2904.3871-.2904.7742h1.9357Zm7.5493.5808h-1.355V59.65h-1.355v-6.5814h2.8068c.6775 0 1.1614.1935 1.5486.4839.3871.2904.5807.8711.5807 1.5486 0 .7743-.1936 1.355-.5807 1.6453-.2904.3872-.8711.5808-1.6454.5808Zm.6775-1.355c.1936-.1936.2904-.3872.2904-.7743 0-.3872-.0968-.5807-.2904-.7743-.1936-.0968-.3871-.1936-.7743-.1936h-1.2582v1.9357h1.2582c.2904 0 .5807-.0968.7743-.1935Zm5.6136 3.0003s0 .0968-.0968.0968c0 .0968-.0968.0968-.1936.1936-.1935.1935-.3871.2903-.5807.3871s-.3871.0968-.6775.0968c-.6775 0-1.1614-.2904-1.4518-.7743-.0968-.2903-.1935-.6775-.1935-1.2582v-2.9036h1.2582v2.9036c0 .2904 0 .4839.0968.5807.0967.2904.3871.3872.6775.3872.3871 0 .7743-.1936.871-.484.0968-.1935.0968-.4839.0968-.7743v-2.6132h1.2582V59.65h-1.2582v-.6775h.1936Zm4.9361-3.0003c-.484 0-.8711.1935-1.0647.4839-.0968.1936-.1935.4839-.1935.8711V59.65h-1.2583v-4.8393h1.1615v.8711c.1935-.2904.3871-.5807.4839-.6775.1936-.1936.5807-.2904.9679-.2904h.1935v1.2583h-.2903Zm5.3232.5807h-1.2582c0-.1936-.0968-.3872-.1936-.484-.0968-.1935-.3871-.2903-.6775-.2903-.3871 0-.6775.1936-.8711.6775-.0967.1936-.0967.4839-.0967.8711 0 .3871 0 .6775.0967.871.1936.3872.484.5807.8711.5807.2904 0 .4839-.0967.6775-.1935.0968-.1936.1936-.3872.1936-.5807h1.1614c0 .3871-.1936.7742-.3871 1.0646-.3872.5807-.9679.8711-1.7422.8711s-1.355-.1936-1.7421-.6775c-.3872-.484-.5807-1.0647-.5807-1.839 0-.871.1935-1.4517.5807-1.9357.3871-.4839.9678-.6775 1.6453-.6775.5808 0 1.0647.0968 1.4518.3872.484.1935.7743.6775.8711 1.355Zm5.2264.2903V59.65H78.332v-2.9036c0-.2903 0-.4839-.0968-.6775-.0967-.1935-.2903-.2903-.6775-.2903-.2903 0-.5807.0968-.7743.2903-.1935.1936-.2903.5808-.2903.9679V59.65h-1.2582v-6.4846h1.2582v2.3228c.1936-.2903.3871-.4839.6775-.5807s.4839-.1936.7743-.1936c.2903 0 .5807.0968.7743.1936.2903.0968.4839.2904.5807.4839.0968.1936.1936.3872.2903.5808v.871Zm1.355-1.5486c.2904-.3871.8711-.6775 1.7422-.6775.4839 0 .9678.0968 1.4518.2904.4839.1936.5807.5807.5807 1.1614v2.8068c0 .1936 0 .2904.0968.2904 0 .0968.0968.0968.1935.1936v.1935h-1.355c0-.0968-.0967-.1935-.0967-.2903v-.2904c-.1936.1936-.3872.3872-.5808.4839-.2903.1936-.5807.1936-.9678.1936-.4839 0-.7743-.0968-1.0647-.3871-.2903-.2904-.3871-.5807-.3871-1.0647 0-.5807.1936-1.0646.6775-1.2582.2904-.0968.5807-.2903 1.0646-.2903l.3872-.0968c.1936 0 .3871-.0968.4839-.0968.1936-.0968.2904-.1936.2904-.3872 0-.1935-.0968-.2903-.1936-.3871s-.2904-.0968-.5807-.0968c-.2904 0-.4839.0968-.6775.1936-.0968.0968-.1936.2903-.1936.4839h-1.2582c.0968-.2904.1936-.6775.3871-.9679Zm.9679 3.4843c.0968.0968.2904.1936.3871.1936.2904 0 .484-.0968.7743-.1936.1936-.1935.3872-.4839.3872-.871v-.484c-.0968.0968-.1936.0968-.2904.0968s-.1936.0968-.2903.0968l-.2904.0968c-.2904 0-.4839.0968-.5807.1936-.1936.0968-.2904.2903-.2904.5807 0 0 0 .1936.1936.2903Zm7.2589-3.7746c.3872.2904.5808.6775.6775 1.2582h-1.2582c0-.1936-.0968-.2903-.0968-.3871-.0967-.1936-.3871-.2904-.6775-.2904-.2903 0-.4839 0-.5807.0968s-.1936.1936-.1936.2904c0 .0967.0968.2903.1936.2903.0968.0968.5807.1936 1.355.3872.484.0967.8711.2903 1.1615.5807.2903.2903.3871.5807.3871.871 0 .484-.1936.8711-.5807 1.1615-.3872.2903-.8711.4839-1.6454.4839s-1.355-.1936-1.6453-.4839c-.3872-.2904-.5807-.7743-.5807-1.2582h1.2582c0 .1935.0968.3871.1935.4839.1936.1936.484.2903.8711.2903.2904 0 .4839 0 .5807-.0967.1936-.0968.1936-.1936.1936-.2904s-.0968-.2904-.1936-.2904c-.0968-.0967-.5807-.1935-1.355-.3871-.5807-.0968-.9678-.2904-1.1614-.4839-.1936-.1936-.2904-.484-.2904-.8711 0-.4839.1936-.8711.484-1.1614.3871-.2904.871-.484 1.4518-.484.5807 0 1.0646.0968 1.4517.2904Zm5.904 3.1939c0 .2904-.1936.5807-.4839.8711-.3872.4839-.9679.6775-1.7422.6775-.5807 0-1.1614-.1936-1.6454-.5807-.4839-.3872-.6775-1.0647-.6775-1.9357 0-.8711.1936-1.4518.6775-1.9358.3872-.4839.9679-.6775 1.6454-.6775.3871 0 .7743.0968 1.0647.1936.2903.1936.5807.3872.7742.6775.1936.2904.2904.5807.3872.9679v.9678h-3.2907c0 .484.1935.8711.4839 1.0647.1936.0968.3871.1936.6775.1936s.4839-.0968.6775-.1936c.0968-.0968.1936-.1936.1936-.2904h1.2582Zm-1.2582-1.4518c0-.2903-.0968-.5807-.2904-.7742-.1936-.1936-.3871-.2904-.6775-.2904s-.4839.0968-.6775.2904c-.1936.1935-.2904.3871-.2904.7742h1.9358ZM38.1659 77.2654c-.5807-.1936-.9679-.3871-1.1614-.6775-.1936-.2903-.3872-.6775-.3872-1.0646 0-.2904 0-.484.0968-.7743.0968-.1936.1936-.3872.3871-.5807.1936-.1936.484-.3872.6775-.484.1936-.0968.3872-.0968.6775-.0968v-.5807h.3872v.5807c.4839 0 .8711.1936 1.1614.3872.4839.2904.7743.8711.7743 1.5486h-1.1614c0-.2904-.0968-.484-.0968-.5807-.0968-.1936-.2904-.2904-.5807-.3872v1.6454c.6775.2903 1.1614.4839 1.4518.6775.3871.2903.5807.7743.5807 1.355 0 .7743-.2904 1.2582-.7743 1.6453-.2904.1936-.7743.2904-1.1614.3872v.8711h-.3872v-.8711c-.5807-.0968-1.0646-.1936-1.2582-.3872-.4839-.3871-.7743-.9678-.7743-1.7421h1.1614c0 .3871.0968.5807.1936.7743.0968.1935.3872.2903.6775.3871v-1.9357l-.4839-.0968Zm.7743.2904v1.7421c.1935 0 .3871-.0968.4839-.1935.1936-.0968.2904-.3872.2904-.6776 0-.2903-.0968-.4839-.2904-.5807 0-.0968-.1936-.1935-.4839-.2903Zm-.3872-1.355v-1.5486c-.2903 0-.4839.0968-.5807.1936s-.1936.2903-.1936.5807c0 .2903.0968.4839.2904.5807.0968.0968.2904.0968.4839.1936Zm6.1943 3.9682h-1.2582v-4.4522h-1.5486v-.871c.3872 0 .6775 0 .8711-.0968.2904-.0968.4839-.1936.5807-.2904s.1936-.2903.2904-.4839c0-.0968.0968-.1936.0968-.2904h1.0646v6.4847h-.0968Zm3.9682.1936c-.4839 0-.871-.0968-1.2582-.3872-.3871-.2903-.5807-.6775-.6775-1.2582h1.2582c0 .1936.0968.3871.1936.4839s.2904.1936.4839.1936c.3872 0 .6775-.1936.8711-.6775.0968-.2904.1936-.5807.1936-1.1614-.0968.1935-.1936.2903-.3871.2903-.1936.0968-.484.1936-.8711.1936-.484 0-.9679-.1936-1.355-.4839-.3872-.3872-.5807-.8711-.5807-1.5486s.1935-1.2582.5807-1.6454c.3871-.3871.871-.6775 1.5485-.6775.9679 0 1.6454.3872 2.0325 1.2583.1936.4839.2904 1.1614.2904 1.9357s-.0968 1.4518-.2904 1.9357c-.2903.9678-1.0646 1.5486-2.0325 1.5486Zm-.4839-5.5168c-.2903.1935-.3871.4839-.3871.9678 0 .3872.0968.6775.1935.8711.1936.1936.3872.2904.6775.2904.1936 0 .3872-.0968.484-.1936.2903-.1936.3871-.4839.3871-.9679 0-.3871-.0968-.6775-.2903-.871-.1936-.1936-.3872-.2904-.6775-.2904l-.3872.1936Zm5.5168 5.5168c-.4839 0-.8711-.0968-1.2582-.3872-.3871-.2903-.5807-.6775-.6775-1.2582h1.2582c0 .1936.0968.3871.1936.4839s.2903.1936.4839.1936c.3872 0 .6775-.1936.8711-.6775.0968-.2904.1936-.5807.1936-1.1614-.0968.1935-.1936.2903-.3872.2903-.1936.0968-.4839.1936-.8711.1936-.4839 0-.9678-.1936-1.355-.4839-.3871-.3872-.5807-.8711-.5807-1.5486s.1936-1.2582.5807-1.6454c.3872-.3871.8711-.6775 1.5486-.6775.9679 0 1.6454.3872 2.0325 1.2583.1936.4839.2904 1.1614.2904 1.9357s-.0968 1.4518-.2904 1.9357c-.2903.9678-.9678 1.5486-2.0325 1.5486Zm-.3871-5.5168c-.2904.1935-.3872.4839-.3872.9678 0 .3872.0968.6775.1936.8711.1936.1936.3871.2904.6775.2904.1936 0 .3871-.0968.4839-.1936.2904-.1936.3872-.4839.3872-.9679 0-.3871-.0968-.6775-.2904-.871-.1936-.1936-.3871-.2904-.6775-.2904-.0968 0-.2903.0968-.3871.1936Zm3.6778 3.9682h1.355v1.355h-1.355v-1.355Zm4.3554 1.5486c-.4839 0-.8711-.0968-1.2582-.3872-.3872-.2903-.5807-.6775-.6775-1.2582h1.2582c0 .1936.0968.3871.1936.4839s.2903.1936.4839.1936c.3871 0 .6775-.1936.8711-.6775.0968-.2904.1935-.5807.1935-1.1614-.0967.1935-.1935.2903-.3871.2903-.1936.0968-.4839.1936-.8711.1936-.4839 0-.9678-.1936-1.355-.4839-.3871-.3872-.5807-.8711-.5807-1.5486s.1936-1.2582.5807-1.6454c.3872-.3871.8711-.6775 1.5486-.6775.9679 0 1.6454.3872 2.0325 1.2583.1936.4839.2904 1.1614.2904 1.9357s-.0968 1.4518-.2904 1.9357c-.3871.9678-1.0646 1.5486-2.0325 1.5486Zm-.4839-5.5168c-.2904.1935-.3872.4839-.3872.9678 0 .3872.0968.6775.1936.8711.1936.1936.3871.2904.6775.2904.1936 0 .3871-.0968.4839-.1936.2904-.1936.3872-.4839.3872-.9679 0-.3871-.0968-.6775-.2904-.871-.1936-.1936-.3871-.2904-.6775-.2904 0 0-.1936.0968-.3871.1936Zm5.5168 5.5168c-.484 0-.8711-.0968-1.2583-.3872-.3871-.2903-.5807-.6775-.6775-1.2582h1.2583c0 .1936.0968.3871.1935.4839.0968.0968.2904.1936.484.1936.3871 0 .6775-.1936.871-.6775.0968-.2904.1936-.5807.1936-1.1614-.0968.1935-.1936.2903-.3871.2903-.1936.0968-.484.1936-.8711.1936-.4839 0-.9679-.1936-1.355-.4839-.3871-.3872-.5807-.8711-.5807-1.5486s.1936-1.2582.5807-1.6454c.3871-.3871.8711-.6775 1.5486-.6775.9678 0 1.6453.3872 2.0325 1.2583.1935.4839.2903 1.1614.2903 1.9357s-.0968 1.4518-.2903 1.9357c-.2904.9678-.9679 1.5486-2.0325 1.5486Zm-.3872-5.5168c-.2903.1935-.3871.4839-.3871.9678 0 .3872.0968.6775.1936.8711.1935.1936.3871.2904.6775.2904.1935 0 .3871-.0968.4839-.1936.2903-.1936.3871-.4839.3871-.9679 0-.3871-.0968-.6775-.2903-.871-.1936-.1936-.3872-.2904-.6775-.2904-.0968 0-.2904.0968-.3872.1936ZM34.9717 87.2344h4.5489v.7743h-3.6778v1.9357h3.1939v.7743h-3.1939v3.0003h-.8711v-6.4846Zm6.1943 1.7421v3.194c0 .2903 0 .4839.0968.5807.0967.2903.3871.3871.7742.3871.5808 0 .9679-.2903 1.1615-.7743.0968-.2903.1935-.6775.1935-1.0646v-2.3229h.7743v4.7425h-.7743v-.6775c-.0967.1936-.1935.2904-.3871.484-.2904.2903-.6775.3871-1.0646.3871-.6775 0-1.1615-.1936-1.355-.6775-.0968-.2904-.1936-.5807-.1936-.9679v-3.1939h.7743v-.0968Zm4.2586-1.7421h.7742v6.4846h-.7742v-6.4846Zm2.0325 0h.7742v6.4846h-.7742v-6.4846Zm6.5814 6.0007c.3871 0 .6775-.1936.9679-.4839.2903-.2904.3871-.7743.3871-1.4518 0-.3872-.0968-.6775-.1936-.9679-.1935-.4839-.5807-.7743-1.1614-.7743s-.9679.2904-1.1614.8711c-.0968.2904-.1936.6775-.1936 1.1614 0 .3872.0968.6775.1936.9679.1935.4839.5807.6775 1.1614.6775Zm-2.1293-4.1618h.7743v.6775c.1936-.1936.2904-.3871.4839-.4839.2904-.1936.5807-.2904.9679-.2904.5807 0 .9678.1936 1.355.5807.3871.3872.5807.9679.5807 1.7422 0 1.0646-.2904 1.7421-.7743 2.2261-.3871.2903-.7743.3871-1.1614.3871-.3872 0-.6775-.0968-.8711-.1936-.0968-.0968-.2903-.1935-.4839-.4839v2.4197h-.7743v-6.5815h-.0968Zm5.2264-.0968h.6775v.7743c.0968-.1936.1936-.3871.484-.5807.2903-.1936.4839-.3871.8711-.3871h.2903v.871h-.1936c-.3871 0-.6775.0968-.9678.3872-.1936.2903-.2904.5807-.2904.871v2.71h-.7743v-4.6457h-.0968Zm3.0004.0968h.7743v4.7425h-.7743v-4.7425Zm0-1.8389h.7743v.871h-.7743v-.871Zm3.8714 1.6453c.5808 0 .9679.0968 1.2583.3872.2903.2903.5807.6775.5807 1.355h-.7743c0-.2904-.1936-.5807-.2904-.7743-.1935-.1936-.4839-.2904-.7743-.2904-.4839 0-.871.2904-1.0646.7743-.0968.2904-.1936.6775-.1936 1.1615 0 .4839.0968.871.2904 1.1614.1936.2903.4839.4839.9678.4839.2904 0 .5808-.0968.7743-.2903.1936-.1936.2904-.484.3872-.8711h.7743c-.0968.6775-.2904 1.0646-.6775 1.355-.3872.2903-.7743.3871-1.355.3871-.5808 0-1.1615-.1935-1.4518-.6775-.3872-.4839-.5807-1.0646-.5807-1.7421 0-.8711.1935-1.4518.5807-1.9357.3871-.2904.871-.484 1.5485-.484Zm4.6458 0c.2903 0 .6775.0968.9678.1936.2904.1936.5807.3872.6775.5807.1936.1936.2904.484.2904.8711 0 .1936.0968.5807.0968 1.0646h-3.4843c0 .484.0968.8711.3871 1.1615.1936.2903.5807.4839.9679.4839.3871 0 .7743-.0968.9678-.3871.0968-.1936.2904-.3872.2904-.5808h.7743c0 .1936-.0968.3872-.1936.5808-.0968.1935-.2903.3871-.3871.4839-.2904.1936-.5807.3871-.8711.4839-.1936 0-.3871.0968-.6775.0968-.5807 0-1.0646-.1936-1.5486-.6775-.3871-.3871-.5807-1.0646-.5807-1.8389s.1936-1.355.5807-1.839c.5807-.3871 1.0647-.6775 1.7422-.6775Zm1.2582 2.1293c0-.3871-.0968-.5807-.1936-.871-.1936-.3872-.5807-.5808-1.0646-.5808-.3872 0-.6775.0968-.9679.3872-.2904.2903-.3871.5807-.3871.9678h2.6132v.0968Z"/><path stroke="#008060" d="M5.25858 19H99.7216c2.3224 0 4.2584 1.9357 4.2584 4.2586v79.6544c0 2.323-1.936 4.259-4.2584 4.259H5.25858C2.93572 107.172 1 105.236 1 102.913V23.2586C1 20.9357 2.93572 19 5.25858 19Z"/><path fill="#6D7175" d="m166.117 33.905-.097-.1936 1.936-1.355h-.097l-.29-.0967c-.484-.1936-.968-.1936-1.452-.1936-2.517 0-4.646 2.1293-4.646 4.8393 0 .7743.194 1.5486.581 2.2261l-.194.0967c-.387-.6775-.581-1.5485-.581-2.3228 0-2.8068 2.13-5.0329 4.84-5.0329.58 0 1.258.0968 1.839.3872l-1.259-2.0325.194-.0968 1.452 2.3228-2.226 1.4518Zm-1.065 7.8397c.387.0968.774.0968 1.162.0968 2.71 0 4.839-2.2261 4.839-5.0329 0-.7743-.194-1.5486-.484-2.2261l-.194.0968c.291.6775.484 1.355.484 2.1293 0 2.6132-2.032 4.8393-4.645 4.8393-.388 0-.775-.0968-1.162-.1936l1.742-1.5486-.097-.0967-2.032 1.7421 1.742 2.1293.194-.0968-1.549-1.8389Z"/><path fill="#6D7175" d="m166.02 33.7113-.097-.0968-.097.0968.097.0968.097-.0968Zm.097.1935-.097.0968.097.0968.097-.0968-.097-.0968Zm1.839-1.5485.096.0968.388-.2904h-.484v.1936Zm0 0-.097.0968v-.0968h.097Zm-.291-.0968.097-.0968-.097.0968Zm-1.451-.1936v.0968-.0968Zm-4.065 7.0654.096.0968.097-.0968-.097-.0968-.096.0968Zm-.194.0968-.097.0968.097.0967.097-.0967-.097-.0968Zm6.097-7.0654-.096.0968.387.1936-.194-.3872-.097.0968Zm-1.258-2.0325-.097-.0968-.096.0968.096.0968.097-.0968Zm.097-.0968.097-.0968-.097-.0968-.097.0968.097.0968Zm1.452 2.3229.097.0968.096-.0968-.096-.0968-.097.0968Zm-3.291 9.3882v-.0968l-.387-.0968.29.2904.097-.0968Zm5.517-7.0654.097-.0968-.097-.0967-.097.0967.097.0968Zm-.194.0968-.096-.0968-.097.0968.097.0968.096-.0968Zm-5.323 6.775-.097-.0968-.193.1936.29.0968v-.1936Zm1.839-1.5485.097.0967.097-.0967-.097-.0968-.097.0968Zm-.194-.0968.097-.0968-.097-.0968-.096.0968.096.0968Zm-2.032 1.7421-.097-.0968-.097.0968.097.0968.097-.0968Zm1.742 2.1293-.097.0968.097.0968.097-.0968-.097-.0968Zm.194-.1936.096.0968.097-.0968-.097-.0967-.096.0967Zm-.678-9.7753.097.1935.29-.1935-.096-.1936-.291.1936Zm2.033-1.5486-1.936 1.355.194.1936 1.935-1.355-.193-.1936Zm0 .2903.096-.2903h-.096v.2903Zm-.291-.0967.291.0967.096-.2903-.29-.0968-.097.2904Zm-1.451-.2904c.483 0 .967.0968 1.451.1936l.097-.2904c-.484-.1936-.968-.1936-1.548-.1936v.2904Zm-4.549 4.7425c0-2.6132 2.032-4.6457 4.549-4.6457v-.2904c-2.614 0-4.84 2.2261-4.84 4.9361h.291Zm.58 2.1293c-.387-.6775-.58-1.4518-.58-2.2261h-.291c0 .7743.194 1.6454.581 2.3229l.29-.0968Zm-.193.2904.193-.0968-.096-.2904-.194.0968.097.2904Zm-.775-2.4197c0 .8711.194 1.6454.581 2.4197l.291-.0968c-.388-.6775-.581-1.4518-.581-2.3229h-.291Zm4.937-5.2264c-2.71 0-4.937 2.3228-4.937 5.1296h.291c0-2.71 2.129-4.8393 4.646-4.8393v-.2903Zm1.838.3871c-.58-.1936-1.161-.3871-1.838-.3871v.2903c.58 0 1.161.0968 1.742.3872l.096-.2904Zm-1.355-1.8389 1.259 2.0325.29-.1936-1.258-2.0325-.291.1936Zm.194-.2904-.194.0968.097.2904.194-.0968-.097-.2904Zm1.549 2.4197-1.452-2.3229-.291.1936 1.452 2.3228.291-.1935Zm-2.226 1.6453 2.226-1.4518-.194-.1935-2.226 1.4518.194.1935Zm0 7.7429c-.388 0-.775-.0968-1.065-.0968l-.097.2904c.387.0968.774.0968 1.162.0968v-.2904Zm4.742-4.8393c0 2.71-2.129 4.8393-4.646 4.8393v.2904c2.71 0 4.936-2.3229 4.936-5.1297h-.29Zm-.484-2.1293c.29.6775.484 1.355.484 2.1293h.29c0-.7743-.193-1.5486-.484-2.3229l-.29.1936Zm0 .0968.194-.0968-.097-.2903-.194.0967.097.2904Zm.581 2.0325c0-.7743-.194-1.5486-.484-2.2261l-.29.0968c.29.6775.483 1.355.483 2.0325h.291v.0968Zm-4.839 4.9361c2.613 0 4.839-2.2261 4.839-4.9361h-.291c0 2.6132-2.032 4.6457-4.548 4.6457v.2904Zm-1.162-.0968c.387.0968.774.1936 1.162.1936v-.2904c-.388 0-.775-.0968-1.065-.1936l-.097.2904Zm1.742-1.8389-1.742 1.5485.194.1936 1.742-1.5486-.194-.1935Zm-.193.0968.096.0967.194-.1935-.097-.0968-.193.1936Zm-1.839 1.7421 2.032-1.7421-.193-.1936-2.033 1.7421.194.1936Zm1.742 1.9357-1.742-2.1293-.194.1936 1.742 2.1293.194-.1936Zm0-.1935-.194.0967.194.1936.193-.0968-.193-.1935Zm-1.549-1.6454 1.452 1.8389.194-.1935-1.452-1.839-.194.1936ZM166.02 36.5185c.29 0 .484.0968.581.2904.193.1936.193.3871.193.6775s-.097.4839-.193.6775c-.194.1936-.388.2904-.775.2904s-.58-.1936-.774-.484c-.097-.1935-.194-.4839-.194-.8711v-.4839c0-.1936.097-.4839.194-.5807s.194-.2904.29-.2904c.097-.0967.291-.0967.484-.0967.291 0 .484.0967.581.1935.194.0968.29.2904.29.5807h-.58s0-.0967-.097-.1935c-.097-.0968-.194-.0968-.291-.0968-.193 0-.29.0968-.387.2903 0 .0968-.096.2904-.096.484.096-.0968.193-.0968.193-.1936.387-.1936.484-.1936.581-.1936Zm-.387.484c-.097.0968-.194.1935-.194.3871s0 .2904.097.3871c.097.0968.193.0968.29.0968.097 0 .194 0 .291-.0968.096-.0967.096-.1935.096-.3871s0-.2903-.096-.3871c-.097-.0968-.194-.0968-.291-.0968 0 0-.097.0968-.193.0968ZM137.855 59.0691h-3.194v1.6453h3.581v1.1615h-4.936v-6.5815h4.84v1.2583h-3.485v1.355h3.194v1.1614Zm.871-1.9357h1.452l.968 3.581 1.065-3.581h1.355l-1.743 4.8393h-1.355l-1.742-4.8393Zm9.679 3.3875c0 .2903-.194.5807-.484.871-.387.484-.968.6775-1.742.6775-.581 0-1.162-.1935-1.646-.5807-.483-.3871-.677-1.0646-.677-1.9357s.194-1.4518.677-1.9357c.388-.4839.968-.6775 1.646-.6775.387 0 .774.0968 1.064.1936.291.1935.581.3871.775.6775.193.2903.29.5807.387.9678v.9679h-3.291c0 .4839.194.8711.484 1.0646.194.0968.387.1936.678.1936.29 0 .484-.0968.677-.1936.097-.0968.194-.1935.194-.2903h1.258Zm-1.258-1.4518c0-.2904-.097-.5807-.291-.7743-.193-.1936-.387-.2904-.677-.2904-.291 0-.484.0968-.678.2904-.193.1936-.29.3871-.29.7743h1.936Zm4.645-.7743c-.484 0-.871.1936-1.064.4839-.097.1936-.194.484-.194.8711v2.3229h-1.258v-4.8393h1.161v.871c.194-.2903.388-.5807.484-.6775.194-.1935.581-.2903.968-.2903h.194v1.2582H151.792Zm3.098 2.3229.967-3.5811h1.355l-1.645 4.7425c-.29.8711-.581 1.4518-.774 1.7421-.194.1936-.581.2904-1.162.2904h-.58v-.9679H153.631c.097 0 .194-.0967.291-.0967.096-.0968.096-.1936.193-.2904.097-.1936.097-.2904.097-.2904l-1.742-5.0328h1.452l.968 3.4843Zm7.839-2.9036c.581 0 1.065.1936 1.452.5807s.581.8711.581 1.4518-.194 1.1614-.581 1.5486c-.387.3871-.871.6775-1.645.6775-.775 0-1.452-.3872-1.839-1.0647-.291-.4839-.484-1.2582-.484-2.0325 0-.4839 0-.8711.097-1.1614.096-.5807.193-.9679.387-1.355.193-.2904.387-.5807.677-.7743.291-.1936.678-.2904 1.065-.2904.581 0 1.064.1936 1.452.484.387.2903.58.6775.58 1.2582h-1.258c0-.0968 0-.1936-.097-.3872-.096-.1935-.387-.2903-.58-.2903-.388 0-.678.1936-.871.6775-.097.2903-.194.6775-.194 1.1614.194-.1936.387-.2903.581-.3871.096 0 .387-.0968.677-.0968Zm-.871 1.2582c-.29.1936-.387.4839-.387.9679 0 .3871.097.6775.29.871.194.1936.387.2904.678.2904.29 0 .484-.0968.677-.2904.194-.1935.291-.4839.291-.871 0-.3872-.097-.6775-.291-.8711-.193-.1936-.387-.2904-.677-.2904-.291 0-.387.0968-.581.1936Zm7.549 3.0004h-1.258v-6.5815h2.033l1.161 5.1297 1.162-5.1297h1.935v6.5815h-1.258V56.3591l-1.258 5.5168h-1.355l-1.258-5.5168v5.6136h.096Zm10.357-4.2586c.387.4839.58 1.1614.58 1.8389s-.193 1.355-.58 1.8389c-.388.484-1.065.7743-1.839.7743-.871 0-1.452-.2903-1.839-.7743-.388-.4839-.581-1.1614-.581-1.8389s.193-1.2582.581-1.8389c.387-.4839 1.064-.7743 1.839-.7743.774 0 1.355.2904 1.839.7743Zm-1.936.2903c-.387 0-.678.0968-.871.3872-.194.2903-.291.6775-.291 1.1614s.097.8711.291 1.1614c.193.2904.484.3872.871.3872s.677-.0968.871-.3872c.193-.2903.29-.6775.29-1.1614s-.097-.8711-.29-1.1614c-.194-.2904-.484-.3872-.871-.3872Zm5.71 0c-.387 0-.677.1936-.871.5808-.097.1935-.097.4839-.097.7742v2.6133h-1.258v-4.8393h1.258v.6775c.194-.2904.291-.3872.484-.5807.291-.1936.581-.2904.968-.2904.484 0 .871.0968 1.258.3871.291.2904.484.6775.484 1.2583v3.2907h-1.258v-2.9036c0-.2904 0-.4839-.097-.5807-.29-.1936-.58-.3872-.871-.3872Zm5.517 3.0004v.9679h-.581c-.58 0-.968-.0968-1.258-.2904-.097-.0968-.194-.3871-.194-.6775v-3.0004h-.677v-.871h.677v-1.355h1.259v1.355h.774v.871h-.774v2.5165c0 .1935 0 .2903.096.3871.097 0 .194.0968.484.0968h.194Zm5.13-1.9357v2.8068h-1.259v-2.9036c0-.2904 0-.4839-.096-.6775-.097-.1936-.291-.2904-.678-.2904-.29 0-.581.0968-.774.2904-.194.1936-.291.5807-.291.9679v2.6132h-1.258v-6.4847h1.258v2.3229c.194-.2904.388-.4839.678-.5807.29-.0968.484-.1936.774-.1936.291 0 .581.0968.775.1936.29.0968.483.2903.58.4839.097.1936.194.3871.291.5807v.8711Zm4.549-1.7422c.387.2904.58.6775.677 1.2583h-1.258c0-.1936-.097-.2904-.097-.3872-.097-.1936-.387-.2903-.677-.2903-.291 0-.484 0-.581.0967-.097.0968-.194.1936-.194.2904s.097.2904.194.2904c.097.0967.581.1935 1.355.3871.484.0968.871.2904 1.161.5807.291.2904.387.5807.387.8711 0 .4839-.193.8711-.58 1.1614-.387.2904-.871.4839-1.646.4839-.774 0-1.355-.1935-1.645-.4839-.387-.2903-.581-.7743-.581-1.2582h1.258c0 .1936.097.3871.194.4839.194.1936.484.2904.871.2904.29 0 .484 0 .581-.0968.193-.0968.193-.1936.193-.2904 0-.0967-.096-.2903-.193-.2903-.097-.0968-.581-.1936-1.355-.3872-.581-.0967-.968-.2903-1.162-.4839-.193-.1936-.29-.4839-.29-.8711 0-.4839.194-.871.484-1.1614.387-.2903.871-.4839 1.452-.4839.58-.0968 1.064 0 1.452.2903ZM133.79 79.5882c-.58-.1936-.968-.3872-1.161-.6775-.194-.2904-.387-.6775-.387-1.0647 0-.2903 0-.4839.096-.7743.097-.1935.194-.3871.388-.5807.193-.1936.484-.3871.677-.4839.194-.0968.387-.0968.678-.0968v-.5807h.387v.5807c.484 0 .871.1936 1.161.3871.484.2904.774.8711.774 1.5486h-1.161c0-.2903-.097-.4839-.097-.5807-.097-.1936-.29-.2904-.58-.3871v1.6453c.677.2904 1.161.484 1.451.6775.388.2904.581.7743.581 1.355 0 .7743-.29 1.2582-.774 1.6454-.291.1936-.775.2903-1.162.3871v.8711h-.387v-.8711c-.581-.0968-1.064-.1935-1.258-.3871-.484-.3872-.774-.9679-.774-1.7422h1.161c0 .3872.097.5808.194.7743.096.1936.387.2904.677.3872V79.685l-.484-.0968Zm.775.2903v1.7422c.193 0 .387-.0968.483-.1936.194-.0968.291-.3871.291-.6775s-.097-.4839-.291-.5807c-.096-.1936-.29-.1936-.483-.2904Zm-.484-1.355v-1.5486c-.291 0-.484.0968-.581.1936-.097.0968-.194.2904-.194.5807 0 .2904.097.484.291.5808.096 0 .29.0967.484.1935Zm5.129 4.065c-.484 0-.871-.0968-1.258-.3871-.387-.2904-.581-.6775-.677-1.2582h1.258c0 .1935.097.3871.193.4839.097.0968.291.1936.484.1936.387 0 .678-.1936.871-.6775.097-.2904.194-.5807.194-1.1615-.097.1936-.194.2904-.387.2904-.194.0968-.484.1936-.871.1936-.484 0-.968-.1936-1.355-.484-.387-.3871-.581-.871-.581-1.5485s.194-1.2583.581-1.6454c.387-.3871.871-.6775 1.548-.6775.968 0 1.646.3872 2.033 1.2582.193.484.29 1.1615.29 1.9357 0 .7743-.097 1.4518-.29 1.9358-.291 1.0646-.968 1.5485-2.033 1.5485Zm-.387-5.42c-.29.1936-.387.484-.387.9679 0 .3871.097.6775.194.871.193.1936.387.2904.677.2904.194 0 .387-.0968.484-.1936.29-.1935.387-.4839.387-.9678 0-.3872-.097-.6775-.29-.8711-.194-.1936-.387-.2904-.678-.2904-.096 0-.29.0968-.387.1936Zm5.517 5.42c-.484 0-.871-.0968-1.258-.3871-.387-.2904-.581-.6775-.678-1.2582h1.258c0 .1935.097.3871.194.4839s.29.1936.484.1936c.387 0 .677-.1936.871-.6775.097-.2904.194-.5807.194-1.1615-.097.1936-.194.2904-.388.2904-.193.0968-.483.1936-.871.1936-.484 0-.967-.1936-1.355-.484-.387-.3871-.58-.871-.58-1.5485s.193-1.2583.58-1.6454c.388-.3871.871-.6775 1.549-.6775.968 0 1.645.3872 2.032 1.2582.194.484.291 1.1615.291 1.9357 0 .7743-.097 1.4518-.291 1.9358-.387 1.0646-1.064 1.5485-2.032 1.5485Zm-.484-5.42c-.29.1936-.387.484-.387.9679 0 .3871.097.6775.193.871.194.1936.388.2904.678.2904.194 0 .387-.0968.484-.1936.29-.1935.387-.4839.387-.9678 0-.3872-.097-.6775-.29-.8711-.194-.1936-.387-.2904-.678-.2904-.097 0-.193.0968-.387.1936Zm3.678 3.8715h1.355v1.355h-1.355V81.04Zm4.355 1.5485c-.484 0-.871-.0968-1.258-.3871-.387-.2904-.581-.6775-.677-1.2582h1.258c0 .1935.097.3871.193.4839.097.0968.291.1936.484.1936.387 0 .678-.1936.871-.6775.097-.2904.194-.5807.194-1.1615-.097.1936-.194.2904-.387.2904-.194.0968-.484.1936-.871.1936-.484 0-.968-.1936-1.355-.484-.387-.3871-.581-.871-.581-1.5485s.194-1.2583.581-1.6454c.387-.3871.871-.6775 1.548-.6775.968 0 1.646.3872 2.033 1.2582.193.484.29 1.1615.29 1.9357 0 .7743-.097 1.4518-.29 1.9358-.291 1.0646-.968 1.5485-2.033 1.5485Zm-.484-5.42c-.29.1936-.387.484-.387.9679 0 .3871.097.6775.194.871.193.1936.387.2904.677.2904.194 0 .387-.0968.484-.1936.291-.1935.387-.4839.387-.9678 0-.3872-.096-.6775-.29-.8711-.194-.1936-.387-.2904-.678-.2904 0 0-.193.0968-.387.1936Zm5.517 5.42c-.484 0-.871-.0968-1.258-.3871-.387-.2904-.581-.6775-.678-1.2582h1.259c0 .1935.096.3871.193.4839s.291.1936.484.1936c.387 0 .678-.1936.871-.6775.097-.2904.194-.5807.194-1.1615-.097.1936-.194.2904-.387.2904-.194.0968-.484.1936-.871.1936-.484 0-.968-.1936-1.355-.484-.388-.3871-.581-.871-.581-1.5485s.193-1.2583.581-1.6454c.387-.3871.871-.6775 1.548-.6775.968 0 1.645.3872 2.033 1.2582.193.484.29 1.1615.29 1.9357 0 .7743-.097 1.4518-.29 1.9358-.291 1.0646-.968 1.5485-2.033 1.5485Zm-.387-5.42c-.29.1936-.387.484-.387.9679 0 .3871.097.6775.193.871.194.1936.388.2904.678.2904.193 0 .387-.0968.484-.1936.29-.1935.387-.4839.387-.9678 0-.3872-.097-.6775-.29-.8711-.194-.1936-.388-.2904-.678-.2904-.097 0-.29.0968-.387.1936Zm7.646 7.0654-.29-.3872c-.194-.2903-.387-.6775-.678-1.1614-.387-.9678-.581-1.8389-.581-2.71 0-.7743.194-1.6454.484-2.4196.194-.5808.581-1.1615 1.065-1.7422h.968l-.29.4839c-.388.6775-.678 1.355-.775 2.1293-.097.484-.097 1.0647-.097 1.6454 0 .8711.097 1.7421.388 2.5164.193.484.387 1.0647.774 1.7422h-.968v-.0968Zm4.162-6.9686c-.194-.1936-.387-.2904-.678-.2904-.387 0-.677.0968-.774.3872-.097.1936-.097.3871-.097.7743h-1.258c0-.5807.097-.9679.29-1.355.291-.6775.968-.9679 1.839-.9679.678 0 1.259.1936 1.646.5807.387.3872.58.8711.58 1.4518 0 .484-.096.8711-.387 1.2582-.193.2904-.484.484-.968.7743l-.484.3872c-.29.1935-.58.3871-.677.4839-.097.0968-.194.1936-.29.3871h2.806v1.1615h-4.452c0-.484.097-.8711.291-1.2582.193-.3872.58-.8711 1.258-1.355.581-.3872.968-.6775 1.161-.8711.291-.2904.387-.5807.387-.9679.097-.1936 0-.3871-.193-.5807Zm4.452 5.3232c-.774 0-1.355-.2903-1.742-.871-.291-.5808-.484-1.355-.484-2.4197 0-1.0646.193-1.8389.484-2.4196.29-.5808.871-.8711 1.742-.8711.774 0 1.355.2903 1.742.8711.291.5807.484 1.355.484 2.4196 0 1.0647-.193 1.8389-.484 2.4197-.387.5807-.968.871-1.742.871Zm.774-1.6453c.097-.3872.194-.9679.194-1.7422s-.097-1.355-.194-1.7421c-.096-.3872-.387-.5807-.774-.5807s-.581.1935-.774.5807c-.097.3871-.194.9678-.194 1.7421s.097 1.355.194 1.7422c.096.3871.387.5807.774.5807s.581-.1936.774-.5807Zm6.291-.0968c0-.4839.194-.8711.484-1.1614.291-.2904.678-.484 1.162-.484.484 0 .871.1936 1.161.484.291.2903.484.6775.484 1.1614s-.193.8711-.484 1.1614c-.29.2904-.677.4839-1.161.4839s-.871-.1935-1.162-.4839c-.29-.2903-.484-.6775-.484-1.1614Zm-3.774-2.0325c-.291-.2904-.484-.6775-.484-1.1614 0-.484.193-.8711.484-1.1615.29-.2903.677-.4839 1.161-.4839s.871.1936 1.162.4839c.29.2904.484.6775.484 1.1615 0 .4839-.194.871-.484 1.1614-.291.2903-.678.4839-1.162.4839-.484 0-.871-.1936-1.161-.4839Zm1.839 3.7746h-.678l3.581-6.5814h.678l-3.581 6.5814Zm3.097-1.1614c.097.0968.29.1936.484.1936.193 0 .387-.0968.484-.1936.096-.0968.193-.2904.193-.4839 0-.1936-.097-.3872-.193-.484-.097-.0967-.291-.1935-.484-.1935-.194 0-.387.0968-.484.1935-.097.0968-.194.2904-.194.484 0 .0968.097.2903.194.4839Zm-4.259-3.2907c.097.0968.291.1936.484.1936.194 0 .387-.0968.484-.1936.097-.0968.194-.2904.194-.4839 0-.1936-.097-.3872-.194-.484s-.29-.1936-.484-.1936c-.193 0-.387.0968-.484.1936-.097.0968-.193.2904-.193.484-.097.1935 0 .3871.193.4839Zm13.841 0c.387.4839.58 1.1614.58 1.8389s-.193 1.355-.58 1.8389c-.388.484-1.065.7743-1.839.7743-.871 0-1.452-.2903-1.839-.7743-.387-.4839-.581-1.1614-.581-1.8389s.194-1.2582.581-1.8389c.387-.4839 1.064-.7743 1.839-.7743.774 0 1.451.2904 1.839.7743Zm-1.839.3871c-.387 0-.678.0968-.871.3872-.194.2903-.291.6775-.291 1.1614s.097.8711.291 1.1614c.193.2904.484.3872.871.3872s.677-.0968.871-.3872c.193-.2903.29-.6775.29-1.1614s-.097-.8711-.29-1.1614c-.194-.2904-.484-.3872-.871-.3872Zm5.613-2.71v1.0647h-.387c-.193 0-.29 0-.387.0967-.097.0968-.097.1936-.097.2904v.3872h.871v.871h-.871v3.8715h-1.161v-3.8715h-.678v-.871h.678v-.2904c0-.4839.097-.8711.29-1.0647.194-.2903.581-.4839 1.355-.4839h.387Zm3.097 0v1.0647h-.387c-.193 0-.29 0-.387.0967-.097.0968-.097.1936-.097.2904v.3872h.871v.871h-.871v3.8715h-1.258v-3.8715h-.677v-.871h.677v-.2904c0-.4839.097-.8711.29-1.0647.194-.2903.581-.4839 1.355-.4839h.484Zm1.452 8.0332-.29.3872h-.968c.387-.6775.677-1.2582.774-1.7422.291-.7742.387-1.5485.387-2.5164 0-.5807 0-1.1614-.096-1.6453-.097-.7743-.388-1.4518-.775-2.1293l-.29-.484h.968c.484.5808.774 1.2582 1.064 1.7422.388.7743.484 1.6453.484 2.4196 0 .8711-.193 1.839-.58 2.71-.194.5807-.484.9679-.678 1.2582ZM129.338 89.5573h.871v6.4846h-.871v-6.4846Zm2.226 1.7421h.775v.6775c.193-.2903.483-.4839.677-.5807.29-.0968.484-.1936.871-.1936.678 0 1.162.1936 1.355.6775.097.2904.194.5808.194 1.0647v3.0971h-.775v-3.0003c0-.2904 0-.484-.096-.6775-.097-.2904-.388-.484-.775-.484-.193 0-.387 0-.484.0968-.193.0968-.387.1936-.58.3872-.097.1935-.194.2903-.291.4839 0 .1936-.096.3871-.096.6775v2.5164h-.775v-4.7425Zm5.614 3.2907c0 .2904.097.484.193.5808.194.2903.581.3871 1.065.3871.29 0 .581-.0968.774-.1936.194-.0968.291-.2903.291-.5807 0-.1936-.097-.3871-.291-.4839-.096-.0968-.387-.0968-.677-.1936l-.678-.1936c-.387-.0967-.677-.1935-.871-.2903-.387-.1936-.484-.4839-.484-.8711 0-.4839.194-.7743.484-1.0646.291-.2904.775-.3872 1.355-.3872.678 0 1.258.1936 1.549.6775.193.2904.29.5807.29.8711h-.774c0-.1936-.097-.3871-.194-.4839-.193-.1936-.484-.2904-.968-.2904-.29 0-.483.0968-.677.1936-.194.0968-.194.2903-.194.4839s.097.3872.291.4839c.097.0968.29.0968.484.1936l.484.0968c.58.0968.967.2904 1.161.3871.29.1936.484.484.484.9679 0 .3871-.194.7743-.484 1.0646-.29.2904-.774.484-1.452.484-.677 0-1.258-.1936-1.548-.484-.291-.2903-.484-.6775-.484-1.1614h.871v-.1936Zm4.162-4.6457h.774v1.355h.774v.6775h-.774v3.0972c0 .1935.097.2903.193.2903.097 0 .194.0968.291.0968H142.888v.6775c-.097 0-.193 0-.29.0968h-.291c-.387 0-.58-.0968-.774-.2904-.097-.1935-.193-.4839-.193-.7742v-3.194h-.678v-.6775h.678v-1.355Zm4.355 1.2582c.29 0 .677.0968.968.1936.29.1936.581.3872.677.5807.194.1936.291.484.291.8711 0 .1936.096.5807.096 1.0646h-3.484c0 .484.097.8711.387 1.1615.194.2903.581.4839.968.4839s.774-.0968.968-.3871c.097-.1936.29-.3872.29-.5808h.775c0 .1936-.097.3872-.194.5808-.097.1935-.29.3871-.387.4839-.29.1936-.581.3871-.871.4839-.194 0-.387.0968-.678.0968-.58 0-1.064-.1936-1.548-.6775-.387-.3871-.581-1.0646-.581-1.8389s.194-1.355.581-1.839c.581-.4839 1.161-.6775 1.742-.6775Zm1.355 2.1293c0-.3871-.097-.5807-.194-.871-.193-.3872-.58-.5808-1.064-.5808-.387 0-.678.0968-.968.3872-.29.2903-.387.5807-.387.9678h2.613v.0968Zm2.42 1.4518c0 .1936.096.3872.29.5807.194.0968.387.1936.581.1936.29 0 .58-.0968.774-.1936.484-.1935.677-.5807.677-1.0646v-.6775c-.096.0968-.193.0968-.387.1936-.193 0-.29.0967-.484.0967l-.484.0968c-.29 0-.483.0968-.677.1936-.194.0968-.29.2904-.29.5807Zm1.935-1.6453c.194 0 .291-.0968.387-.1936 0-.0968.097-.1936.097-.2904 0-.2903-.097-.4839-.29-.5807-.194-.0968-.484-.1936-.871-.1936s-.678.0968-.871.2904c-.097.0968-.194.2904-.194.5807h-.774c0-.5807.193-.9678.581-1.2582.387-.1936.774-.3872 1.258-.3872.581 0 .968.0968 1.355.2904s.484.5807.484.9679v2.71c0 .0968 0 .1935.097.1935 0 .0968.096.0968.193.0968h.194v.5807c-.097 0-.194.0968-.291.0968h-.29c-.29 0-.484-.0968-.581-.2903-.097-.0968-.097-.2904-.097-.484-.193.1936-.387.3872-.677.5808-.29.1935-.678.1935-.968.1935-.484 0-.774-.0968-1.065-.3871-.29-.2904-.387-.5807-.387-.9679 0-.4839.097-.7743.387-1.0646.291-.2904.678-.3872 1.065-.4839h1.258Zm3.001.5807c0 .4839.096.9678.29 1.2582.194.3871.581.4839 1.065.4839.387 0 .677-.1936.871-.4839.193-.2904.387-.7743.387-1.355s-.097-1.0647-.387-1.355c-.291-.2904-.581-.4839-.871-.4839-.387 0-.775.1935-.968.4839-.291.3871-.387.8711-.387 1.4518Zm1.161-2.5165c.387 0 .678.0968.871.1936.097.0968.291.2904.484.4839v-2.4196h.774v6.5814h-.677v-.6775c-.194.2904-.387.484-.678.6775-.29.0968-.58.1936-.871.1936-.484 0-.968-.1936-1.355-.6775s-.58-1.0646-.58-1.7421.193-1.2583.484-1.839c.387-.4839.967-.7743 1.548-.7743Zm7.84 4.3554c.484 0 .871-.1936 1.064-.5807.194-.3872.291-.8711.291-1.355s-.097-.7743-.194-1.0647c-.193-.4839-.581-.6775-1.161-.6775-.484 0-.871.1936-1.065.5808-.193.3871-.29.871-.29 1.355 0 .4839.097.9678.29 1.2582.194.2903.581.4839 1.065.4839Zm0-4.3554c.58 0 1.161.1936 1.548.5808.387.3871.678.9678.678 1.8389 0 .7743-.194 1.355-.581 1.9357-.387.4839-.968.7743-1.742.7743-.678 0-1.161-.1936-1.549-.6775-.387-.4839-.58-1.0647-.58-1.7422 0-.7742.193-1.4517.58-1.9357.388-.5807.968-.7743 1.646-.7743Zm3.387-.5807c0-.2903.097-.5807.194-.7743.193-.2903.581-.3871 1.064-.3871h.388v.7743H168.149c-.29 0-.387.0968-.484.1936 0 .0967-.096.4839-.096.9678h.774v.6775h-.774v4.065h-.775v-4.065h-.677v-.6775h.677v-.7743Zm6.969 4.9361c.484 0 .871-.1936 1.065-.5807.096-.1936.193-.3872.193-.5807 0-.3872-.097-.6775-.387-.8711-.194-.0968-.387-.1936-.774-.2904v2.3229h-.097Zm-1.549-4.2586c0 .2904.097.484.291.6775.193.1936.484.2904.774.3872v-2.1293c-.387 0-.678.0968-.871.3871-.097.1936-.194.484-.194.6775Zm-.774.0968c0-.4839.194-.8711.484-1.2582.29-.3872.774-.5807 1.355-.5807v-.5807h.387v.5807c.581 0 1.065.1935 1.355.4839.29.2904.484.6775.484 1.2582h-.774c0-.1935-.097-.3871-.194-.5807-.193-.2903-.484-.4839-.871-.4839v2.1293c.678.1935 1.162.3871 1.355.5807.387.2903.581.6775.581 1.2582 0 .7743-.291 1.355-.774 1.6454-.291.1935-.678.2903-1.259.3871v.8711h-.387v-.8711c-.871-.0968-1.452-.3871-1.742-.8711-.194-.2903-.29-.6775-.29-1.2582h.774c0 .3872.097.6775.194.8711.193.2903.483.4839 1.064.5807v-2.4196c-.677-.0968-1.064-.2904-1.452-.5808-.096-.2903-.29-.6775-.29-1.1614Zm5.517.1936v-.5807c.581-.0968.968-.1936 1.161-.2904.194-.0968.387-.4839.484-.9678h.678v6.291h-.871V91.493h-1.452v.0968Zm7.259 2.2261v-2.9036l-2.033 2.9036h2.033Zm0 2.226v-1.5485h-2.807v-.7743l2.904-4.065h.677v4.1618h.968v.6775h-.968v1.5485h-.774Zm4.355.1936c-.774 0-1.258-.1936-1.645-.5807-.291-.3872-.484-.8711-.484-1.5486h.871c0 .3872.097.6775.193.8711.194.2903.581.4839 1.162.4839.387 0 .774-.0968.968-.2903.29-.1936.387-.484.387-.8711 0-.4839-.097-.7743-.387-.9679-.291-.1935-.678-.2903-1.162-.2903h-.387v-.6775h.387c.291 0 .581 0 .775-.0968.29-.1936.484-.4839.484-.8711 0-.2903-.097-.5807-.291-.7743-.193-.1936-.484-.2903-.774-.2903-.581 0-.871.1935-1.065.5807-.097.1936-.193.4839-.193.8711h-.775c0-.484.097-.8711.291-1.1615.29-.5807.871-.871 1.742-.871.677 0 1.161.0967 1.548.3871.388.2903.581.6775.581 1.2582 0 .3872-.097.6775-.29.9679-.097.1935-.291.2903-.484.3871.29.0968.581.2904.774.5807.194.2904.291.5807.291.9679 0 .5807-.194 1.0646-.581 1.4518-.581.2903-1.162.4839-1.936.4839Zm3.484-1.1614h.968v.9678h-.968v-.9678Zm3.001-.5807c0 .4839.193.7742.484.871.193.0968.387.0968.58.0968.388 0 .678-.1936.968-.4839.291-.2904.484-.9679.581-1.9357-.194.2903-.387.4839-.678.5807-.29.0968-.58.1936-.871.1936-.58 0-1.064-.1936-1.451-.5808-.388-.3871-.581-.871-.581-1.4517 0-.5808.193-1.0647.484-1.5486.387-.4839.871-.6775 1.548-.6775.968 0 1.549.3871 1.936 1.2582.194.4839.29 1.0646.29 1.7421 0 .7743-.096 1.4518-.387 2.0325-.387.9679-1.064 1.5486-1.935 1.5486-.581 0-1.065-.1936-1.452-.4839-.291-.2904-.484-.7743-.484-1.2582h.968v.0968Zm1.161-1.2583c.291 0 .581-.0967.871-.2903.291-.1936.387-.5807.387-1.0647 0-.4839-.096-.7742-.387-1.0646-.193-.1936-.58-.3871-.871-.3871-.387 0-.677.0967-.968.3871-.193.2904-.387.5807-.387 1.0646 0 .3872.097.7743.291.9679.29.2904.677.3871 1.064.3871Zm5.711.5808v-2.9036l-2.033 2.9036h2.033Zm0 2.226v-1.5485h-2.807v-.7743l2.903-4.065h.678v4.1618h.968v.6775h-.968v1.5485h-.774Z"/><path stroke="#6D7175" d="M120.143 19h94.463c2.323 0 4.259 1.9357 4.259 4.2586v79.6544c0 2.323-1.936 4.259-4.259 4.259h-94.463c-2.323 0-4.258-1.936-4.258-4.259V23.2586c0-2.3229 1.935-4.2586 4.258-4.2586Z"/><path fill="#6D7175" d="m52.3931 133.982-.0968-.194 1.9358-1.355h-.0968l-.2904-.097c-.4839-.193-.9678-.193-1.4518-.193-2.5164 0-4.6457 2.129-4.6457 4.839 0 .774.1936 1.549.5807 2.226l-.1936.097c-.3871-.678-.5807-1.549-.5807-2.323 0-2.807 2.1293-5.033 4.8393-5.033.5807 0 1.2582.097 1.839.387l-1.2583-2.032.1936-.097 1.4518 2.323-2.2261 1.452Zm-1.0646 7.936c.3871.097.7743.097 1.1614.097 2.71 0 4.8393-2.226 4.8393-5.033 0-.774-.1936-1.549-.4839-2.226l-.1936.097c.2904.677.4839 1.355.4839 2.129 0 2.613-2.0325 4.839-4.6457 4.839-.3871 0-.7743-.096-1.1614-.193l1.7421-1.549-.0968-.097-2.0325 1.743 1.7422 2.129.1936-.097-1.5486-1.839Z"/><path fill="#6D7175" d="m52.2966 133.788-.0968-.096-.0968.096.0968.097.0968-.097Zm.0968.194-.0968.097.0968.096.0967-.096-.0967-.097Zm1.8389-1.452.0968.097.3871-.29h-.4839v.193Zm-.0968 0-.0968.097v-.097h.0968Zm-.1936-.097.0968-.096-.0968.096Zm-1.4518-.29v.097-.097Zm-4.1618 7.065.0968.097.0968-.097-.0968-.096-.0968.096Zm-.0967.097-.0968.097.0968.097.0967-.097-.0967-.097Zm6.0007-6.968-.0968.096.3871.194-.1935-.387-.0968.097Zm-1.2582-2.033v-.194l-.0968.097.0968.097Zm.1935-.097.0968-.097-.0968-.096-.0967.096.0967.097Zm1.4518 2.323.0968.097.0968-.097-.0968-.097-.0968.097Zm-3.2907 9.388v-.096l-.3871-.097.2903.29.0968-.097Zm5.5168-7.162.0968-.097-.0968-.096-.0968.096.0968.097Zm-.1936.097-.0968-.097-.0967.097.0967.097.0968-.097Zm-5.3232 6.872-.0968-.097-.1935.097.2903.097v-.097Zm1.7422-1.646.0967.097.0968-.097-.0968-.096-.0967.096Zm-.0968-.096.0968-.097-.0968-.097-.0968.097.0968.097Zm-2.0325 1.742-.0968-.097-.0968.097.0968.097.0968-.097Zm1.7421 2.129-.0968.097.0968.097.0968-.097-.0968-.097Zm.0968-.194.0968.097.0968-.097-.0968-.096-.0968.096Zm-.5807-9.775.0968.194.2903-.194-.0968-.193-.2903.193Zm1.9357-1.452-1.9357 1.355.1936.194 1.9357-1.355-.1936-.194Zm0 .194.0968-.29h-.0968v.29Zm-.2904-.097.2904.097.0968-.29-.2904-.097-.0968.29Zm-1.355-.193c.484 0 .9679.096 1.4518.193l.0968-.29c-.4839-.194-.9678-.194-1.5486-.194v.291Zm-4.5489 4.645c0-2.613 2.0325-4.645 4.5489-4.645v-.291c-2.6132 0-4.8393 2.226-4.8393 4.936h.2904Zm.5807 2.226c-.3871-.677-.5807-1.451-.5807-2.226h-.2904c0 .775.1936 1.646.5808 2.323l.2903-.097Zm-.2903.291.1935-.097-.0968-.29-.1935.096.0968.291Zm-.7743-2.517c0 .871.1935 1.646.5807 2.42l.2903-.097c-.3871-.677-.5807-1.452-.5807-2.323h-.2903Zm5.0328-5.129c-2.71 0-4.936 2.322-4.936 5.129h.2903c0-2.71 2.1293-4.839 4.6457-4.839v-.29Zm1.839.29c-.5807-.194-1.1615-.387-1.839-.387v.29c.5808 0 1.1615.097 1.7422.387l.0968-.29Zm-1.4518-1.742 1.2582 2.032.2904-.193-1.2583-2.033-.2903.194Zm.1936-.387-.0968.096.0968.291.1935-.097-.1935-.29Zm1.6453 2.419-1.4518-2.323-.2903.194 1.4518 2.323.2903-.194Zm-2.2261 1.646 2.2261-1.452-.1936-.194-2.226 1.452.1935.194Zm0 7.839c-.3871 0-.7742 0-1.0646-.096l-.0968.29c.3872.097.7743.097 1.1614.097v-.291Zm4.6458-4.936c0 2.71-2.1293 4.84-4.6458 4.84v.29c2.71 0 4.9361-2.323 4.9361-5.13h-.2903Zm-.484-2.129c.2904.677.484 1.355.484 2.129h.2903c0-.774-.1936-1.548-.4839-2.323l-.2904.194Zm0 .097h.1936l-.0968-.291-.1936.097.0968.194Zm.5807 2.032c0-.774-.1935-1.548-.4839-2.226l-.2903.097c.2903.677.4839 1.355.4839 2.032h.2903v.097Zm-4.7425 5.033c2.6133 0 4.8393-2.226 4.8393-4.936h-.2903c0 2.613-2.0325 4.646-4.549 4.646v.29Zm-1.1614-.193c.3872.096.7743.193 1.1614.193v-.29c-.3871 0-.7742-.097-1.0646-.194l-.0968.291Zm1.6454-1.839-1.7422 1.548.1936.194 1.7421-1.549-.1935-.193Zm-.0968.096.0968.097.1935-.193-.0967-.097-.1936.193Zm-1.8389 1.743 2.0325-1.743-.1936-.193-2.0325 1.742.1936.194Zm1.7421 1.935-1.7421-2.032-.1936.193 1.7421 2.13.1936-.291Zm-.0968-.193-.1936.096.1936.194.1936-.097-.1936-.193Zm-1.4518-1.549 1.4518 1.839.1936-.194-1.4518-1.838-.1936.193ZM51.8126 136.208c-.0967.097-.0968.193-.0968.29h-.4839c0-.097 0-.29.0968-.387 0-.097.0968-.194.1936-.29.0968-.097.1936-.097.2903-.194.0968 0 .1936-.097.3872-.097.2903 0 .4839.097.6775.194s.2903.29.2903.581c0 .193-.0967.29-.1935.387-.0968.096-.0968.096-.1936.193.0968 0 .0968 0 .1936.097s.1935.29.1935.581c0 .193-.0967.484-.2903.677-.1936.194-.3872.291-.7743.291-.3872 0-.6775-.097-.8711-.388-.0968-.096-.0968-.29-.0968-.58h.5807c0 .097.0001.193.0968.29.0968.097.1936.194.3872.194.0968 0 .1935 0 .2903-.097s.0968-.194.0968-.29c0-.194-.0968-.291-.1935-.388-.0968 0-.1936-.096-.3872-.096v-.388c.1936 0 .2904 0 .3872-.096.0967-.097.1935-.194.1935-.291 0-.096 0-.193-.0968-.29-.0968-.097-.1935-.097-.2903-.097-.1936 0-.2904.097-.3872.194ZM24.0349 159.146H20.841v1.646h3.581v1.161h-4.936v-6.581h4.8393v1.161H20.841v1.355h3.1939v1.258Zm.9679-1.935h1.4517l.9679 3.581 1.0646-3.581h1.355l-1.7421 4.839h-1.355l-1.7421-4.839Zm9.6785 3.387c0 .29-.1935.581-.4839.871-.3871.484-.9678.678-1.7421.678-.5807 0-1.1615-.194-1.6454-.581-.4839-.387-.6775-1.065-.6775-1.936s.1936-1.452.6775-1.936c.3872-.483.9679-.677 1.6454-.677.3871 0 .7743.097 1.0646.194.2904.193.5807.387.7743.677.1936.29.2904.581.3871.968v.968h-3.2907c0 .484.1936.871.484 1.064.1935.097.3871.194.6775.194.2903 0 .4839-.097.6775-.194.0967-.096.1935-.193.1935-.29h1.2582Zm-1.2582-1.452c0-.29-.0968-.58-.2903-.774-.1936-.194-.3872-.29-.6775-.29-.2904 0-.484.096-.6775.29-.1936.194-.2904.387-.2904.774h1.9357Zm4.6457-.774c-.4839 0-.871.194-1.0646.484-.0968.193-.1936.484-.1936.871v2.323h-1.2582v-4.839h1.1615v.871c.1935-.291.3871-.581.4839-.678.1936-.193.5807-.29.9678-.29h.1936v1.258h-.2904Zm3.0972 2.42.9679-3.581h1.355l-1.6454 4.742c-.2904.871-.5807 1.452-.7743 1.742-.1936.194-.5807.291-1.1614.291h-.5807v-.968h.5807c.0968 0 .1936-.097.2903-.097.0968-.097.0968-.194.1936-.29.0968-.194.0968-.291.0968-.291l-1.7421-5.033h1.4517l.9679 3.485Zm6.775-3.872c-.0968.194-.1936.484-.1936.774H46.586c0-.29.0968-.58.1936-.871.0968-.29.2903-.484.4839-.677.1936-.194.3872-.29.5807-.387.1936-.097.484-.097.8711-.097.5807 0 1.0646.193 1.4518.484.3871.29.5807.774.5807 1.258 0 .387-.0968.678-.2904.968-.0967.194-.2903.29-.4839.29.0968 0 .2904.097.4839.291.2904.29.484.677.484 1.258s-.1936 1.065-.5807 1.452c-.3872.387-.9679.58-1.6454.58-.8711 0-1.5486-.29-1.9357-.871-.1936-.29-.2904-.774-.2904-1.258h1.2582c0 .29 0 .484.0968.678.1936.29.3872.484.8711.484.2904 0 .4839-.097.6775-.291.1936-.193.2904-.387.2904-.774s-.1936-.678-.484-.871c-.1935-.097-.4839-.097-.9678-.097v-.871c.3871 0 .6775 0 .871-.097.2904-.097.3872-.387.3872-.774 0-.29-.0968-.484-.1936-.581-.0968-.193-.3871-.193-.5807-.193-.4839-.097-.6775 0-.7743.193Zm7.7429 5.13h-1.2582v-6.582h2.0325l1.1614 5.13 1.1614-5.13h1.9358v6.582h-1.2583V156.436l-1.2582 5.517h-1.355l-1.2582-5.517v5.614h.0968Zm10.2593-4.259c.3871.484.5807 1.162.5807 1.839 0 .678-.1936 1.355-.5807 1.839-.3872.484-1.0647.774-1.8389.774-.8711 0-1.4518-.29-1.839-.774-.3871-.484-.5807-1.161-.5807-1.839 0-.677.1936-1.258.5807-1.839.3872-.484 1.0647-.774 1.839-.774.871 0 1.4517.29 1.8389.774Zm-1.8389.291c-.3872 0-.6775.096-.8711.387-.1936.29-.2904.677-.2904 1.161s.0968.871.2904 1.162c.1936.29.4839.387.8711.387.3871 0 .6775-.097.871-.387.1936-.291.2904-.678.2904-1.162 0-.484-.0968-.871-.2904-1.161-.1935-.194-.4839-.387-.871-.387Zm5.7103 0c-.3871 0-.6775.193-.871.58-.0968.194-.0968.484-.0968.775v2.613h-1.355v-4.839H68.75v.677c.1936-.29.2903-.387.4839-.581.2904-.193.5807-.29.9679-.29.4839 0 .871.097 1.2582.387.2903.29.4839.678.4839 1.258v3.291h-1.2582v-2.904c0-.29 0-.483-.0968-.58-.1936-.194-.4839-.387-.7743-.387Zm5.42 3.097v.968h-.5807c-.5807 0-.9678-.097-1.2582-.291-.0968-.097-.1936-.387-.1936-.677v-3.001h-.6775v-.967h.6775v-1.355h1.2582v1.355h.7743v.871h-.7743v2.516c0 .194.0001.29.0968.387.0968 0 .1936.097.484.097h.0967l.0968.097Zm5.2265-2.033v2.807h-1.2582v-2.904c0-.29 0-.483-.0968-.677-.0968-.194-.2904-.29-.6775-.29-.2904 0-.5807.096-.7743.29-.1936.194-.2904.581-.2904.968v2.613h-1.2582v-6.485h1.2582v2.323c.1936-.29.3872-.484.6775-.58.2904-.097.484-.194.7743-.194.2904 0 .5807.097.7743.194.2904.096.4839.29.5807.483.0968.194.1936.388.2904.581v.871Zm4.5489-1.742c.3871.29.5807.678.6775 1.258h-1.2582c0-.193-.0968-.29-.0968-.387-.0968-.193-.3871-.29-.6775-.29s-.4839 0-.5807.097c-.0968.096-.1936.193-.1936.29 0 .097.0968.29.1936.29.0968.097.5807.194 1.355.387.4839.097.8711.291 1.1614.581.2904.291.3872.581.3872.871 0 .484-.1936.871-.5807 1.162-.3872.29-.8711.484-1.6454.484s-1.355-.194-1.6454-.484c-.3871-.291-.5807-.775-.5807-1.259h1.2582c0 .194.0968.388.1936.484.1936.194.4839.291.8711.291.2903 0 .4839 0 .5807-.097.1936-.097.1936-.194.1936-.29 0-.097-.0968-.291-.1936-.291-.0968-.097-.5807-.193-1.355-.387-.5807-.097-.9679-.29-1.1614-.484-.1936-.193-.2904-.484-.2904-.871 0-.484.1936-.871.4839-1.161.3872-.291.8711-.484 1.4518-.484.5807-.097 1.0647.097 1.4518.29ZM19.9701 179.665c-.5807-.194-.9679-.387-1.1614-.678-.1936-.29-.3872-.677-.3872-1.064 0-.291 0-.484.0968-.775.0968-.193.1936-.387.3871-.58.1936-.194.484-.387.6775-.484.1936-.097.3872-.097.6775-.097v-.581h.3872v.581c.4839 0 .8711.194 1.1614.387.4839.29.7743.871.7743 1.549h-1.1614c0-.291-.0968-.484-.0968-.581-.0968-.194-.2904-.29-.5807-.387v1.645c.6775.291 1.1614.484 1.4518.678.3871.29.5807.774.5807 1.355 0 .774-.2904 1.258-.7743 1.645-.2904.194-.7743.29-1.1614.387v.871h-.3872v-.871c-.5807-.097-1.0646-.193-1.2582-.387-.4839-.387-.7743-.968-.7743-1.742h1.1614c0 .387.0968.581.1936.774.0968.194.3872.291.6775.387v-1.935l-.4839-.097Zm.7743.29v1.742c.1935 0 .3871-.096.4839-.193.1936-.097.2904-.387.2904-.678 0-.29-.0968-.484-.2904-.58 0-.097-.1936-.194-.4839-.291Zm-.3872-1.355v-1.548c-.2903 0-.4839.096-.5807.193s-.1936.291-.1936.581.0968.484.2904.581c.0968 0 .2904.096.4839.193Zm5.2265.678c-.1936 0-.2904 0-.3872.096-.1936.097-.3871.194-.4839.388l-1.1614-.097.4839-3.581h3.5811v1.064h-2.71l-.1936 1.452c.1936-.097.3871-.193.4839-.29.1936-.097.3872-.097.6775-.097.5807 0 .9679.194 1.355.581.3872.387.5807.871.5807 1.548 0 .581-.1935 1.162-.5807 1.549-.3871.484-.9678.677-1.7421.677-.5807 0-1.1615-.193-1.5486-.484-.3871-.29-.5807-.774-.6775-1.355h1.2582c.0968.291.1936.484.2904.678.0968.194.3871.194.5807.194.2904 0 .5807-.097.6775-.291.1936-.193.2904-.484.2904-.871 0-.29-.0968-.581-.1936-.871-.0968-.097-.2904-.29-.5807-.29Zm4.3553-1.936c-.0968.194-.1935.484-.1935.774H28.584c0-.29.0968-.58.1936-.871.0968-.29.2904-.484.4839-.677.1936-.194.3872-.291.5807-.387.1936-.097.484-.097.8711-.097.5807 0 1.0647.193 1.4518.484.3871.29.5807.774.5807 1.258 0 .387-.0968.677-.2903.968-.0968.193-.2904.29-.484.29.0968 0 .2904.097.484.29.2903.291.4839.678.4839 1.259 0 .58-.1936 1.064-.5807 1.451-.3872.388-.9679.581-1.6454.581-.8711 0-1.5486-.29-1.9357-.871-.1936-.29-.2904-.774-.2904-1.258h1.2583c0 .29 0 .484.0967.677.1936.291.3872.484.8711.484.2904 0 .4839-.096.6775-.29.1936-.194.2904-.387.2904-.774s-.1936-.678-.484-.871c-.1935-.097-.4839-.097-.9678-.097v-.871c.3871 0 .6775 0 .8711-.097.2903-.097.3871-.387.3871-.774 0-.291-.0968-.484-.1936-.581-.0968-.194-.3871-.194-.5807-.194-.3871-.096-.6775 0-.7743.194Zm3.8715 3.871h1.355v1.355h-1.355v-1.355Zm4.4521 1.452c-.7743 0-1.355-.29-1.7421-.871-.2904-.581-.484-1.355-.484-2.42 0-1.064.1936-1.838.484-2.419.2903-.581.871-.871 1.7421-.871s1.355.29 1.7422.871c.2903.581.4839 1.355.4839 2.419 0 1.065-.1936 1.839-.4839 2.42-.2904.581-.8711.871-1.7422.871Zm.7743-1.645c.0968-.387.1936-.968.1936-1.742 0-.775-.0968-1.355-.1936-1.742-.0968-.388-.3871-.581-.7743-.581-.3871 0-.5807.193-.7743.581-.0968.387-.1935.967-.1935 1.742 0 .774.0967 1.355.1935 1.742.0968.387.3872.581.7743.581.3872 0 .6775-.194.7743-.581Zm4.3554 1.645c-.7743 0-1.355-.29-1.7422-.871-.2903-.581-.4839-1.355-.4839-2.42 0-1.064.1936-1.838.4839-2.419.2904-.581.8711-.871 1.7422-.871.7743 0 1.355.29 1.7421.871.2904.581.4839 1.355.4839 2.419 0 1.065-.1935 1.839-.4839 2.42-.3871.581-.9678.871-1.7421.871Zm.6775-1.645c.0968-.387.1935-.968.1935-1.742 0-.775-.0967-1.355-.1935-1.742-.0968-.388-.3872-.581-.7743-.581-.3872 0-.5807.193-.7743.581-.0968.387-.1936.967-.1936 1.742 0 .774.0968 1.355.1936 1.742s.3871.581.7743.581c.3871 0 .6775-.194.7743-.581Zm6.3878 3.291-.2903-.388c-.1936-.29-.3872-.677-.6775-1.161-.3872-.968-.5807-1.839-.5807-2.71 0-.774.1935-1.645.4839-2.42.1936-.58.5807-1.161 1.0646-1.742h.9679l-.2904.484c-.3871.678-.6775 1.355-.7742 2.129-.0968.484-.0968 1.065-.0968 1.646 0 .871.0967 1.742.3871 2.516.1936.484.3872 1.065.7743 1.742h-.9679v-.096Zm4.4522-1.839h-1.2582v-4.453H52.103v-.871c.3871 0 .6775 0 .8711-.096.2903-.097.4839-.194.5807-.291.0968-.097.1936-.29.2903-.484 0-.096.0968-.193.0968-.29h.9679v6.485Zm4.1618.193c-.7743 0-1.355-.29-1.7422-.871-.2903-.581-.4839-1.355-.4839-2.42 0-1.064.1936-1.838.4839-2.419.2904-.581.8711-.871 1.7422-.871.7743 0 1.355.29 1.7421.871.2904.581.484 1.355.484 2.419 0 1.065-.1936 1.839-.484 2.42-.3871.581-.9678.871-1.7421.871Zm.6775-1.645c.0968-.387.1935-.968.1935-1.742 0-.775-.0967-1.355-.1935-1.742-.0968-.388-.3872-.581-.7743-.581s-.5807.193-.7743.581c-.0968.387-.1936.967-.1936 1.742 0 .774.0968 1.355.1936 1.742s.3872.581.7743.581c.4839 0 .6775-.194.7743-.581Zm6.3878 0c0-.484.1936-.871.484-1.162.2903-.29.6775-.484 1.1614-.484s.8711.194 1.1614.484c.2904.291.484.678.484 1.162 0 .484-.1936.871-.484 1.161-.2903.291-.6775.484-1.1614.484s-.8711-.193-1.1614-.484c-.2904-.29-.484-.774-.484-1.161Zm-3.8714-2.129c-.2903-.291-.4839-.678-.4839-1.162 0-.484.1936-.871.4839-1.161.2904-.291.6775-.484 1.1614-.484.484 0 .8711.193 1.1615.484.2903.29.4839.677.4839 1.161s-.1936.871-.4839 1.162c-.2904.29-.6775.483-1.1615.483-.3871 0-.7742-.096-1.1614-.483Zm1.9357 3.774h-.6775l3.5811-6.581h.6775l-3.5811 6.581Zm3.0972-1.161c.0968.097.2903.193.4839.193s.3872-.096.4839-.193c.0968-.097.1936-.291.1936-.484 0-.194-.0968-.387-.1936-.484-.0967-.097-.2903-.194-.4839-.194s-.3871.097-.4839.194-.1936.29-.1936.484c0 .193 0 .29.1936.484Zm-4.3554-3.291c.0968.097.2904.194.4839.194.1936 0 .3872-.097.484-.194s.1935-.29.1935-.484c0-.193-.0967-.387-.1935-.484-.0968-.097-.2904-.193-.484-.193-.1935 0-.3871.096-.4839.193s-.1936.291-.1936.484c0 .194.0968.387.1936.484Zm13.9372.097c.3871.484.5807 1.161.5807 1.839 0 .677-.1936 1.355-.5807 1.839-.3872.484-1.0647.774-1.8389.774-.8711 0-1.4518-.29-1.839-.774-.3871-.484-.5807-1.162-.5807-1.839 0-.678.1936-1.258.5807-1.839.3872-.484 1.0647-.774 1.839-.774.7742 0 1.4517.193 1.8389.774Zm-1.8389.29c-.3872 0-.6775.097-.8711.387-.1936.291-.2904.678-.2904 1.162 0 .484.0968.871.2904 1.161.1936.291.4839.387.8711.387.3871 0 .6775-.096.871-.387.1936-.29.2904-.677.2904-1.161s-.0968-.871-.2904-1.162c-.2903-.29-.5807-.387-.871-.387Zm5.6135-2.71v1.065h-.3871c-.1936 0-.2904 0-.3871.097-.0968.096-.0968.193-.0968.29v.387h.871v.871h-.871v3.872h-1.2583V178.6h-.6775v-.871h.6775v-.29c0-.484.0968-.871.2904-1.065.1936-.29.5807-.484 1.355-.484h.4839Zm3.0004 0v1.065h-.3871c-.1936 0-.2904 0-.3872.097-.0968.096-.0968.193-.0968.29v.387h.8711v.871h-.8711v3.872h-1.2582V178.6h-.6775v-.871h.6775v-.29c0-.484.0968-.871.2904-1.065.1935-.29.5807-.484 1.355-.484h.4839Zm1.5486 8.033-.2904.388h-.9679c.3872-.678.6776-1.259.7743-1.743.2904-.774.3872-1.548.3872-2.516 0-.581 0-1.161-.0968-1.645-.0968-.775-.3871-1.452-.7743-2.13l-.2904-.484h.9679c.4839.581.7743 1.259 1.0647 1.743.3871.774.4839 1.645.4839 2.419 0 .871-.1936 1.839-.5807 2.71-.2904.581-.484.968-.6775 1.258ZM18.1311 189.634h.9679v6.484h-.9679v-6.484Zm2.2261 1.742h.7743v.677c.1935-.29.4839-.483.6775-.58.2903-.097.4839-.194.871-.194.6775 0 1.1615.194 1.355.678.0968.29.1936.58.1936 1.064v3.097h-.7743v-3c0-.29 0-.484-.0968-.677-.0967-.291-.3871-.484-.7742-.484-.1936 0-.3872 0-.484.096-.1935.097-.3871.194-.5807.388-.0968.193-.1936.29-.2903.484 0 .193-.0968.387-.0968.677v2.516h-.7743v-4.742Zm5.6136 3.291c0 .29.0967.484.1935.58.1936.291.5807.388 1.0647.388.2903 0 .5807-.097.7743-.194.1935-.097.2903-.29.2903-.581 0-.193-.0968-.387-.2903-.484-.0968-.096-.3872-.096-.6775-.193l-.6775-.194c-.3872-.097-.6775-.193-.8711-.29-.3872-.194-.4839-.484-.4839-.871 0-.484.1935-.775.4839-1.065.2903-.29.7743-.387 1.355-.387.6775 0 1.2582.194 1.5486.677.1935.291.2903.581.2903.872h-.7743c0-.194-.0967-.388-.1935-.484-.1936-.194-.484-.291-.9679-.291-.2904 0-.4839.097-.6775.194s-.1936.29-.1936.484c0 .193.0968.387.2904.484.0968.096.2903.096.4839.193l.4839.097c.5808.097.9679.29 1.1615.387.2903.194.4839.484.4839.968 0 .387-.1936.774-.4839 1.065-.2904.29-.7743.484-1.4518.484s-1.2582-.194-1.5486-.484c-.2903-.291-.4839-.678-.4839-1.162h.8711v-.193Zm4.1618-4.549h.7742v1.355h.7743v.677h-.7743v3.097c0 .194.0968.291.1936.291s.1936.097.2904.097h.2903v.677c-.0968 0-.1935 0-.2903.097h-.2904c-.3871 0-.5807-.097-.7743-.291-.0968-.193-.1935-.483-.1935-.774v-3.291h-.6775v-.677h.6775v-1.258Zm4.3553 1.161c.2904 0 .6775.097.9679.194.2903.193.5807.387.6775.58.1935.194.2903.484.2903.872 0 .193.0968.58.0968 1.064h-3.4843c0 .484.0968.871.3872 1.162.1935.29.5807.484.9678.484.3872 0 .7743-.097.9679-.388.0968-.193.2903-.387.2903-.58h.8711c0 .193-.0968.387-.1935.58-.0968.194-.2904.388-.3872.484-.2903.194-.5807.387-.8711.484-.1935 0-.3871.097-.6775.097-.5807 0-1.0646-.194-1.5485-.677-.3872-.388-.5808-1.065-.5808-1.839 0-.775.1936-1.355.5808-1.839.4839-.387.9678-.678 1.6453-.678Zm1.2582 2.129c0-.387-.0968-.58-.1935-.871-.1936-.387-.5808-.58-1.0647-.58-.3871 0-.6775.096-.9678.387-.2904.29-.3872.581-.3872.968h2.6132v.096Zm2.4197 1.452c0 .194.0968.387.2903.581.1936.097.3872.194.5808.194.2903 0 .5807-.097.7742-.194.484-.194.6775-.581.6775-1.065v-.677c-.0967.097-.1935.097-.3871.193-.1936 0-.2904.097-.4839.097l-.484.097c-.2903 0-.4839.097-.6775.194-.0967.096-.2903.29-.2903.58Zm2.0325-1.548c.1936 0 .2903-.097.3871-.194 0-.097.0968-.193.0968-.29 0-.291-.0968-.484-.2903-.581-.1936-.097-.484-.194-.8711-.194-.3872 0-.6775.097-.8711.291-.0968.097-.1936.29-.1936.581h-.7742c0-.581.1935-.968.5807-1.259.3871-.193.7743-.387 1.2582-.387.5807 0 .9678.097 1.355.291.3871.193.4839.58.4839.967v2.71c0 .097 0 .194.0968.194 0 .097.0968.097.1936.097h.1935v.58c-.0967 0-.1935.097-.2903.097h-.2904c-.2903 0-.4839-.097-.5807-.29-.0968-.097-.0968-.29-.0968-.484-.1935.194-.3871.387-.6775.581-.2903.193-.6775.193-.9678.193-.484 0-.7743-.097-1.0647-.387-.2903-.29-.3871-.581-.3871-.968 0-.484.0968-.774.3871-1.064.2904-.291.6775-.388 1.0647-.484h1.2582Zm3.0004.484c0 .484.0967.967.2903 1.258.1936.387.5807.484 1.0647.484.3871 0 .6775-.194.871-.484.1936-.291.3872-.774.3872-1.355s-.0968-1.065-.3872-1.355c-.2903-.291-.5807-.484-.871-.484-.3872 0-.7743.193-.9679.484-.2904.484-.3871.871-.3871 1.452Zm1.1614-2.517c.3871 0 .6775.097.8711.194.0967.097.2903.29.4839.484v-2.42h.7743v6.581h-.6775v-.677c-.1936.29-.3872.484-.6775.677-.2904.097-.5807.194-.8711.194-.4839 0-.9679-.194-1.355-.677-.3872-.484-.5807-1.065-.5807-1.743 0-.677.1935-1.258.4839-1.839.3871-.483.8711-.774 1.5486-.774Zm7.8396 4.356c.484 0 .8711-.194 1.0647-.581.1936-.387.2903-.871.2903-1.355s-.0967-.774-.1935-1.065c-.1936-.484-.5808-.677-1.1615-.677-.4839 0-.871.193-1.0646.58-.1936.388-.2904.871-.2904 1.355s.0968.968.2904 1.259c.1936.29.5807.484 1.0646.484Zm0-4.356c.5807 0 1.1615.194 1.5486.581.3872.387.6775.968.6775 1.839 0 .774-.1936 1.355-.5807 1.936-.3871.483-.9679.774-1.7421.774-.6776 0-1.1615-.194-1.5486-.678-.3872-.484-.5807-1.064-.5807-1.742 0-.774.1935-1.452.5807-1.936.3871-.58.9678-.774 1.6453-.774Zm3.2908-.581c0-.29.0967-.58.1935-.774.1936-.29.5807-.387 1.0647-.387h.3871v.774h-.2903c-.2904 0-.3872.097-.3872.194s-.0968.484-.0968.968h.7743v.677h-.7743v4.065h-.7743v-4.162h-.6775v-.677h.6775v-.678h-.0967Zm7.0653 5.033c.484 0 .8711-.193 1.0647-.58.0968-.194.1935-.388.1935-.581 0-.387-.0967-.678-.3871-.871-.1936-.097-.3871-.194-.7743-.291v2.323h-.0968Zm-1.5485-4.355c0 .29.0967.484.2903.677.1936.194.4839.291.7743.388v-2.13c-.3871 0-.6775.097-.8711.387-.0968.194-.1935.484-.1935.678Zm-.7743.097c0-.484.1935-.871.4839-1.258.2904-.388.7743-.581 1.355-.581v-.484h.3871v.581c.5808 0 1.0647.193 1.355.484.2904.29.484.677.484 1.258h-.6775c0-.194-.0968-.387-.1936-.581-.1936-.29-.4839-.484-.8711-.484v2.129c.6775.194 1.1615.388 1.355.581.3872.29.5807.678.5807 1.258 0 .775-.2903 1.355-.7742 1.646-.2904.193-.6775.29-1.2583.387v.871h-.3871v-.871c-.8711-.097-1.4518-.387-1.7421-.871-.1936-.291-.2904-.678-.2904-1.258h.7743c0 .387.0968.677.1936.871.1935.29.4839.484 1.0646.58v-2.419c-.6775-.097-1.0646-.291-1.4518-.581-.2903-.387-.3871-.774-.3871-1.258Zm9.3882-1.549v.678c-.1936.193-.4839.58-.7743 1.064-.2903.484-.6775 1.065-.8711 1.549-.2903.581-.4839 1.065-.5807 1.548-.0968.291-.1936.775-.2903 1.452h-.8711c.1936-1.258.6775-2.419 1.355-3.581.3871-.677.8711-1.355 1.2582-1.839h-3.4843v-.774h4.2586v-.097Zm1.1614 1.742v-.58c.5807-.097.9679-.194 1.1615-.291.1935-.097.3871-.484.4839-.968h.6775v6.291h-.7743v-4.548h-1.5486v.096Zm5.0329 3.485h.9679v.967h-.9679v-.967Zm2.9036-.484c0 .484.1935.774.4839.871.1936.097.3871.097.5807.097.3872 0 .6775-.194.9679-.484.2903-.291.4839-.968.5807-1.936-.1936.29-.3872.484-.6775.581-.2904.096-.5807.193-.8711.193-.5807 0-1.0646-.193-1.4518-.581-.3871-.387-.5807-.871-.5807-1.451 0-.581.1936-1.065.4839-1.549.3872-.484.8711-.677 1.5486-.677.9679 0 1.5486.387 1.9357 1.258.1936.484.2904 1.064.2904 1.742 0 .774-.0968 1.452-.3872 2.032-.3871.968-1.0646 1.549-1.9357 1.549-.5807 0-1.0646-.194-1.4518-.484-.2903-.29-.4839-.774-.4839-1.258h.9679v.097Zm1.2582-1.355c.2903 0 .5807-.097.8711-.291.2903-.193.3871-.58.3871-1.064 0-.484-.0968-.775-.3871-1.065-.1936-.194-.5808-.387-.8711-.387-.3872 0-.6775.097-.9679.387-.1935.29-.3871.581-.3871 1.065 0 .387.0968.774.2903.968.2904.29.5808.387 1.0647.387Zm7.3557-3.388v.678c-.1936.193-.4839.58-.7743 1.064-.2903.484-.6775 1.065-.871 1.549-.2904.581-.484 1.065-.5808 1.548-.0967.291-.1935.775-.2903 1.452h-.8711c.1936-1.258.6775-2.419 1.355-3.581.3872-.677.8711-1.355 1.2582-1.839h-3.581v-.774h4.3553v-.097Z"/><path stroke="#6D7175" d="M5.25858 119.077H99.7216c2.3224 0 4.2584 1.935 4.2584 4.258v79.655c0 2.323-1.936 4.259-4.2584 4.259H5.25858C2.93572 207.249 1 205.313 1 202.99v-79.655c0-2.323 1.93572-4.258 4.25858-4.258Z"/><path fill="#6D7175" d="m167.278 133.982-.097-.194 1.936-1.355-.29-.097c-.484-.193-.968-.193-1.452-.193-2.517 0-4.646 2.129-4.646 4.839 0 .774.194 1.549.581 2.226l-.194.097c-.387-.678-.58-1.549-.58-2.323 0-2.807 2.129-5.033 4.839-5.033.581 0 1.258.097 1.839.387l-1.258-2.032.193-.097 1.452 2.323-2.323 1.452Zm-1.065 7.936c.388.097.775.097 1.162.097 2.71 0 4.839-2.226 4.839-5.033 0-.774-.193-1.549-.484-2.226l-.193.097c.29.677.484 1.355.484 2.129 0 2.613-2.033 4.839-4.646 4.839-.387 0-.774-.096-1.162-.193l1.743-1.549-.097-.097-2.033 1.743 1.742 2.129.194-.097-1.549-1.839Z"/><path fill="#6D7175" d="m167.181 133.788-.096-.096-.097.096.097.097.096-.097Zm.097.194-.097.097.097.096.097-.096-.097-.097Zm1.839-1.452.097.097.387-.29h-.484v.193Zm0 0-.097.097v-.097h.097Zm-.29-.097.096-.096-.096.096Zm-1.452-.29v.097-.097Zm-4.162 7.065.097.097.097-.097-.097-.096-.097.096Zm-.097.097-.096.097.096.097.097-.097-.097-.097Zm6.001-6.968-.097.096.387.194-.193-.387-.097.097Zm-1.161-2.033-.097-.097-.097.097.097.097.097-.097Zm.096-.097.097-.097-.097-.096-.096.096.096.097Zm1.452 2.323.097.097.097-.097-.097-.097-.097.097Zm-3.291 9.388v-.096l-.387-.097.291.29.096-.097Zm5.517-7.162.097-.097-.097-.096-.097.096.097.097Zm-.193.097-.097-.097-.097.097.097.097.097-.097Zm-5.324 6.872-.096-.097-.194.194.29.096v-.193Zm1.743-1.646.096.097.097-.097-.097-.096-.096.096Zm-.097-.096.097-.097-.097-.097-.097.097.097.097Zm-2.033 1.742-.096-.097-.097.097.097.097.096-.097Zm1.742 2.129-.096.097.096.097.097-.097-.097-.097Zm.097-.194.097.097.097-.097-.097-.096-.097.096Zm-.58-9.775.096.194.291-.194-.097-.193-.29.193Zm1.935-1.452-1.935 1.355.193.194 1.936-1.355-.194-.194Zm.097.194.097-.29h-.097v.29Zm-.387-.097.29.097.097-.29-.29-.097-.097.29Zm-1.355-.193c.484 0 .968.096 1.452.193l.096-.29c-.483-.194-.967-.194-1.548-.194v.291Zm-4.549 4.645c0-2.613 2.032-4.645 4.549-4.645v-.291c-2.613 0-4.839 2.226-4.839 4.936h.29Zm.581 2.226c-.387-.677-.581-1.451-.581-2.226h-.29c0 .775.193 1.646.58 2.323l.291-.097Zm-.291.291.194-.097-.097-.29-.193.096.096.291Zm-.774-2.517c0 .871.194 1.646.581 2.42l.29-.097c-.387-.677-.581-1.452-.581-2.323h-.29Zm5.033-5.129c-2.71 0-4.936 2.322-4.936 5.129h.29c0-2.71 2.129-4.839 4.646-4.839v-.29Zm1.839.29c-.581-.194-1.162-.387-1.839-.387v.29c.581 0 1.161.097 1.742.387l.097-.29Zm-1.452-1.742 1.258 2.032.291-.193-1.259-2.033-.29.194Zm.194-.387-.194.096.097.291.193-.097-.096-.29Zm1.645 2.419-1.452-2.323-.29.194 1.452 2.323.29-.194Zm-2.226 1.646 2.226-1.452-.194-.194-2.226 1.452.194.194Zm0 7.839c-.387 0-.774 0-1.065-.096l-.097.29c.388.097.775.097 1.162.097v-.291Zm4.646-4.936c0 2.71-2.13 4.84-4.646 4.84v.29c2.71 0 4.936-2.323 4.936-5.13h-.29Zm-.484-2.129c.29.677.484 1.355.484 2.129h.29c0-.774-.194-1.548-.484-2.323l-.29.194Zm.096.097.194-.097-.097-.29-.193.096.096.291Zm.484 2.032c0-.774-.193-1.548-.484-2.226l-.29.097c.29.677.484 1.355.484 2.032h.29v.097Zm-4.742 5.033c2.613 0 4.839-2.226 4.839-4.936h-.29c0 2.613-2.033 4.646-4.549 4.646v.29Zm-1.162-.193c.388.096.775.193 1.162.193v-.29c-.387 0-.774-.097-1.065-.194l-.097.291Zm1.646-1.839-1.742 1.548.193.194 1.742-1.549-.193-.193Zm-.097.096.097.097.193-.193-.096-.097-.194.193Zm-1.839 1.743 2.033-1.743-.194-.193-2.032 1.742.193.194Zm1.742 1.935-1.742-2.032-.193.193 1.742 2.13.193-.291Zm-.097-.193-.193.096.193.194.194-.097-.194-.193Zm-1.451-1.549 1.451 1.839.194-.194-1.452-1.838-.193.193ZM167.472 138.434h-.581v-1.936h-.677v-.387h.387c.096 0 .193-.097.29-.194 0-.096.097-.096.097-.193v-.097h.484v2.807ZM145.308 159.146h-3.194v1.646h3.581v1.161h-4.936v-6.581h4.839v1.161h-3.484v1.355h3.194v1.258Zm.871-1.935h1.452l.967 3.581 1.065-3.581h1.355l-1.742 4.839h-1.355l-1.742-4.839Zm9.775 3.387c0 .29-.193.581-.484.871-.387.484-.968.678-1.742.678-.581 0-1.161-.194-1.645-.581-.484-.387-.678-1.065-.678-1.936s.194-1.452.678-1.936c.387-.483.968-.677 1.645-.677.387 0 .774.097 1.065.194.29.193.58.387.774.677.194.29.29.581.387.968v.968h-3.291c0 .484.194.871.484 1.064.194.097.388.194.678.194.29 0 .484-.097.677-.194.097-.096.194-.193.194-.29h1.258Zm-1.258-1.452c0-.29-.097-.58-.29-.774-.194-.194-.388-.29-.678-.29-.29 0-.484.096-.677.29-.194.194-.291.387-.291.774h1.936Zm4.549-.774c-.484 0-.871.194-1.065.484-.097.193-.193.484-.193.871v2.323h-1.259v-4.839h1.162v.871c.193-.291.387-.581.484-.678.193-.193.581-.29.968-.29h.193v1.258H159.245Zm3.097 2.42.968-3.581h1.355l-1.645 4.742c-.291.871-.581 1.452-.775 1.742-.193.194-.58.291-1.161.291h-.581v-.968h.581c.097 0 .193-.097.29-.097.097-.097.097-.194.194-.29.097-.194.097-.291.097-.291l-1.743-5.033h1.452l.968 3.485Zm6.969 1.258h-1.259v-6.582h2.033l1.161 5.13 1.162-5.13h1.935v6.582h-1.258V156.436l-1.258 5.517h-1.355l-1.258-5.517v5.614h.097Zm10.259-4.259c.387.484.581 1.162.581 1.839 0 .678-.194 1.355-.581 1.839-.387.484-1.065.774-1.839.774-.871 0-1.452-.29-1.839-.774-.387-.484-.581-1.161-.581-1.839 0-.677.194-1.258.581-1.839.387-.484 1.065-.774 1.839-.774.871 0 1.452.29 1.839.774Zm-1.839.291c-.387 0-.677.096-.871.387-.194.29-.29.677-.29 1.161s.096.871.29 1.162c.194.29.484.387.871.387s.678-.097.871-.387c.194-.291.29-.678.29-1.162 0-.484-.096-.871-.29-1.161-.193-.194-.484-.387-.871-.387Zm5.71 0c-.387 0-.677.193-.871.58-.096.194-.096.484-.096.775v2.613h-1.259v-4.839h1.259v.677c.193-.29.29-.387.483-.581.291-.193.581-.29.968-.29.484 0 .871.097 1.259.387.29.29.483.678.483 1.258v3.291h-1.258v-2.904c0-.29 0-.483-.097-.58-.29-.194-.58-.387-.871-.387Zm5.42 3.097v.968h-.58c-.581 0-.968-.097-1.259-.291-.096-.097-.193-.387-.193-.677v-3.001h-.678v-.967h.678v-1.355h1.258v1.355h.774v.871h-.774v2.516c0 .194 0 .29.097.387.097 0 .193.097.484.097h.097c0 .097.096.097.096.097Zm5.227-2.033v2.807h-1.258v-2.904c0-.29 0-.483-.097-.677-.097-.194-.291-.29-.678-.29-.29 0-.58.096-.774.29-.194.194-.29.581-.29.968v2.613h-1.259v-6.485h1.259v2.323c.193-.29.387-.484.677-.58.291-.097.484-.194.774-.194.291 0 .581.097.775.194.29.096.484.29.58.483.097.194.194.388.291.581v.871ZM137.468 179.665c-.581-.194-.968-.387-1.161-.678-.194-.29-.388-.677-.388-1.064 0-.291 0-.484.097-.775.097-.193.194-.387.387-.58.194-.194.484-.387.678-.484.193-.097.387-.097.677-.097v-.581h.388v.581c.483 0 .871.194 1.161.387.484.29.774.871.774 1.549h-1.161c0-.291-.097-.484-.097-.581-.097-.194-.29-.29-.581-.387v1.645c.678.291 1.162.484 1.452.678.387.29.581.774.581 1.355 0 .774-.291 1.258-.774 1.645-.291.194-.775.29-1.162.387v.871h-.387v-.871c-.581-.097-1.065-.193-1.258-.387-.484-.387-.775-.968-.775-1.742h1.162c0 .387.097.581.193.774.097.194.388.291.678.387v-1.935l-.484-.097Zm.774.29v1.742c.194 0 .387-.096.484-.193.194-.097.291-.387.291-.678 0-.29-.097-.484-.291-.58-.097-.097-.29-.194-.484-.291Zm-.484-1.355v-1.548c-.29 0-.484.096-.58.193-.097.097-.194.291-.194.581s.097.484.29.581c.097 0 .291.096.484.193Zm5.904-1.258c-.193-.194-.387-.29-.677-.29-.387 0-.678.096-.774.387-.097.193-.097.387-.097.774h-1.258c0-.581.096-.968.29-1.355.29-.677.968-.968 1.839-.968.677 0 1.258.194 1.645.581.387.387.581.871.581 1.452 0 .484-.097.871-.387 1.258-.194.29-.484.484-.968.774l-.484.387c-.29.194-.581.387-.678.484-.096.097-.193.194-.29.387h2.807v1.162h-4.452c0-.484.097-.871.29-1.258.194-.388.581-.871 1.258-1.355.581-.388.968-.678 1.162-.871.29-.291.387-.581.387-.968.097-.097 0-.387-.194-.581Zm3.678 0c-.097.194-.193.484-.193.774h-1.162c0-.29.097-.58.194-.871.097-.29.29-.484.484-.677.193-.194.387-.291.58-.387.194-.097.484-.097.871-.097.581 0 1.065.193 1.452.484.387.29.581.774.581 1.258 0 .387-.097.677-.29.968-.097.193-.291.29-.484.29.096 0 .29.097.484.29.29.291.484.678.484 1.259 0 .58-.194 1.064-.581 1.451-.387.388-.968.581-1.646.581-.871 0-1.548-.29-1.935-.871-.194-.29-.291-.774-.291-1.258h1.259c0 .29 0 .484.096.677.194.291.388.484.871.484.291 0 .484-.096.678-.29.194-.194.29-.387.29-.774s-.193-.678-.484-.871c-.193-.097-.484-.097-.967-.097v-.871c.387 0 .677 0 .871-.097.29-.097.387-.387.387-.774 0-.291-.097-.484-.194-.581-.097-.194-.387-.194-.581-.194-.387-.096-.677 0-.774.194Zm3.872 3.871h1.355v1.355h-1.355v-1.355Zm4.355 1.452c-.484 0-.871-.097-1.258-.387-.387-.29-.581-.677-.678-1.258h1.258c0 .193.097.387.194.484.097.097.29.193.484.193.387 0 .677-.193.871-.677.097-.291.194-.581.194-1.162-.097.194-.194.291-.388.291-.193.097-.483.193-.871.193-.484 0-.967-.193-1.355-.484-.387-.387-.58-.871-.58-1.548 0-.678.193-1.258.58-1.646.388-.387.871-.677 1.549-.677.968 0 1.645.387 2.032 1.258.194.484.291 1.162.291 1.936s-.097 1.452-.291 1.936c-.29 1.064-1.064 1.548-2.032 1.548Zm-.484-5.42c-.29.194-.387.484-.387.968 0 .387.097.678.193.871.194.194.388.29.678.29.194 0 .387-.096.484-.193.29-.194.387-.484.387-.968 0-.387-.097-.677-.29-.871-.194-.194-.387-.29-.678-.29 0 0-.193.096-.387.193Zm5.517 5.42c-.484 0-.871-.097-1.258-.387-.388-.29-.581-.677-.678-1.258h1.258c0 .193.097.387.194.484.097.097.29.193.484.193.387 0 .677-.193.871-.677.097-.291.193-.581.193-1.162-.096.194-.193.291-.387.291-.193.097-.484.193-.871.193-.484 0-.968-.193-1.355-.484-.387-.387-.58-.871-.58-1.548 0-.678.193-1.258.58-1.646.387-.387.871-.677 1.549-.677.968 0 1.645.387 2.032 1.258.194.484.291 1.162.291 1.936s-.097 1.452-.291 1.936c-.29 1.064-.968 1.548-2.032 1.548Zm-.387-5.42c-.291.194-.387.484-.387.968 0 .387.096.678.193.871.194.194.387.29.678.29.193 0 .387-.096.484-.193.29-.194.387-.484.387-.968 0-.387-.097-.677-.291-.871-.193-.194-.387-.29-.677-.29-.097 0-.291.096-.387.193Zm7.646 7.066-.291-.388c-.193-.29-.387-.677-.677-1.161-.387-.968-.581-1.839-.581-2.71 0-.774.194-1.645.484-2.42.194-.58.581-1.161 1.065-1.742h.968l-.291.484c-.387.678-.677 1.355-.774 2.129-.097.484-.097 1.065-.097 1.646 0 .871.097 1.742.387 2.516.194.484.387 1.065.775 1.742h-.968v-.096Zm3.484-5.033c-.193 0-.29 0-.387.096-.194.097-.387.194-.484.388l-1.161-.097.483-3.581h3.582v1.064h-2.614l-.193 1.452c.193-.097.387-.193.484-.29.193-.097.387-.097.677-.097.581 0 .968.194 1.355.581.387.387.581.871.581 1.548 0 .581-.194 1.162-.581 1.549-.387.484-.968.677-1.742.677-.581 0-1.161-.193-1.549-.484-.387-.29-.58-.774-.677-1.355h1.258c.097.291.194.484.291.678.096.194.387.194.58.194.291 0 .581-.097.678-.291.193-.193.29-.484.29-.871 0-.29-.097-.581-.193-.871-.097-.097-.388-.29-.678-.29Zm7.162 1.742c0-.484.194-.871.484-1.162.291-.29.678-.484 1.162-.484.484 0 .871.194 1.161.484.29.291.484.678.484 1.162 0 .484-.194.871-.484 1.161-.29.291-.677.484-1.161.484s-.871-.193-1.162-.484c-.29-.29-.484-.774-.484-1.161Zm-3.871-2.129c-.291-.291-.484-.678-.484-1.162 0-.484.193-.871.484-1.161.29-.291.677-.484 1.161-.484s.871.193 1.162.484c.29.29.484.677.484 1.161s-.194.871-.484 1.162c-.291.29-.678.483-1.162.483-.387 0-.774-.096-1.161-.483Zm1.839 3.774h-.678l3.581-6.581h.678l-3.581 6.581Zm3.194-1.161c.096.097.29.193.484.193.193 0 .387-.096.484-.193.096-.097.193-.291.193-.484 0-.194-.097-.387-.193-.484-.097-.097-.291-.194-.484-.194-.194 0-.388.097-.484.194-.097.097-.194.29-.194.484 0 .193 0 .29.194.484Zm-4.356-3.291c.097.097.291.194.484.194.194 0 .387-.097.484-.194.097-.097.194-.29.194-.484 0-.193-.097-.387-.194-.484-.097-.097-.29-.193-.484-.193-.193 0-.387.096-.484.193-.096.097-.193.291-.193.484 0 .194.097.387.193.484Zm13.937.097c.388.484.581 1.161.581 1.839 0 .677-.193 1.355-.581 1.839-.387.484-1.064.774-1.838.774-.872 0-1.452-.29-1.839-.774-.388-.484-.581-1.162-.581-1.839 0-.678.193-1.258.581-1.839.387-.484 1.064-.774 1.839-.774.774 0 1.355.193 1.838.774Zm-1.935.29c-.387 0-.678.097-.871.387-.194.291-.291.678-.291 1.162 0 .484.097.871.291 1.161.193.291.484.387.871.387s.677-.096.871-.387c.193-.29.29-.677.29-1.161s-.097-.871-.29-1.162c-.194-.29-.484-.387-.871-.387Zm5.71-2.71v1.065h-.387c-.194 0-.29 0-.387.097-.097.096-.097.193-.097.29v.387h.871v.871h-.871v3.872h-1.258V178.6h-.678v-.871h.678v-.29c0-.484.097-.871.29-1.065.194-.29.581-.484 1.355-.484h.484Zm3 0v1.065h-.387c-.193 0-.29 0-.387.097-.097.096-.097.193-.097.29v.387h.871v.871h-.774v3.872h-1.258V178.6h-.678v-.871h.678v-.29c0-.484.097-.871.29-1.065.194-.29.581-.484 1.355-.484h.387Zm1.549 8.033-.29.388h-.968c.387-.678.677-1.259.774-1.743.29-.774.387-1.548.387-2.516 0-.581 0-1.161-.097-1.645-.096-.775-.387-1.452-.774-2.13l-.29-.484h.968c.484.581.774 1.259 1.064 1.743.387.774.484 1.645.484 2.419 0 .871-.193 1.839-.58 2.71-.291.581-.484.968-.678 1.258ZM139.404 189.634h.871v6.484h-.871v-6.484Zm2.226 1.742h.774v.677c.194-.29.484-.483.678-.58.29-.097.484-.194.871-.194.677 0 1.161.194 1.355.678.097.29.193.58.193 1.064v3.097h-.774v-3c0-.29 0-.484-.097-.677-.097-.291-.387-.484-.774-.484-.194 0-.387 0-.484.096-.194.097-.387.194-.581.388-.096.193-.193.29-.29.484 0 .193-.097.387-.097.677v2.516h-.774v-4.742Zm5.517 3.291c0 .29.096.484.193.58.194.291.581.388 1.065.388.29 0 .581-.097.774-.194.194-.097.291-.29.291-.581 0-.193-.097-.387-.291-.484-.097-.096-.387-.096-.677-.193l-.678-.194c-.387-.097-.677-.193-.871-.29-.387-.194-.484-.484-.484-.871 0-.484.194-.775.484-1.065.29-.29.774-.387 1.355-.387.678 0 1.258.194 1.549.677.193.291.29.581.29.872h-.774c0-.194-.097-.388-.194-.484-.193-.194-.484-.291-.968-.291-.29 0-.484.097-.677.194-.194.097-.194.29-.194.484 0 .193.097.387.291.484.096.096.29.096.484.193l.483.097c.581.097.968.29 1.162.387.29.194.484.484.484.968 0 .387-.194.774-.484 1.065-.29.29-.774.484-1.452.484-.677 0-1.258-.194-1.548-.484-.291-.291-.484-.678-.484-1.162h.871v-.193Zm4.258-4.549h.775v1.355h.774v.677h-.774v3.097c0 .194.096.291.193.291s.194.097.29.097H152.954v.677c-.097 0-.194 0-.291.097h-.29c-.387 0-.581-.097-.774-.291-.097-.193-.194-.483-.194-.774v-3.291h-.677v-.677h.677v-1.258Zm4.356 1.161c.29 0 .677.097.967.194.291.193.581.387.678.58.194.194.29.484.29.872 0 .193.097.58.097 1.064h-3.484c0 .484.097.871.387 1.162.194.29.581.484.968.484s.774-.097.968-.388c.096-.193.29-.387.29-.58h.774c0 .193-.096.387-.193.58-.097.194-.291.388-.387.484-.291.194-.581.387-.871.484-.194 0-.388.097-.678.097-.581 0-1.065-.194-1.549-.677-.387-.388-.58-1.065-.58-1.839 0-.775.193-1.355.58-1.839.484-.387 1.065-.678 1.743-.678Zm1.258 2.129c0-.387-.097-.58-.194-.871-.193-.387-.58-.58-1.064-.58-.388 0-.678.096-.968.387-.291.29-.387.581-.387.968h2.613v.096Zm2.419 1.452c0 .194.097.387.291.581.193.097.387.194.581.194.29 0 .58-.097.774-.194.484-.194.677-.581.677-1.065v-.677c-.096.097-.193.097-.387.193-.193 0-.29.097-.484.097l-.484.097c-.29 0-.484.097-.677.194-.194.096-.291.29-.291.58Zm1.936-1.548c.194 0 .291-.097.387-.194 0-.097.097-.193.097-.29 0-.291-.097-.484-.29-.581-.194-.097-.484-.194-.871-.194s-.678.097-.871.291c-.097.097-.194.29-.194.581h-.774c0-.581.193-.968.58-1.259.388-.193.775-.387 1.259-.387.58 0 .968.097 1.355.291.387.193.484.58.484.967v2.71c0 .097 0 .194.096.194 0 .097.097.097.194.097h.194v.58c-.097 0-.194.097-.291.097h-.29c-.291 0-.484-.097-.581-.29-.097-.097-.097-.29-.097-.484-.193.194-.387.387-.677.581-.291.193-.678.193-.968.193-.484 0-.774-.097-1.065-.387-.29-.29-.387-.581-.387-.968 0-.484.097-.774.387-1.064.291-.291.678-.388 1.065-.484h1.258Zm3.001.484c0 .484.096.967.29 1.258.193.387.581.484 1.065.484.387 0 .677-.194.871-.484.193-.291.387-.774.387-1.355s-.097-1.065-.387-1.355c-.291-.291-.581-.484-.871-.484-.388 0-.775.193-.968.484-.291.484-.387.871-.387 1.452Zm1.258-2.517c.387 0 .677.097.871.194l.484.484v-2.42h.774v6.581h-.677v-.677c-.194.29-.388.484-.678.677-.29.097-.581.194-.871.194-.484 0-.968-.194-1.355-.677-.387-.484-.581-1.065-.581-1.743 0-.677.194-1.258.484-1.839.387-.483.871-.774 1.549-.774Zm7.743 4.356c.484 0 .871-.194 1.064-.581.194-.387.291-.871.291-1.355s-.097-.774-.194-1.065c-.193-.484-.581-.677-1.161-.677-.484 0-.871.193-1.065.58-.194.388-.29.871-.29 1.355s.096.968.29 1.259c.194.29.581.484 1.065.484Zm0-4.356c.58 0 1.161.194 1.548.581.387.387.678.968.678 1.839 0 .774-.194 1.355-.581 1.936-.387.483-.968.774-1.742.774-.678 0-1.162-.194-1.549-.678-.387-.484-.58-1.064-.58-1.742 0-.774.193-1.452.58-1.936.484-.58.968-.774 1.646-.774Zm3.387-.581c0-.29.097-.58.194-.774.193-.29.58-.387 1.064-.387h.388v.774H178.118c-.29 0-.387.097-.387.194s-.097.484-.097.968h.775v.677h-.775v4.065h-.774v-4.162h-.678v-.677h.678v-.678h-.097Zm6.969 5.033c.484 0 .871-.193 1.064-.58.097-.194.194-.388.194-.581 0-.387-.097-.678-.387-.871-.194-.097-.387-.194-.774-.291v2.323h-.097Zm-1.452-4.355c0 .29.097.484.29.677.194.194.484.291.775.388v-2.13c-.388 0-.678.097-.871.387-.194.194-.194.484-.194.678Zm-.871.097c0-.484.193-.871.484-1.258.29-.388.774-.581 1.355-.581v-.484h.387v.581c.581 0 1.065.193 1.355.484.29.29.484.677.484 1.258h-.774c0-.194-.097-.387-.194-.581-.194-.29-.484-.484-.871-.484v2.129c.677.194 1.161.388 1.355.581.387.29.581.678.581 1.258 0 .775-.291 1.355-.775 1.646-.29.193-.677.29-1.258.387v.871h-.387v-.871c-.871-.097-1.452-.387-1.742-.871-.194-.291-.29-.678-.29-1.258h.774c0 .387.097.677.193.871.194.29.484.484 1.065.58v-2.419c-.677-.097-1.065-.291-1.452-.581-.097-.387-.29-.774-.29-1.258Zm4.936 4.645c0-.58.097-1.064.29-1.451.194-.387.581-.775 1.162-1.065l.871-.484c.387-.193.677-.387.774-.581.29-.29.387-.484.387-.871s-.097-.677-.29-.871c-.194-.193-.484-.29-.871-.29-.581 0-.968.193-1.162.581-.096.193-.193.484-.193.967h-.774c0-.58.096-.967.29-1.355.387-.58.968-.967 1.839-.967.774 0 1.258.193 1.548.58.291.387.484.871.484 1.355s-.193.968-.58 1.259c-.194.193-.581.483-1.162.774l-.581.29c-.29.194-.483.291-.677.484-.29.29-.484.581-.581.871h3.485v.774h-4.259Zm7.452-6.387c.678 0 1.162.193 1.452.58.291.387.387.775.387 1.162h-.774c0-.291-.097-.484-.193-.581-.194-.29-.484-.387-.872-.387-.483 0-.774.193-1.064.581-.291.387-.387.967-.484 1.742.193-.291.387-.484.677-.581.291-.097.581-.194.871-.194.581 0 .968.194 1.355.484.388.388.581.871.581 1.549 0 .581-.193 1.065-.581 1.549-.387.483-.871.677-1.645.677-.581 0-1.065-.194-1.548-.677-.388-.484-.678-1.259-.678-2.323 0-.775.097-1.452.29-2.033.581-.968 1.259-1.548 2.226-1.548Zm0 5.904c.388 0 .775-.097.968-.388.194-.29.291-.58.291-.967 0-.291-.097-.678-.291-.968-.193-.291-.484-.484-1.064-.484-.387 0-.678.097-.871.387-.291.193-.388.581-.388 1.065 0 .387.097.774.388 1.064.193.097.484.291.967.291Z"/><path stroke="#6D7175" d="M120.143 119.077h94.463c2.323 0 4.259 1.935 4.259 4.258v79.655c0 2.323-1.936 4.259-4.259 4.259h-94.463c-2.323 0-4.258-1.936-4.258-4.259v-79.655c0-2.323 1.935-4.258 4.258-4.258Z"/><path fill="#202223" d="M.1 8.9h1v-3h2.1c1.6 0 2.7-1.1 2.7-2.7S4.8.5 3.2.5H0v8.4h.1ZM3 1.4c1.2 0 1.9.7 1.9 1.8S4.2 5 3 5H1.2V1.5H3v-.1ZM9.7 9c.9 0 1.6-.4 1.9-1v.9h1V2.6h-1v3.7c0 1.1-.6 1.8-1.7 1.8-1 0-1.4-.5-1.4-1.7V2.6h-1v4.1c0 1.4.7 2.3 2.2 2.3Zm4.8-.1h1V5c0-.9.7-1.5 1.7-1.5.2 0 .4 0 .6.1v-1h-.5c-.8 0-1.4.4-1.7 1h-.1v-.9h-1v6.2Zm6.9.1c1.5 0 2.3-.8 2.6-1.9V7h-1c-.2.7-.8 1.1-1.6 1.1-1.1 0-1.8-.9-1.8-2.4 0-1.4.7-2.3 1.8-2.3.9 0 1.5.5 1.6 1.1h1c-.2-1.1-1.1-2-2.6-2-1.8 0-2.9 1.3-2.9 3.2.1 2 1.2 3.3 2.9 3.3Zm4.2-.1h1V5.2c0-1.1.6-1.8 1.6-1.8s1.5.5 1.5 1.7v3.8h1V4.8c0-1.5-.8-2.3-2.2-2.3-.9 0-1.5.4-1.8 1.1h-.1V.200005h-1V8.9Zm8.7.1c.8 0 1.5-.4 1.9-1h.1v.9h1V4.6c0-1.3-.9-2.1-2.4-2.1-1.3 0-2.3.7-2.5 1.6h1c.2-.5.7-.8 1.4-.8.9 0 1.4.4 1.4 1.2v.6l-1.8.1c-1.5.1-2.3.7-2.3 1.8.1 1.3 1 2 2.2 2Zm-1.1-1.9c0-.6.4-1 1.4-1l1.7-.1v.6c0 .9-.8 1.6-1.8 1.6-.8-.1-1.3-.5-1.3-1.1ZM41.3 9c1.4 0 2.5-.8 2.5-1.9 0-.9-.6-1.4-1.8-1.7l-1-.2c-.7-.2-1.1-.4-1.1-.9 0-.6.5-.9 1.3-.9s1.2.3 1.4.8h1c-.1-1-1.1-1.7-2.4-1.7-1.3 0-2.3.8-2.3 1.8 0 .9.5 1.4 1.7 1.7l1 .2c.8.2 1.1.5 1.1.9 0 .6-.6 1-1.4 1-.8 0-1.3-.3-1.5-.9h-1c.1 1.1 1.1 1.8 2.5 1.8Zm6.6 0c1.5 0 2.4-.8 2.6-1.7h-1v.1c-.2.4-.7.8-1.5.8-1.1 0-1.8-.8-1.9-2.1h4.5v-.4c0-1.9-1-3.1-2.7-3.1-1.7 0-2.8 1.3-2.8 3.3-.1 1.8 1 3.1 2.8 3.1Zm-.1-5.6c.9 0 1.6.6 1.7 1.8H46c.2-1.2.9-1.8 1.8-1.8ZM58.1 9C59.9 9 61 7.8 61 5.8s-1.1-3.2-2.9-3.2c-1.8 0-2.9 1.2-2.9 3.2 0 1.9 1.1 3.2 2.9 3.2Zm0-.9c-1.2 0-1.9-.9-1.9-2.3 0-1.5.7-2.3 1.9-2.3s1.9.9 1.9 2.3c-.1 1.4-.7 2.3-1.9 2.3Zm4.4 2.9h1V7.9h.1c.3.7 1.1 1.1 2 1.1 1.6 0 2.6-1.3 2.6-3.2 0-2-1-3.2-2.6-3.2-.9 0-1.6.4-2 1.1h-.1v-1h-1V11Zm2.9-2.9c-1.1 0-1.8-.9-1.8-2.3s.7-2.3 1.8-2.3 1.8.9 1.8 2.3-.7 2.3-1.8 2.3Zm6.6.8c.2 0 .4 0 .6-.1v-.9h-.5c-.7 0-.9-.3-.9-1V3.4h1.4v-.8h-1.4V1h-1v1.6h-1v.8h1v3.8c0 1.2.5 1.7 1.8 1.7Zm2.7-7.5c.4 0 .7-.3.7-.699995C75.4.300005 75.1 0 74.7 0c-.4 0-.7.300005-.7.700005C74 1.1 74.3 1.4 74.7 1.4Zm-.6 7.5h1V2.6h-1v6.3Zm5.5.1c1.8 0 2.9-1.2 2.9-3.2s-1.1-3.2-2.9-3.2c-1.8 0-2.9 1.2-2.9 3.2.1 1.9 1.2 3.2 2.9 3.2Zm0-.9c-1.2 0-1.9-.9-1.9-2.3 0-1.5.7-2.3 1.9-2.3s1.9.9 1.9 2.3-.7 2.3-1.9 2.3Zm4.5.8h1V5.2c0-1.1.6-1.8 1.6-1.8s1.5.5 1.5 1.7v3.8h1V4.8c0-1.5-.8-2.3-2.2-2.3-.9 0-1.5.4-1.8 1.1h-.1v-.9h-1v6.2Zm9.1.1c1.4 0 2.5-.8 2.5-1.9 0-.9-.6-1.4-1.8-1.7l-1-.2c-.7-.2-1.1-.4-1.1-.9 0-.6.5-.9 1.3-.9s1.2.3 1.4.8h1c-.1-1-1.1-1.7-2.4-1.7-1.3 0-2.3.8-2.3 1.8 0 .9.5 1.4 1.7 1.7l1 .2c.8.2 1.1.5 1.1.9 0 .6-.6 1-1.4 1-.8 0-1.3-.3-1.5-.9h-1c.2 1.1 1.1 1.8 2.5 1.8Z"/></svg>