<svg width="170" height="170" viewBox="0 0 170 170" fill="none" xmlns="http://www.w3.org/2000/svg">
<path d="M85 170C131.944 170 170 131.944 170 85C170 38.0558 131.944 0 85 0C38.0558 0 0 38.0558 0 85C0 131.944 38.0558 170 85 170Z" fill="#E8E9EB"/>
<mask id="mask0_3500_81281" style="mask-type:alpha" maskUnits="userSpaceOnUse" x="0" y="0" width="170" height="170">
<path fill-rule="evenodd" clip-rule="evenodd" d="M170 85C170 131.944 131.944 170 85 170H0V85V0H85C131.944 0 170 38.0558 170 85Z" fill="#C4C4C4"/>
</mask>
<g mask="url(#mask0_3500_81281)">
<path d="M85 170C131.944 170 170 131.944 170 85C170 38.0558 131.944 0 85 0C38.0558 0 0 38.0558 0 85C0 131.944 38.0558 170 85 170Z" fill="#E8E9EB"/>
<g filter="url(#filter0_d_3500_81281)">
<path d="M166 27.9805H13.4805C11.2713 27.9805 9.48047 29.7713 9.48047 31.9805V138.72C9.48047 140.93 11.2713 142.72 13.4805 142.72H166C168.21 142.72 170 140.93 170 138.72V31.9805C170 29.7713 168.21 27.9805 166 27.9805Z" fill="white"/>
</g>
<path d="M50.6298 38.8203H20.5098C18.2068 38.8203 16.3398 40.6873 16.3398 42.9903C16.3398 45.2933 18.2068 47.1603 20.5098 47.1603H50.6298C52.9329 47.1603 54.7998 45.2933 54.7998 42.9903C54.7998 40.6873 52.9329 38.8203 50.6298 38.8203Z" fill="#B6BABE"/>
<path d="M59.1498 52.1094H18.4998C17.3069 52.1094 16.3398 53.0764 16.3398 54.2694V54.2794C16.3398 55.4723 17.3069 56.4394 18.4998 56.4394H59.1498C60.3428 56.4394 61.3098 55.4723 61.3098 54.2794V54.2694C61.3098 53.0764 60.3428 52.1094 59.1498 52.1094Z" fill="#D3D5D9"/>
<path d="M40.7498 77.0996H20.5098C18.2068 77.0996 16.3398 78.9666 16.3398 81.2696C16.3398 83.5726 18.2068 85.4396 20.5098 85.4396H40.7498C43.0529 85.4396 44.9198 83.5726 44.9198 81.2696C44.9198 78.9666 43.0529 77.0996 40.7498 77.0996Z" fill="#B6BABE"/>
<path d="M65.4898 90.4004H18.4998C17.3069 90.4004 16.3398 91.3675 16.3398 92.5604V92.5704C16.3398 93.7633 17.3069 94.7304 18.4998 94.7304H65.4898C66.6828 94.7304 67.6498 93.7633 67.6498 92.5704V92.5604C67.6498 91.3675 66.6828 90.4004 65.4898 90.4004Z" fill="#D3D5D9"/>
<path d="M56.7298 114.65H20.5098C18.2068 114.65 16.3398 116.517 16.3398 118.82C16.3398 121.123 18.2068 122.99 20.5098 122.99H56.7298C59.0329 122.99 60.8998 121.123 60.8998 118.82C60.8998 116.517 59.0329 114.65 56.7298 114.65Z" fill="#B6BABE"/>
<path d="M44.4498 127.949H18.4998C17.3069 127.949 16.3398 128.916 16.3398 130.109V130.119C16.3398 131.312 17.3069 132.279 18.4998 132.279H44.4498C45.6428 132.279 46.6098 131.312 46.6098 130.119V130.109C46.6098 128.916 45.6428 127.949 44.4498 127.949Z" fill="#D3D5D9"/>
<path d="M113.78 112.4H95.3798C94.2089 112.4 93.2598 113.35 93.2598 114.52V132.55C93.2598 133.721 94.2089 134.67 95.3798 134.67H113.78C114.951 134.67 115.9 133.721 115.9 132.55V114.52C115.9 113.35 114.951 112.4 113.78 112.4Z" stroke="#BCBCBC" stroke-width="0.5" stroke-miterlimit="10"/>
<path d="M140.78 112.4H122.38C121.209 112.4 120.26 113.35 120.26 114.52V132.55C120.26 133.721 121.209 134.67 122.38 134.67H140.78C141.951 134.67 142.9 133.721 142.9 132.55V114.52C142.9 113.35 141.951 112.4 140.78 112.4Z" stroke="#BCBCBC" stroke-width="0.5" stroke-miterlimit="10"/>
<path d="M167.77 112.4H149.37C148.199 112.4 147.25 113.35 147.25 114.52V132.55C147.25 133.721 148.199 134.67 149.37 134.67H167.77C168.941 134.67 169.89 133.721 169.89 132.55V114.52C169.89 113.35 168.941 112.4 167.77 112.4Z" stroke="#BCBCBC" stroke-width="0.5" stroke-miterlimit="10"/>
<path d="M113.78 74.3008H95.3798C94.2089 74.3008 93.2598 75.2499 93.2598 76.4208V94.4508C93.2598 95.6216 94.2089 96.5708 95.3798 96.5708H113.78C114.951 96.5708 115.9 95.6216 115.9 94.4508V76.4208C115.9 75.2499 114.951 74.3008 113.78 74.3008Z" stroke="#BCBCBC" stroke-width="0.5" stroke-miterlimit="10"/>
<path d="M141.389 74.3008H122.989C121.818 74.3008 120.869 75.2499 120.869 76.4208V94.4508C120.869 95.6216 121.818 96.5708 122.989 96.5708H141.389C142.56 96.5708 143.509 95.6216 143.509 94.4508V76.4208C143.509 75.2499 142.56 74.3008 141.389 74.3008Z" stroke="#BCBCBC" stroke-width="0.5" stroke-miterlimit="10"/>
<path d="M113.78 36.2109H95.3798C94.2089 36.2109 93.2598 37.1601 93.2598 38.3309V56.3609C93.2598 57.5318 94.2089 58.4809 95.3798 58.4809H113.78C114.951 58.4809 115.9 57.5318 115.9 56.3609V38.3309C115.9 37.1601 114.951 36.2109 113.78 36.2109Z" stroke="#BCBCBC" stroke-width="0.5" stroke-miterlimit="10"/>
<path d="M140.78 36.2109H122.38C121.209 36.2109 120.26 37.1601 120.26 38.3309V56.3609C120.26 57.5318 121.209 58.4809 122.38 58.4809H140.78C141.951 58.4809 142.9 57.5318 142.9 56.3609V38.3309C142.9 37.1601 141.951 36.2109 140.78 36.2109Z" stroke="#BCBCBC" stroke-width="0.5" stroke-miterlimit="10"/>
<path d="M170.001 66.5703H14.1406" stroke="#BCBCBC" stroke-width="0.5" stroke-miterlimit="10"/>
<path d="M170.001 104.76H14.1406" stroke="#BCBCBC" stroke-width="0.5" stroke-miterlimit="10"/>
<path d="M149.699 46.1309L152.119 48.5609L154.539 46.1309H149.699Z" fill="#7D7F81"/>
<path d="M149.699 84.2305L152.119 86.6505L154.539 84.2305H149.699Z" fill="#7D7F81"/>
<path d="M133.601 79.3601C133.111 79.5201 132.201 81.2301 132.201 81.2301C132.201 81.2301 131.301 79.5201 130.801 79.3601C129.971 79.0901 129.211 79.9701 129.211 79.9701L129.681 81.4301H132.201H134.731L135.191 79.9701C135.191 79.9701 134.441 79.0901 133.601 79.3601Z" fill="#D07060"/>
<path d="M135.742 80.9796C135.531 80.41 134.898 80.1194 134.328 80.3305C133.759 80.5417 133.468 81.1747 133.679 81.7443L136.529 89.433C136.741 90.0026 137.374 90.2932 137.943 90.0821C138.513 89.8709 138.803 89.2379 138.592 88.6683L135.742 80.9796Z" fill="#DF8A74"/>
<path d="M134.22 80.3594L133.92 80.4694L134.22 80.3594Z" fill="#A55E4C"/>
<path d="M138.7 89.7695C138.667 89.7749 138.633 89.7749 138.6 89.7695L137.28 90.2595C137.241 90.2685 137.2 90.2685 137.16 90.2595L137.22 90.4095C137.258 90.5046 137.331 90.5814 137.424 90.6242C137.517 90.667 137.623 90.6725 137.72 90.6395L138.53 90.3395C138.625 90.3015 138.702 90.2284 138.745 90.1354C138.788 90.0424 138.793 89.9365 138.76 89.8395L138.7 89.7695Z" fill="#A55E4C"/>
<path d="M135 85.1992L136.82 90.0792C136.835 90.1288 136.861 90.1746 136.895 90.2136C136.93 90.2526 136.972 90.284 137.019 90.3057C137.066 90.3274 137.117 90.3389 137.169 90.3395C137.221 90.3401 137.272 90.3298 137.32 90.3092L138.64 89.8192C138.689 89.8026 138.733 89.7762 138.772 89.7417C138.81 89.7072 138.841 89.6653 138.862 89.6185C138.884 89.5718 138.895 89.5211 138.897 89.4697C138.898 89.4182 138.889 89.367 138.87 89.3192L137.35 85.1992H135Z" fill="#D07060"/>
<path d="M135.19 81L135 85.31L136.77 90.08C136.791 90.1559 136.837 90.2226 136.9 90.27L135.19 81Z" fill="#BF5E4D"/>
<path d="M125.794 88.657C125.583 89.2266 125.874 89.8596 126.443 90.0708C127.013 90.2819 127.646 89.9913 127.857 89.4217L130.707 81.733C130.918 81.1634 130.628 80.5304 130.058 80.3193C129.489 80.1081 128.856 80.3987 128.644 80.9683L125.794 88.657Z" fill="#DF8A74"/>
<path d="M130.17 80.3594L130.46 80.4694L130.17 80.3594Z" fill="#A55E4C"/>
<path d="M125.681 89.7695C125.714 89.7749 125.748 89.7749 125.781 89.7695L127.111 90.2595C127.147 90.2698 127.185 90.2698 127.221 90.2595L127.161 90.4095C127.125 90.5062 127.052 90.5847 126.958 90.6278C126.865 90.6709 126.758 90.6751 126.661 90.6395L125.851 90.3395C125.756 90.3015 125.679 90.2284 125.636 90.1354C125.593 90.0424 125.588 89.9365 125.621 89.8395L125.681 89.7695Z" fill="#A55E4C"/>
<path d="M129.42 85.1992L127.61 90.0792C127.594 90.1279 127.567 90.1727 127.533 90.2109C127.498 90.2491 127.456 90.2799 127.41 90.3014C127.363 90.3229 127.312 90.3347 127.261 90.336C127.209 90.3374 127.158 90.3282 127.11 90.3092L125.78 89.8192C125.732 89.8026 125.687 89.7762 125.649 89.7417C125.61 89.7072 125.58 89.6653 125.558 89.6185C125.537 89.5718 125.525 89.5211 125.524 89.4697C125.522 89.4182 125.531 89.367 125.55 89.3192L127.08 85.1992H129.42Z" fill="#D07060"/>
<path d="M129.191 81L129.381 85.29L127.611 90.06C127.582 90.1347 127.533 90.2002 127.471 90.25L129.191 81Z" fill="#BF5E4D"/>
<path d="M129.699 79.8496H134.849C134.946 79.8496 135.043 79.8687 135.132 79.9059C135.222 79.9431 135.304 79.9976 135.372 80.0664C135.441 80.1351 135.496 80.2166 135.533 80.3064C135.57 80.3962 135.589 80.4924 135.589 80.5896V89.5296C135.589 89.7948 135.484 90.0492 135.296 90.2367C135.109 90.4243 134.854 90.5296 134.589 90.5296H129.869C129.604 90.5296 129.35 90.4243 129.162 90.2367C128.974 90.0492 128.869 89.7948 128.869 89.5296V80.7196C128.869 80.4889 128.961 80.2676 129.124 80.1044C129.287 79.9413 129.508 79.8496 129.739 79.8496H129.699Z" fill="#D07060"/>
<path d="M135.48 89.4102H128.82C128.82 89.6966 128.934 89.9713 129.137 90.1738C129.339 90.3764 129.614 90.4902 129.9 90.4902H134.51C134.652 90.4902 134.792 90.4622 134.922 90.4078C135.053 90.3534 135.171 90.2737 135.27 90.1732C135.37 90.0728 135.449 89.9537 135.502 89.8227C135.555 89.6917 135.582 89.5515 135.58 89.4102H135.48Z" fill="#A55E4C"/>
<path d="M134.78 79.8497H129.61C129.507 79.8483 129.405 79.8675 129.309 79.9062C129.213 79.9448 129.126 80.002 129.052 80.0746C128.979 80.1471 128.92 80.2336 128.881 80.3289C128.841 80.4241 128.82 80.5264 128.82 80.6297V86.8797C129.789 87.6257 130.978 88.0302 132.2 88.0302C133.423 88.0302 134.611 87.6257 135.58 86.8797V80.6597C135.582 80.5538 135.562 80.4487 135.522 80.3505C135.483 80.2522 135.424 80.1629 135.35 80.0875C135.275 80.0122 135.186 79.9523 135.089 79.9115C134.991 79.8707 134.886 79.8497 134.78 79.8497Z" fill="#DF8A74"/>
<path d="M129.641 79.8498C129.489 79.8482 129.34 79.8898 129.211 79.9698C129.601 80.3714 130.067 80.6906 130.582 80.9087C131.098 81.1267 131.651 81.239 132.211 81.239C132.77 81.239 133.324 81.1267 133.84 80.9087C134.355 80.6906 134.821 80.3714 135.211 79.9698C135.086 79.8884 134.94 79.8466 134.791 79.8498H129.641Z" fill="#D07060"/>
<path d="M133.07 79.8496H131.33C131.65 80.2897 131.941 80.7507 132.2 81.2296C132.459 80.7507 132.75 80.2897 133.07 79.8496Z" fill="#A55E4C"/>
<path d="M133 84.5504C132.98 84.5519 132.96 84.549 132.941 84.542C132.922 84.535 132.905 84.524 132.891 84.5097C132.876 84.4955 132.865 84.4784 132.858 84.4595C132.851 84.4406 132.849 84.4204 132.85 84.4004V81.1404C132.85 81.1211 132.854 81.102 132.862 81.0844C132.869 81.0667 132.88 81.0508 132.894 81.0377C132.909 81.0245 132.925 81.0144 132.943 81.008C132.961 81.0016 132.981 80.999 133 81.0004C133.02 81.0004 133.039 81.0042 133.057 81.0118C133.076 81.0193 133.092 81.0304 133.106 81.0443C133.12 81.0582 133.131 81.0748 133.139 81.093C133.146 81.1112 133.15 81.1307 133.15 81.1504V84.4004C133.15 84.4401 133.134 84.4783 133.106 84.5064C133.078 84.5346 133.04 84.5504 133 84.5504Z" fill="white"/>
<path d="M131.38 84.5506C131.341 84.5506 131.303 84.5348 131.274 84.5067C131.246 84.4786 131.23 84.4404 131.23 84.4006V81.1406C131.23 81.1008 131.246 81.0627 131.274 81.0346C131.303 81.0064 131.341 80.9906 131.38 80.9906C131.401 80.9891 131.421 80.992 131.44 80.999C131.458 81.006 131.476 81.017 131.49 81.0312C131.504 81.0455 131.515 81.0626 131.522 81.0815C131.529 81.1004 131.532 81.1205 131.53 81.1406V84.4006C131.532 84.4207 131.529 84.4409 131.522 84.4597C131.515 84.4786 131.504 84.4958 131.49 84.51C131.476 84.5242 131.458 84.5352 131.44 84.5422C131.421 84.5493 131.401 84.5521 131.38 84.5506Z" fill="white"/>
<path d="M132.04 42.0604L129.91 47.2404L125.91 43.2604L131.03 41.1504L132.04 42.0604Z" fill="#6C7175"/>
<path d="M125.91 43.2606L129.91 47.2406L130.51 45.7706L127.42 42.6406L125.91 43.2606Z" fill="#D8A354"/>
<path d="M130.33 41.4404L131.72 42.8304L132.04 42.0604L131.03 41.1504L130.33 41.4404Z" fill="#43474A"/>
<path d="M132.595 41.0556L132.121 40.5819C131.945 40.4061 131.66 40.4061 131.485 40.5819L131.477 40.5889C131.302 40.7647 131.302 41.0496 131.477 41.2253L131.951 41.6991C132.127 41.8748 132.412 41.8748 132.588 41.6991L132.595 41.692C132.77 41.5163 132.77 41.2314 132.595 41.0556Z" fill="#6C7175"/>
<path d="M132.673 40.7605C132.748 40.6863 132.748 40.566 132.673 40.4918C132.599 40.4176 132.479 40.4176 132.405 40.4918L131.712 41.1847C131.638 41.2589 131.638 41.3792 131.712 41.4534C131.786 41.5276 131.906 41.5276 131.98 41.4534L132.673 40.7605Z" fill="black"/>
<path d="M134.589 52.5595H134.089C134.029 52.5571 133.972 52.5321 133.929 52.4894C133.887 52.4468 133.862 52.3898 133.859 52.3295V46.5095C133.866 45.1189 133.324 43.7817 132.349 42.7895L130.259 40.6295C130.217 40.585 130.193 40.5259 130.193 40.4645C130.193 40.4032 130.217 40.3441 130.259 40.2995L130.619 39.9495C130.662 39.908 130.719 39.8848 130.779 39.8848C130.839 39.8848 130.896 39.908 130.939 39.9495L133.039 42.1095C134.185 43.2826 134.825 44.8593 134.819 46.4995V52.3195C134.82 52.3506 134.815 52.3816 134.805 52.4106C134.794 52.4397 134.777 52.4663 134.755 52.4887C134.734 52.5111 134.708 52.5289 134.679 52.5411C134.651 52.5533 134.62 52.5596 134.589 52.5595Z" fill="#D8A354"/>
<path d="M135.621 52.1797H130.901C130.614 52.1797 130.381 52.4125 130.381 52.6997C130.381 52.9869 130.614 53.2197 130.901 53.2197H135.621C135.908 53.2197 136.141 52.9869 136.141 52.6997C136.141 52.4125 135.908 52.1797 135.621 52.1797Z" fill="#6C7175"/>
<path d="M135.82 52.1797H135.15C135.235 52.1797 135.317 52.2134 135.377 52.2734C135.437 52.3334 135.47 52.4148 135.47 52.4997V52.8997C135.47 52.9846 135.437 53.0659 135.377 53.126C135.317 53.186 135.235 53.2197 135.15 53.2197H135.82C135.905 53.2197 135.987 53.186 136.047 53.126C136.107 53.0659 136.14 52.9846 136.14 52.8997V52.4997C136.14 52.4148 136.107 52.3334 136.047 52.2734C135.987 52.2134 135.905 52.1797 135.82 52.1797Z" fill="#43474A"/>
<path d="M100.87 48.1206H108.09C108.175 48.1206 108.26 48.1038 108.339 48.0711C108.417 48.0384 108.489 47.9905 108.549 47.9302C108.61 47.8698 108.658 47.7982 108.69 47.7193C108.723 47.6404 108.74 47.5559 108.74 47.4706V41.5606C108.741 41.4671 108.721 41.3745 108.683 41.2891C108.645 41.2038 108.589 41.1276 108.519 41.0659C108.449 41.0042 108.366 40.9584 108.276 40.9316C108.187 40.9048 108.092 40.8976 108 40.9106L106.11 41.1706C105.028 41.3106 103.932 41.3106 102.85 41.1706L101 40.9106C100.907 40.8976 100.813 40.9048 100.723 40.9316C100.634 40.9584 100.551 41.0042 100.481 41.0659C100.411 41.1276 100.354 41.2038 100.316 41.2891C100.278 41.3745 100.259 41.4671 100.26 41.5606V47.4706C100.259 47.6362 100.322 47.7958 100.436 47.9166C100.549 48.0374 100.704 48.1104 100.87 48.1206Z" fill="#524740"/>
<path d="M101.34 48.1791V44.9391C101.34 44.1036 101.672 43.3024 102.262 42.7117C102.853 42.1209 103.654 41.7891 104.49 41.7891C105.325 41.7891 106.126 42.1209 106.717 42.7117C107.308 43.3024 107.64 44.1036 107.64 44.9391V48.1691" fill="#AE704F"/>
<path d="M109.049 45.1508C108.756 45.1708 108.479 45.2944 108.269 45.4996C108.058 45.7047 107.927 45.978 107.899 46.2708V48.0708C107.899 48.4208 107.609 48.4808 107.259 48.4808H104.459C104.459 48.5408 104.459 48.8108 104.459 48.8608C104.455 49.1302 104.485 49.3991 104.549 49.6608C104.59 49.902 104.61 50.1462 104.609 50.3908H107.279C107.895 50.3908 108.485 50.1463 108.92 49.7113C109.355 49.2762 109.599 48.6861 109.599 48.0708V45.6808C109.6 45.6095 109.585 45.5389 109.557 45.4732C109.529 45.4076 109.489 45.3482 109.437 45.2987C109.386 45.2493 109.325 45.2106 109.258 45.1852C109.192 45.1598 109.121 45.1481 109.049 45.1508Z" fill="#845336"/>
<path d="M99.9995 45.1508C100.292 45.1727 100.568 45.297 100.778 45.5018C100.988 45.7065 101.12 45.9788 101.149 46.2708V48.0708C101.149 48.4208 101.429 48.4808 101.789 48.4808H104.579C104.579 48.5408 104.579 48.8108 104.579 48.8608C104.584 49.1302 104.554 49.3991 104.489 49.6608C104.454 49.9026 104.434 50.1464 104.429 50.3908H101.769C101.464 50.3921 101.161 50.333 100.879 50.217C100.596 50.101 100.339 49.9304 100.122 49.7148C99.906 49.4992 99.7342 49.243 99.617 48.9609C99.4998 48.6788 99.4395 48.3763 99.4395 48.0708V45.6808C99.4407 45.609 99.4563 45.5382 99.4853 45.4725C99.5143 45.4068 99.556 45.3475 99.6082 45.2982C99.6603 45.2488 99.7218 45.2104 99.789 45.1851C99.8561 45.1598 99.9277 45.1481 99.9995 45.1508Z" fill="#845336"/>
<path d="M107.959 50.7904H101.029L101.119 50.1304L107.769 49.9004L107.959 50.7904Z" fill="#EBB78F"/>
<path d="M107.689 48.5192L107.999 50.4292H100.939L101.259 48.4492L107.689 48.5192Z" fill="#524740"/>
<path d="M108.36 54.2408C108.309 54.2397 108.259 54.2214 108.219 54.1888C108.179 54.1562 108.151 54.1111 108.14 54.0608L107.25 48.5507C107.249 48.4978 107.267 48.4461 107.301 48.4054C107.335 48.3647 107.382 48.3375 107.435 48.329C107.487 48.3205 107.541 48.3312 107.586 48.359C107.631 48.3869 107.664 48.4301 107.68 48.4807L108.58 53.9908C108.584 54.0197 108.583 54.0492 108.575 54.0775C108.568 54.1058 108.555 54.1323 108.538 54.1556C108.52 54.1789 108.498 54.1984 108.472 54.213C108.447 54.2276 108.419 54.2371 108.39 54.2408H108.36Z" fill="#DDA985"/>
<path d="M107.64 48.0293H101.35C101.118 48.0293 100.93 48.2173 100.93 48.4493C100.93 48.6813 101.118 48.8693 101.35 48.8693H107.64C107.872 48.8693 108.06 48.6813 108.06 48.4493C108.06 48.2173 107.872 48.0293 107.64 48.0293Z" fill="#DDA985"/>
<path d="M100.579 54.2391C100.522 54.2293 100.472 54.1976 100.438 54.1509C100.404 54.1041 100.39 54.046 100.399 53.9891L101.299 48.4791C101.3 48.4476 101.307 48.4166 101.321 48.3882C101.334 48.3599 101.354 48.3348 101.378 48.3146C101.402 48.2945 101.431 48.2797 101.461 48.2714C101.491 48.2631 101.523 48.2615 101.554 48.2665C101.585 48.2716 101.615 48.2833 101.641 48.3008C101.667 48.3183 101.69 48.3412 101.706 48.368C101.723 48.3948 101.733 48.4248 101.737 48.456C101.741 48.4873 101.738 48.519 101.729 48.5491L100.839 54.0591C100.827 54.1167 100.793 54.1674 100.745 54.2009C100.696 54.2343 100.637 54.248 100.579 54.2391Z" fill="#DDA985"/>
<path d="M154.72 123.839H161.94C162.113 123.839 162.278 123.771 162.4 123.649C162.522 123.527 162.59 123.361 162.59 123.189V117.279C162.59 117.186 162.569 117.095 162.531 117.011C162.492 116.927 162.436 116.852 162.366 116.791C162.295 116.731 162.213 116.686 162.124 116.659C162.036 116.633 161.942 116.626 161.85 116.639L159.96 116.889C158.878 117.029 157.782 117.029 156.7 116.889L154.81 116.639C154.719 116.626 154.625 116.633 154.536 116.659C154.447 116.686 154.365 116.731 154.295 116.791C154.225 116.852 154.169 116.927 154.13 117.011C154.091 117.095 154.071 117.186 154.07 117.279V123.189C154.07 123.361 154.139 123.527 154.261 123.649C154.383 123.771 154.548 123.839 154.72 123.839Z" fill="#00735C"/>
<path d="M155.189 123.9V120.66C155.189 119.824 155.521 119.023 156.112 118.432C156.703 117.842 157.504 117.51 158.339 117.51C159.175 117.51 159.976 117.842 160.567 118.432C161.158 119.023 161.489 119.824 161.489 120.66V123.89" fill="#099368"/>
<path d="M162.889 120.87C162.598 120.892 162.323 121.016 162.115 121.221C161.906 121.426 161.777 121.698 161.749 121.99V123.79C161.749 124.14 161.459 124.21 161.109 124.21H158.309C158.309 124.26 158.309 124.53 158.309 124.58C158.304 124.849 158.334 125.118 158.399 125.38C158.439 125.621 158.46 125.865 158.459 126.11H161.129C161.744 126.11 162.335 125.865 162.77 125.43C163.205 124.995 163.449 124.405 163.449 123.79V121.41C163.449 121.337 163.435 121.265 163.406 121.198C163.378 121.131 163.336 121.071 163.284 121.02C163.232 120.97 163.17 120.931 163.102 120.905C163.034 120.879 162.962 120.867 162.889 120.87Z" fill="#0F8060"/>
<path d="M153.819 120.869C154.12 120.883 154.405 121.004 154.622 121.212C154.839 121.42 154.973 121.7 154.999 121.999V123.799C154.999 124.149 155.289 124.219 155.639 124.219H158.439C158.439 124.269 158.439 124.539 158.439 124.589C158.445 124.859 158.414 125.128 158.349 125.389C158.309 125.63 158.289 125.875 158.289 126.119H155.599C154.984 126.119 154.394 125.875 153.959 125.44C153.524 125.005 153.279 124.414 153.279 123.799V121.419C153.278 121.347 153.291 121.276 153.318 121.209C153.344 121.143 153.384 121.082 153.434 121.031C153.484 120.98 153.544 120.939 153.61 120.911C153.677 120.883 153.748 120.869 153.819 120.869Z" fill="#0F8060"/>
<path d="M161.809 126.519H154.869L154.969 125.849L161.619 125.619L161.809 126.519Z" fill="#EBB78F"/>
<path d="M161.539 124.24L161.849 126.15H154.789L155.109 124.17L161.539 124.24Z" fill="#00735C"/>
<path d="M154.431 129.999C154.374 129.989 154.323 129.958 154.29 129.911C154.256 129.864 154.242 129.806 154.251 129.749L155.141 124.249C155.15 124.19 155.183 124.136 155.232 124.101C155.28 124.065 155.341 124.05 155.401 124.059C155.458 124.071 155.509 124.105 155.542 124.153C155.576 124.202 155.59 124.261 155.581 124.319L154.681 129.819C154.677 129.848 154.668 129.875 154.653 129.9C154.638 129.925 154.618 129.947 154.595 129.964C154.571 129.981 154.545 129.992 154.516 129.998C154.488 130.005 154.459 130.005 154.431 129.999Z" fill="#DDA985"/>
<path d="M162.21 130.001C162.158 130.002 162.108 129.984 162.067 129.951C162.027 129.918 162 129.872 161.99 129.821L161.1 124.321C161.091 124.263 161.105 124.203 161.139 124.155C161.172 124.107 161.223 124.073 161.28 124.061C161.309 124.057 161.339 124.058 161.367 124.066C161.395 124.073 161.422 124.086 161.445 124.103C161.468 124.121 161.488 124.143 161.503 124.169C161.517 124.194 161.527 124.222 161.53 124.251L162.42 129.751C162.429 129.808 162.415 129.866 162.381 129.913C162.348 129.959 162.297 129.991 162.24 130.001H162.21Z" fill="#DDA985"/>
<path d="M161.489 123.75H155.199C154.967 123.75 154.779 123.938 154.779 124.17C154.779 124.402 154.967 124.59 155.199 124.59H161.489C161.721 124.59 161.909 124.402 161.909 124.17C161.909 123.938 161.721 123.75 161.489 123.75Z" fill="#02614E"/>
<path d="M101.889 127.571H100.569C100.365 127.571 100.169 127.49 100.025 127.345C99.8803 127.201 99.7992 127.005 99.7992 126.801V123.361C99.7907 122.991 99.927 122.632 100.179 122.361L101.979 120.551L102.409 120.971L100.599 122.781C100.46 122.926 100.381 123.119 100.379 123.321V126.761C100.379 126.809 100.398 126.854 100.432 126.888C100.466 126.922 100.511 126.941 100.559 126.941H101.879L101.889 127.571Z" fill="#6C7175"/>
<path d="M101.58 119.551V129.141C101.58 129.358 101.666 129.567 101.82 129.721C101.974 129.874 102.183 129.961 102.4 129.961H107C107.108 129.962 107.215 129.942 107.315 129.901C107.416 129.86 107.506 129.8 107.583 129.724C107.659 129.647 107.72 129.556 107.76 129.456C107.801 129.356 107.821 129.249 107.82 129.141V119.551" fill="#E8E9EB"/>
<path d="M101.58 127V129.14C101.58 129.357 101.666 129.566 101.82 129.72C101.974 129.874 102.183 129.96 102.4 129.96H107C107.108 129.961 107.215 129.941 107.315 129.9C107.416 129.86 107.506 129.799 107.583 129.723C107.659 129.646 107.72 129.555 107.76 129.455C107.801 129.355 107.821 129.248 107.82 129.14V127H101.58Z" fill="#845336"/>
<path d="M105.721 116.631H103.731C103.538 116.631 103.381 116.785 103.381 116.976C103.381 117.166 103.538 117.321 103.731 117.321H105.721C105.914 117.321 106.071 117.166 106.071 116.976C106.071 116.785 105.914 116.631 105.721 116.631Z" fill="#6EB0AC"/>
<path d="M105.04 117.32H104.4V125.51H105.04V117.32Z" fill="#428984"/>
<path d="M107.8 118.869H101.63C101.371 118.869 101.16 119.08 101.16 119.339V119.349C101.16 119.609 101.371 119.819 101.63 119.819H107.8C108.06 119.819 108.27 119.609 108.27 119.349V119.339C108.27 119.08 108.06 118.869 107.8 118.869Z" fill="#6C7175"/>
<path d="M102.109 125.34C102.116 125.518 102.188 125.688 102.311 125.817C102.435 125.946 102.601 126.025 102.779 126.04H106.659C106.837 126.025 107.004 125.946 107.127 125.817C107.251 125.688 107.323 125.518 107.329 125.34" fill="#6EB0AC"/>
<path d="M107.859 122L109.159 121C109.028 120.772 108.838 120.584 108.609 120.454C108.381 120.323 108.122 120.257 107.859 120.26H107.789L107.859 122Z" fill="#E8E9EB"/>
<path d="M101.64 119.81H107.8C107.863 119.811 107.925 119.8 107.983 119.777C108.041 119.754 108.094 119.72 108.139 119.676C108.184 119.632 108.219 119.58 108.243 119.522C108.268 119.464 108.28 119.402 108.28 119.34H101.16C101.163 119.465 101.214 119.585 101.304 119.673C101.394 119.761 101.515 119.81 101.64 119.81Z" fill="#43474A"/>
<path d="M130.631 124.369L132.631 117.299C132.672 117.143 132.755 117.002 132.871 116.889L133.061 116.699L132.541 123.239L131.001 124.829L130.631 124.369Z" fill="#848A90"/>
<path d="M129.999 129.611C129.712 129.831 129.361 129.954 128.999 129.961C128.612 129.961 128.24 129.807 127.967 129.533C127.693 129.259 127.539 128.888 127.539 128.501C127.544 128.157 127.667 127.825 127.887 127.561C128.107 127.298 128.412 127.117 128.749 127.051C129.299 126.931 129.679 126.281 129.889 125.671C130.039 125.251 130.269 124.671 130.389 124.351C130.398 124.322 130.413 124.296 130.434 124.275C130.455 124.253 130.48 124.237 130.509 124.227C130.537 124.217 130.567 124.214 130.597 124.219C130.626 124.223 130.655 124.234 130.679 124.251L131.309 124.601C131.35 124.624 131.383 124.66 131.401 124.703C131.419 124.747 131.422 124.795 131.409 124.841C131.299 125.221 131.029 126.211 130.949 126.471C130.781 126.923 130.651 127.388 130.559 127.861C130.559 128.091 130.749 128.261 130.719 128.451C130.614 128.907 130.361 129.315 129.999 129.611ZM130.079 128.501C130.079 128.303 130.02 128.11 129.911 127.945C129.801 127.781 129.644 127.653 129.462 127.577C129.279 127.501 129.078 127.481 128.884 127.52C128.69 127.559 128.512 127.654 128.372 127.794C128.232 127.934 128.137 128.112 128.098 128.306C128.06 128.5 128.08 128.701 128.155 128.883C128.231 129.066 128.359 129.222 128.523 129.332C128.688 129.442 128.881 129.501 129.079 129.501C129.341 129.496 129.59 129.388 129.773 129.201C129.957 129.014 130.059 128.763 130.059 128.501H130.079Z" fill="#639895"/>
<path d="M132.651 124.311L130.651 117.231C130.601 117.079 130.519 116.939 130.411 116.821L130.211 116.631L130.731 123.181L132.301 124.771L132.651 124.311Z" fill="#D3D5D9"/>
<path d="M132.621 128.451C132.621 128.261 132.761 128.091 132.781 127.861C132.699 127.385 132.568 126.919 132.391 126.471C132.321 126.211 132.041 125.221 131.941 124.841C131.927 124.796 131.929 124.749 131.945 124.705C131.961 124.662 131.991 124.625 132.031 124.601L132.661 124.251C132.686 124.234 132.715 124.223 132.745 124.219C132.776 124.215 132.806 124.217 132.835 124.227C132.864 124.237 132.891 124.253 132.912 124.274C132.934 124.296 132.951 124.322 132.961 124.351C133.081 124.671 133.311 125.251 133.451 125.671C133.671 126.281 134.041 126.931 134.601 127.051C134.938 127.117 135.242 127.297 135.463 127.561C135.683 127.825 135.806 128.157 135.811 128.501C135.811 128.693 135.773 128.884 135.699 129.062C135.625 129.239 135.516 129.401 135.38 129.537C135.243 129.672 135.081 129.78 134.903 129.852C134.724 129.925 134.533 129.962 134.341 129.961C133.979 129.949 133.63 129.827 133.341 129.611C132.985 129.309 132.734 128.903 132.621 128.451ZM134.341 129.531C134.539 129.531 134.732 129.472 134.896 129.362C135.061 129.252 135.189 129.096 135.265 128.913C135.34 128.731 135.36 128.53 135.322 128.336C135.283 128.142 135.188 127.963 135.048 127.823C134.908 127.684 134.73 127.588 134.536 127.55C134.342 127.511 134.141 127.531 133.958 127.607C133.775 127.682 133.619 127.811 133.509 127.975C133.4 128.139 133.341 128.333 133.341 128.531C133.341 128.796 133.446 129.05 133.634 129.238C133.821 129.425 134.076 129.531 134.341 129.531Z" fill="#428984"/>
<path d="M130.661 117.231C130.61 117.079 130.529 116.939 130.421 116.821L130.221 116.631L130.271 117.201L131.701 122.201C131.723 122.278 131.765 122.349 131.823 122.405C131.881 122.461 131.952 122.501 132.031 122.521H132.151L130.661 117.231Z" fill="#E8E9EB"/>
<path d="M131.59 123.33C131.728 123.33 131.84 123.218 131.84 123.08C131.84 122.942 131.728 122.83 131.59 122.83C131.452 122.83 131.34 122.942 131.34 123.08C131.34 123.218 131.452 123.33 131.59 123.33Z" fill="#848A90"/>
<path d="M100.26 91.0009H107C107.092 90.9996 107.181 90.9658 107.251 90.9054C107.32 90.845 107.366 90.7619 107.38 90.6709L108.85 80.0609C108.857 80.0069 108.853 79.9521 108.837 79.9001C108.821 79.848 108.794 79.8 108.758 79.7592C108.722 79.7185 108.678 79.6859 108.628 79.6638C108.579 79.6416 108.525 79.6304 108.47 79.6309H98.7603C98.7059 79.6304 98.652 79.6416 98.6023 79.6638C98.5526 79.6859 98.5082 79.7185 98.4722 79.7592C98.4362 79.8 98.4093 79.848 98.3935 79.9001C98.3776 79.9521 98.3731 80.0069 98.3803 80.0609L99.8803 90.6709C99.8944 90.7619 99.9404 90.845 100.01 90.9054C100.079 90.9658 100.168 90.9996 100.26 91.0009Z" fill="#0F8060"/>
<path d="M108.501 79.6699H106.501L105.381 90.9999H107.001C107.093 90.9987 107.182 90.9648 107.251 90.9044C107.321 90.844 107.367 90.7609 107.381 90.6699L108.851 80.0599C108.854 79.9624 108.819 79.8675 108.754 79.7949C108.689 79.7223 108.598 79.6776 108.501 79.6699Z" fill="#099368"/>
<path d="M108.3 80.5293C108.213 80.7313 108.149 80.9427 108.11 81.1593C108.11 81.3493 108.11 81.5393 108.11 81.7293C108.77 81.7849 109.384 82.0911 109.825 82.5851C110.266 83.0791 110.501 83.7233 110.482 84.3853C110.463 85.0473 110.191 85.6768 109.722 86.1444C109.253 86.6119 108.622 86.8821 107.96 86.8993C107.807 86.9096 107.654 86.9096 107.5 86.8993C107.43 87.0793 107.35 87.2593 107.29 87.4493C107.23 87.6393 107.19 87.8593 107.15 88.0593C107.416 88.1199 107.688 88.1501 107.96 88.1493C108.935 88.1495 109.872 87.7755 110.578 87.1047C111.284 86.4339 111.706 85.5174 111.756 84.5446C111.806 83.5717 111.481 82.6168 110.847 81.877C110.213 81.1372 109.319 80.6691 108.35 80.5693L108.3 80.5293Z" fill="#099368"/>
<path d="M99.8805 90.7106C99.8947 90.8016 99.9406 90.8847 100.01 90.9451C100.08 91.0055 100.168 91.0394 100.261 91.0406H107.001C107.093 91.0394 107.181 91.0055 107.251 90.9451C107.32 90.8847 107.366 90.8016 107.381 90.7106L107.911 86.8906H99.3105L99.8805 90.7106Z" fill="#00735C"/>
</g>
<defs>
<filter id="filter0_d_3500_81281" x="5.48047" y="23.9805" width="168.52" height="122.74" filterUnits="userSpaceOnUse" color-interpolation-filters="sRGB">
<feFlood flood-opacity="0" result="BackgroundImageFix"/>
<feColorMatrix in="SourceAlpha" type="matrix" values="0 0 0 0 0 0 0 0 0 0 0 0 0 0 0 0 0 0 127 0" result="hardAlpha"/>
<feOffset/>
<feGaussianBlur stdDeviation="2"/>
<feComposite in2="hardAlpha" operator="out"/>
<feColorMatrix type="matrix" values="0 0 0 0 0 0 0 0 0 0 0 0 0 0 0 0 0 0 0.2 0"/>
<feBlend mode="normal" in2="BackgroundImageFix" result="effect1_dropShadow_3500_81281"/>
<feBlend mode="normal" in="SourceGraphic" in2="effect1_dropShadow_3500_81281" result="shape"/>
</filter>
</defs>
</svg>
